<svg version="1.1" xmlns="http://www.w3.org/2000/svg" viewBox="0 0 657.3373820733666 711.8999919891357" width="1314.6747641467332" height="1423.7999839782715">
  <!-- svg-source:excalidraw -->
  
  <defs>
    <style class="style-fonts">
      @font-face {
        font-family: "Virgil";
        src: url("https://excalidraw.com/Virgil.woff2");
      }
      @font-face {
        font-family: "Cascadia";
        src: url("https://excalidraw.com/Cascadia.woff2");
      }
      @font-face {
        font-family: "Assistant";
        src: url("https://excalidraw.com/Assistant-Regular.woff2");
      }
    </style>
    
  </defs>
  <rect x="0" y="0" width="657.3373820733666" height="711.8999919891357" fill="#ffffff"></rect><g stroke-linecap="round" transform="translate(10 250.89998054504395) rotate(0 105.19999694824219 60.00000762939453)"><path d="M7.33 7.7 C7.33 7.7, 7.33 7.7, 7.33 7.7 M7.33 7.7 C7.33 7.7, 7.33 7.7, 7.33 7.7 M2.48 19.38 C5.75 13.92, 10.42 8.02, 17.56 2.02 M2.48 19.38 C7.46 13.53, 14.01 5.92, 17.56 2.02 M0.9 27.28 C8.26 21.61, 14.06 13.04, 23.21 1.62 M0.9 27.28 C9.87 18.26, 19.27 7.08, 23.21 1.62 M0.64 33.68 C8.57 25.07, 13.41 18.12, 29.51 0.47 M0.64 33.68 C9.43 24.26, 16.51 16.04, 29.51 0.47 M0.38 40.08 C11.54 26, 22.82 13.43, 34.49 0.83 M0.38 40.08 C10.35 28.45, 19.77 17.53, 34.49 0.83 M0.77 45.72 C14.75 30.55, 28.25 15.76, 40.14 0.44 M0.77 45.72 C10.84 34.12, 21.58 22.68, 40.14 0.44 M0.51 52.12 C12.81 35.64, 28.08 19.12, 45.12 0.8 M0.51 52.12 C9.97 41.56, 20.77 29.47, 45.12 0.8 M0.91 57.76 C19.74 39.22, 36.22 16.81, 50.77 0.41 M0.91 57.76 C16.66 41.02, 31.48 22.25, 50.77 0.41 M0.65 64.16 C10.65 48.72, 22.16 38.7, 55.75 0.77 M0.65 64.16 C17.74 46.19, 32.76 26.83, 55.75 0.77 M0.38 70.56 C15.2 52.95, 29.32 35.06, 61.4 0.37 M0.38 70.56 C23.17 44.81, 44.04 19.38, 61.4 0.37 M0.78 76.2 C15.44 60.9, 28.08 45.59, 66.38 0.73 M0.78 76.2 C19.92 54.82, 38.59 33.27, 66.38 0.73 M0.52 82.6 C28.01 52.56, 53.83 20.58, 72.03 0.34 M0.52 82.6 C16.34 64.3, 32.99 45.34, 72.03 0.34 M0.91 88.24 C30.5 53, 60.6 19.48, 77.01 0.7 M0.91 88.24 C22.6 64.24, 44.29 39.19, 77.01 0.7 M0.65 94.64 C25.85 64.67, 53.26 31.83, 82.66 0.3 M0.65 94.64 C23.61 67.9, 48.06 40.48, 82.66 0.3 M1.7 99.53 C17.99 80.26, 39.48 59.82, 87.64 0.66 M1.7 99.53 C34.74 60.26, 68.87 21.01, 87.64 0.66 M3.41 103.66 C23.37 78.65, 45.78 53.4, 93.29 0.27 M3.41 103.66 C23.46 81.34, 43.05 59.12, 93.29 0.27 M4.46 108.55 C29.78 77.52, 53.51 49.53, 98.27 0.63 M4.46 108.55 C29.48 80.56, 53.03 51.68, 98.27 0.63 M7.48 111.18 C37.32 76.48, 65.86 46.66, 103.26 0.99 M7.48 111.18 C32.47 83.21, 56.17 55.3, 103.26 0.99 M9.84 114.55 C43.28 75.48, 73.86 39.95, 108.9 0.59 M9.84 114.55 C44.52 73.13, 79.25 34.34, 108.9 0.59 M13.51 116.42 C39.69 88.67, 64.46 58.44, 113.89 0.95 M13.51 116.42 C44.81 80.07, 76.9 45.33, 113.89 0.95 M17.19 118.29 C45.18 87.98, 72.43 53.47, 119.53 0.56 M17.19 118.29 C45.31 88.9, 70.51 58.29, 119.53 0.56 M21.52 119.41 C49.49 86.59, 76.04 57.78, 124.52 0.92 M21.52 119.41 C49.71 86.47, 79.57 52.47, 124.52 0.92 M25.85 120.52 C65.04 77.38, 103.61 31.19, 130.16 0.52 M25.85 120.52 C46.86 97.15, 67.91 73.56, 130.16 0.52 M31.49 120.13 C63.27 86.39, 91.52 51.2, 135.15 0.88 M31.49 120.13 C65.33 79.84, 100.24 39.79, 135.15 0.88 M36.48 120.49 C74.57 76.23, 115.58 32.55, 140.79 0.49 M36.48 120.49 C71.11 82.06, 103.95 41.61, 140.79 0.49 M42.12 120.09 C72.43 84.09, 100.51 52.48, 145.78 0.85 M42.12 120.09 C66.46 91.99, 91.11 65.67, 145.78 0.85 M47.11 120.45 C76.41 87.25, 103.58 55.86, 151.43 0.46 M47.11 120.45 C88.44 73.1, 129.26 25.23, 151.43 0.46 M52.75 120.06 C74.68 94.23, 96.52 69.22, 156.41 0.82 M52.75 120.06 C91.78 75.14, 130.67 30.03, 156.41 0.82 M57.74 120.42 C91.81 82.13, 123 42.22, 162.06 0.42 M57.74 120.42 C90.57 80.16, 125 40.56, 162.06 0.42 M63.38 120.03 C86.09 93.2, 111.92 66.44, 167.04 0.78 M63.38 120.03 C102.68 74.57, 141.07 29.75, 167.04 0.78 M68.37 120.39 C110.91 72.47, 151.28 25.8, 172.69 0.39 M68.37 120.39 C93.75 91.68, 119.02 62.62, 172.69 0.39 M74.01 119.99 C99 90.29, 128.32 57.06, 177.67 0.75 M74.01 119.99 C108.53 80.33, 142.33 43.15, 177.67 0.75 M79 120.35 C102.49 90.2, 128.86 62.32, 183.32 0.35 M79 120.35 C120.93 74.07, 161.57 26.67, 183.32 0.35 M84.65 119.96 C115.56 85.19, 145.18 51.62, 188.3 0.71 M84.65 119.96 C111.53 88.76, 137.36 59.15, 188.3 0.71 M89.63 120.32 C112.89 93.79, 138.74 63.76, 191.98 2.58 M89.63 120.32 C112.84 91.04, 138 64.16, 191.98 2.58 M95.28 119.92 C120.05 91.07, 141.09 65.98, 196.31 3.7 M95.28 119.92 C124.41 85.49, 155.29 51.2, 196.31 3.7 M100.26 120.28 C123.76 93.22, 146.65 65.89, 199.98 5.57 M100.26 120.28 C121.21 97.2, 142.76 72.69, 199.98 5.57 M105.91 119.89 C130.29 91.03, 157.67 60.52, 203 8.19 M105.91 119.89 C142.23 77.39, 177.61 37.34, 203 8.19 M110.89 120.25 C142.02 85.67, 170.12 54.27, 206.02 10.81 M110.89 120.25 C144.12 83.92, 176.16 47.24, 206.02 10.81 M116.54 119.85 C146.33 87.56, 175.07 54.67, 207.73 14.95 M116.54 119.85 C137.09 95.31, 160.47 69.6, 207.73 14.95 M121.52 120.21 C154.47 81.33, 190.73 40.85, 208.78 19.84 M121.52 120.21 C153.98 84.44, 186.93 46.58, 208.78 19.84 M127.17 119.82 C154.03 85.28, 183.78 56.7, 209.83 24.72 M127.17 119.82 C150.44 91.21, 174.43 63.84, 209.83 24.72 M132.15 120.18 C151.62 99.35, 170.96 75.52, 210.22 30.37 M132.15 120.18 C154.04 94.01, 177.08 67.1, 210.22 30.37 M137.8 119.78 C156.63 99.44, 176.44 76.98, 209.96 36.77 M137.8 119.78 C160.21 91.39, 185.02 63.32, 209.96 36.77 M142.78 120.14 C168.27 91.01, 189.36 67.92, 210.36 42.41 M142.78 120.14 C157.27 103.56, 172.31 85.52, 210.36 42.41 M147.77 120.5 C164.11 101.71, 179.15 84.69, 210.1 48.81 M147.77 120.5 C173.15 92.74, 196.62 63.2, 210.1 48.81 M153.41 120.11 C170.25 100.97, 190.54 79.68, 210.49 54.45 M153.41 120.11 C170.24 99.67, 187.85 80.64, 210.49 54.45 M158.4 120.47 C169.34 105.97, 178.92 96.34, 210.23 60.85 M158.4 120.47 C177.48 98.57, 195.45 77.92, 210.23 60.85 M164.04 120.07 C180.25 103.06, 192.1 87.89, 209.97 67.25 M164.04 120.07 C182.01 100.83, 198.62 78.9, 209.97 67.25 M169.03 120.43 C181.13 107.05, 196.04 89.87, 210.36 72.89 M169.03 120.43 C181.31 106.07, 192.77 92.78, 210.36 72.89 M174.67 120.04 C187.53 108.56, 196.16 95.08, 210.1 79.29 M174.67 120.04 C187.34 104.45, 201.13 88.62, 210.1 79.29 M179.66 120.4 C186.22 112.56, 194.78 101.11, 210.49 84.93 M179.66 120.4 C190.54 107.78, 201.48 96.6, 210.49 84.93 M185.3 120.01 C195.64 110.43, 202.4 101.58, 210.89 90.57 M185.3 120.01 C192.7 112.78, 199.35 104.15, 210.89 90.57 M191.6 118.86 C196.17 112.73, 200.09 109.54, 209.97 97.72 M191.6 118.86 C195.79 114.58, 200.67 109.41, 209.97 97.72 M199.21 116.2 C200.93 113.42, 203 112.15, 207.09 107.14 M199.21 116.2 C201.54 113.59, 204.39 109.68, 207.09 107.14" stroke="#be4bdb" stroke-width="0.5" fill="none"></path><path d="M30 0 C81.58 0.33, 135.93 1.86, 180.4 0 M30 0 C65.14 0.55, 100.96 -0.06, 180.4 0 M180.4 0 C200.22 0.21, 209.01 10.23, 210.4 30 M180.4 0 C198.47 -0.79, 208.87 9.04, 210.4 30 M210.4 30 C210.21 52.34, 212.07 70.76, 210.4 90 M210.4 30 C211.35 49.62, 210.52 71.35, 210.4 90 M210.4 90 C209.37 110.49, 199.75 119.45, 180.4 120 M210.4 90 C212.06 107.95, 198.98 118.01, 180.4 120 M180.4 120 C128.56 121.93, 76.68 120.84, 30 120 M180.4 120 C121.1 120.49, 63.86 119.8, 30 120 M30 120 C9.36 121.72, -1.32 109.6, 0 90 M30 120 C11.72 121.75, -1.62 110.38, 0 90 M0 90 C0.7 67.97, -1.52 46.5, 0 30 M0 90 C0.88 72.9, 0.96 54.23, 0 30 M0 30 C-1.2 10.58, 10.63 1.93, 30 0 M0 30 C0.69 10.3, 10.17 1.54, 30 0" stroke="#000000" stroke-width="1" fill="none"></path></g><g transform="translate(72.25995254516602 287.899995803833) rotate(0 41.70000076293945 25)"><text x="41.70000076293945" y="0" font-family="Virgil, Segoe UI Emoji" font-size="20px" fill="#000000" text-anchor="middle" style="white-space: pre;" direction="ltr" dominant-baseline="text-before-edge">Frontend</text><text x="41.70000076293945" y="25" font-family="Virgil, Segoe UI Emoji" font-size="20px" fill="#000000" text-anchor="middle" style="white-space: pre;" direction="ltr" dominant-baseline="text-before-edge">(React)</text></g><g stroke-linecap="round" transform="translate(301.9999542236328 254.69995307922363) rotate(0 105.19999694824219 60.00000762939453)"><path d="M7.33 7.7 C7.33 7.7, 7.33 7.7, 7.33 7.7 M7.33 7.7 C7.33 7.7, 7.33 7.7, 7.33 7.7 M2.48 19.38 C5.04 17.12, 8.92 11.9, 17.56 2.02 M2.48 19.38 C7.02 11.84, 13.43 6.19, 17.56 2.02 M0.9 27.28 C9.03 19.37, 12.48 10.38, 23.21 1.62 M0.9 27.28 C8.14 18.91, 16.57 10.26, 23.21 1.62 M0.64 33.68 C8.28 28.07, 13.39 18.42, 29.51 0.47 M0.64 33.68 C8.69 25.39, 15.11 17.26, 29.51 0.47 M0.38 40.08 C11.5 24.64, 28.63 7.53, 34.49 0.83 M0.38 40.08 C13.44 25.89, 23.84 12.91, 34.49 0.83 M0.77 45.72 C12.11 32.81, 22.99 19.53, 40.14 0.44 M0.77 45.72 C15.53 30, 30.38 12.18, 40.14 0.44 M0.51 52.12 C14.57 35.81, 25.01 21.33, 45.12 0.8 M0.51 52.12 C11.56 40.53, 22.87 26.17, 45.12 0.8 M0.91 57.76 C14.36 41.45, 32.09 24.67, 50.77 0.41 M0.91 57.76 C18.26 38.03, 36.92 17.91, 50.77 0.41 M0.65 64.16 C13.3 49.16, 23.78 35.76, 55.75 0.77 M0.65 64.16 C13.17 50.44, 26.51 34.48, 55.75 0.77 M0.38 70.56 C23.33 48.06, 44.09 20.16, 61.4 0.37 M0.38 70.56 C23.54 43.13, 46.47 16.23, 61.4 0.37 M0.78 76.2 C15.82 57.83, 33.86 42.19, 66.38 0.73 M0.78 76.2 C16.33 56.93, 32.33 37.7, 66.38 0.73 M0.52 82.6 C23.56 57.1, 44.71 34.56, 72.03 0.34 M0.52 82.6 C17.64 64.84, 32.54 45.72, 72.03 0.34 M0.91 88.24 C26.61 56.28, 54.21 23.81, 77.01 0.7 M0.91 88.24 C28.98 55.08, 56.67 23.92, 77.01 0.7 M0.65 94.64 C22.88 68.96, 44.7 43.76, 82.66 0.3 M0.65 94.64 C18.36 72.96, 37.74 52.3, 82.66 0.3 M1.7 99.53 C23.88 75.76, 42.37 56.24, 87.64 0.66 M1.7 99.53 C36.16 60.98, 69.66 22.25, 87.64 0.66 M3.41 103.66 C23.28 80.74, 42.84 60.57, 93.29 0.27 M3.41 103.66 C31.66 71.02, 59.16 38.76, 93.29 0.27 M4.46 108.55 C30.9 78.81, 54.09 48.59, 98.27 0.63 M4.46 108.55 C24.62 85.55, 45.78 61.95, 98.27 0.63 M7.48 111.18 C45.03 69.26, 79.13 26.28, 103.26 0.99 M7.48 111.18 C43.14 71.75, 76.77 31.12, 103.26 0.99 M9.84 114.55 C43.82 76.24, 74.51 36.04, 108.9 0.59 M9.84 114.55 C41.83 76.7, 74.94 40.12, 108.9 0.59 M13.51 116.42 C34.79 94.16, 55.09 69.31, 113.89 0.95 M13.51 116.42 C39.79 85.32, 66.06 52.86, 113.89 0.95 M17.19 118.29 C39.49 92.02, 63.51 66.26, 119.53 0.56 M17.19 118.29 C44.96 87.93, 69.79 59.23, 119.53 0.56 M21.52 119.41 C45.83 90.2, 70.39 61.97, 124.52 0.92 M21.52 119.41 C47.61 88.98, 74.49 58.65, 124.52 0.92 M25.85 120.52 C46.6 96.2, 68.95 74.06, 130.16 0.52 M25.85 120.52 C59.86 80.15, 95.03 40.59, 130.16 0.52 M31.49 120.13 C53.27 94.69, 75.96 69.33, 135.15 0.88 M31.49 120.13 C73.67 73.21, 113.55 27.75, 135.15 0.88 M36.48 120.49 C63.37 88.6, 90.53 57.46, 140.79 0.49 M36.48 120.49 C74.78 77.38, 113.1 33.21, 140.79 0.49 M42.12 120.09 C79.9 74.98, 119.87 29.47, 145.78 0.85 M42.12 120.09 C65.32 92.42, 88.14 65.71, 145.78 0.85 M47.11 120.45 C74.4 88.32, 101.5 60.93, 151.43 0.46 M47.11 120.45 C82.49 82.57, 116.22 42.98, 151.43 0.46 M52.75 120.06 C92.03 76.87, 130.32 31.69, 156.41 0.82 M52.75 120.06 C93.62 75.63, 133.55 27.98, 156.41 0.82 M57.74 120.42 C94.17 75.9, 135.94 30.05, 162.06 0.42 M57.74 120.42 C84.6 87.22, 113.43 55.25, 162.06 0.42 M63.38 120.03 C96.6 84.69, 126.62 49.59, 167.04 0.78 M63.38 120.03 C103.22 74.62, 143.73 28.49, 167.04 0.78 M68.37 120.39 C95.64 85.91, 127.85 51.66, 172.69 0.39 M68.37 120.39 C91.5 93.4, 116.59 64.24, 172.69 0.39 M74.01 119.99 C110.34 80.33, 144.72 39.47, 177.67 0.75 M74.01 119.99 C115.78 72.11, 157.07 24.89, 177.67 0.75 M79 120.35 C115.47 76.29, 151.99 35.1, 183.32 0.35 M79 120.35 C113.34 81.16, 145.83 42.46, 183.32 0.35 M84.65 119.96 C113.56 84.32, 143.93 53.29, 188.3 0.71 M84.65 119.96 C116.12 84.91, 147.31 49.02, 188.3 0.71 M89.63 120.32 C113.04 91.55, 137.98 64.08, 191.98 2.58 M89.63 120.32 C111.71 95.62, 134.57 70.32, 191.98 2.58 M95.28 119.92 C134.49 76.17, 170.7 28.6, 196.31 3.7 M95.28 119.92 C134.81 75.63, 173.6 30.35, 196.31 3.7 M100.26 120.28 C132.53 79.04, 169.62 39.94, 199.98 5.57 M100.26 120.28 C128.54 87.6, 158.12 55.73, 199.98 5.57 M105.91 119.89 C142.46 77.82, 177.28 36.32, 203 8.19 M105.91 119.89 C137.96 84.31, 169.32 47.29, 203 8.19 M110.89 120.25 C141.16 83.52, 171.07 51.8, 206.02 10.81 M110.89 120.25 C137.04 91.94, 160.77 64.66, 206.02 10.81 M116.54 119.85 C149.44 82.32, 181.91 45.01, 207.73 14.95 M116.54 119.85 C150 82.38, 181.53 44.83, 207.73 14.95 M121.52 120.21 C148.49 88.66, 175.42 56.75, 208.78 19.84 M121.52 120.21 C152.14 83.14, 184.07 48.1, 208.78 19.84 M127.17 119.82 C158.64 81.91, 190 44.24, 209.83 24.72 M127.17 119.82 C150.67 93.28, 173.27 66.17, 209.83 24.72 M132.15 120.18 C164.75 86.78, 191.42 51.93, 210.22 30.37 M132.15 120.18 C160.28 87.19, 190.62 54.89, 210.22 30.37 M137.8 119.78 C158.56 99.52, 175.89 76.82, 209.96 36.77 M137.8 119.78 C158.83 95.36, 182 68.33, 209.96 36.77 M142.78 120.14 C163.97 93.51, 187.08 69.3, 210.36 42.41 M142.78 120.14 C166.5 92.87, 190.06 64.28, 210.36 42.41 M147.77 120.5 C167.76 94.34, 189.8 70.27, 210.1 48.81 M147.77 120.5 C170.22 92.43, 195.52 66.06, 210.1 48.81 M153.41 120.11 C175.21 95.32, 195.33 72.47, 210.49 54.45 M153.41 120.11 C174.14 96.08, 195.5 69.99, 210.49 54.45 M158.4 120.47 C173.14 100.62, 191.5 84.76, 210.23 60.85 M158.4 120.47 C172.47 104.11, 185.99 86.66, 210.23 60.85 M164.04 120.07 C177.21 104.13, 190.38 91.67, 209.97 67.25 M164.04 120.07 C178.62 102.8, 194.38 84.82, 209.97 67.25 M169.03 120.43 C178.18 109.46, 184.89 102.13, 210.36 72.89 M169.03 120.43 C180.63 106.9, 193.56 92.94, 210.36 72.89 M174.67 120.04 C184.36 108.53, 198.9 93.11, 210.1 79.29 M174.67 120.04 C185.77 106.59, 199.39 92.74, 210.1 79.29 M179.66 120.4 C186.28 112.76, 193.89 104.16, 210.49 84.93 M179.66 120.4 C190.14 108.91, 201.11 96.6, 210.49 84.93 M185.3 120.01 C191.97 113.84, 197.91 105.48, 210.89 90.57 M185.3 120.01 C194.53 108.79, 203.15 99.82, 210.89 90.57 M191.6 118.86 C196.52 112.1, 205.12 105.64, 209.97 97.72 M191.6 118.86 C195.97 112.88, 202.74 108.06, 209.97 97.72 M199.21 116.2 C202 113.79, 203.8 111.4, 207.09 107.14 M199.21 116.2 C201.67 113.22, 204.45 110.39, 207.09 107.14" stroke="#4c6ef5" stroke-width="0.5" fill="none"></path><path d="M30 0 C89.16 -1.86, 145.16 -1.99, 180.4 0 M30 0 C69.87 1.32, 108.28 1.03, 180.4 0 M180.4 0 C199.89 -0.05, 208.78 10.71, 210.4 30 M180.4 0 C198.56 1.7, 209.49 11.49, 210.4 30 M210.4 30 C211.41 48.66, 208.76 65.34, 210.4 90 M210.4 30 C210.48 47.46, 210.93 62.98, 210.4 90 M210.4 90 C211.02 110.05, 200.16 119.2, 180.4 120 M210.4 90 C211.22 108.03, 200.69 122.09, 180.4 120 M180.4 120 C143.15 120.82, 104.19 120.64, 30 120 M180.4 120 C131.19 120.32, 80.04 121.49, 30 120 M30 120 C11.07 121.2, 0.85 110.67, 0 90 M30 120 C8.35 120.11, 1.79 108.85, 0 90 M0 90 C1.25 74.24, -0.1 57.94, 0 30 M0 90 C-0.8 76.77, 0.03 61.72, 0 30 M0 30 C0.25 8.78, 10.1 1.32, 30 0 M0 30 C-0.79 8.91, 9.06 -2.12, 30 0" stroke="#000000" stroke-width="1" fill="none"></path></g><g transform="translate(348.14997482299805 287.8999652862549) rotate(0 58.79999923706055 25)"><text x="58.79999923706055" y="0" font-family="Virgil, Segoe UI Emoji" font-size="20px" fill="#000000" text-anchor="middle" style="white-space: pre;" direction="ltr" dominant-baseline="text-before-edge">Backend</text><text x="58.79999923706055" y="25" font-family="Virgil, Segoe UI Emoji" font-size="20px" fill="#000000" text-anchor="middle" style="white-space: pre;" direction="ltr" dominant-baseline="text-before-edge">(REST API)</text></g><g stroke-linecap="round" transform="translate(308.4842432696237 599.8999767303467) rotate(0 105.19999694824219 51.00000762939453)"><path d="M6.13 6.66 C6.13 6.66, 6.13 6.66, 6.13 6.66 M6.13 6.66 C6.13 6.66, 6.13 6.66, 6.13 6.66 M0.62 19.09 C3.19 16.83, 7.06 11.61, 15.71 1.73 M0.62 19.09 C5.17 11.55, 11.58 5.91, 15.71 1.73 M1.02 24.73 C8.76 17.27, 11.82 8.73, 22.01 0.58 M1.02 24.73 C7.8 16.88, 15.78 8.74, 22.01 0.58 M0.75 31.13 C7.97 26.01, 12.64 16.86, 27.65 0.19 M0.75 31.13 C8.31 23.42, 14.23 15.86, 27.65 0.19 M1.15 36.77 C11.27 22.51, 27.37 6.58, 32.64 0.55 M1.15 36.77 C13.27 23.62, 22.75 11.69, 32.64 0.55 M0.89 43.17 C11.68 30.87, 22.03 18.21, 38.28 0.15 M0.89 43.17 C14.91 28.29, 29.03 11.3, 38.28 0.15 M1.28 48.82 C14.59 33.36, 24.26 19.77, 43.27 0.51 M1.28 48.82 C11.67 37.95, 22.33 24.34, 43.27 0.51 M1.02 55.21 C13.87 39.56, 31.03 23.45, 48.91 0.12 M1.02 55.21 C17.68 36.27, 35.64 16.96, 48.91 0.12 M0.76 61.61 C12.98 47.09, 23.02 34.19, 53.9 0.48 M0.76 61.61 C12.84 48.41, 25.73 32.97, 53.9 0.48 M1.15 67.25 C22.91 46.06, 42.51 19.5, 58.89 0.84 M1.15 67.25 C23.04 41.27, 44.74 15.79, 58.89 0.84 M0.89 73.65 C15.45 55.8, 33.02 40.7, 64.53 0.44 M0.89 73.65 C15.98 54.96, 31.47 36.3, 64.53 0.44 M1.29 79.29 C23.33 54.92, 43.5 33.49, 69.52 0.81 M1.29 79.29 C17.65 62.39, 31.8 44.13, 69.52 0.81 M1.68 84.94 C26.47 54.07, 53.14 22.66, 75.16 0.41 M1.68 84.94 C28.76 52.9, 55.49 22.85, 75.16 0.41 M2.73 89.83 C23.71 65.51, 44.32 41.72, 80.15 0.77 M2.73 89.83 C19.44 69.32, 37.79 49.86, 80.15 0.77 M5.1 93.21 C26.02 70.8, 43.32 52.67, 85.79 0.38 M5.1 93.21 C37.46 57.01, 68.91 20.64, 85.79 0.38 M8.11 95.83 C26.47 74.65, 44.51 56.24, 90.78 0.74 M8.11 95.83 C34.16 65.74, 59.4 36.07, 90.78 0.74 M10.48 99.21 C34.85 71.9, 55.91 44.14, 96.42 0.34 M10.48 99.21 C28.91 78.19, 48.34 56.58, 96.42 0.34 M14.81 100.32 C48.82 62.44, 79.45 23.45, 101.41 0.7 M14.81 100.32 C47.07 64.72, 77.4 27.9, 101.41 0.7 M19.79 100.68 C49.83 66.96, 76.55 31.33, 107.05 0.31 M19.79 100.68 C47.94 67.27, 77.22 35.09, 107.05 0.31 M24.13 101.8 C42.94 82.52, 60.67 60.64, 112.04 0.67 M24.13 101.8 C47.1 74.64, 70.02 46.03, 112.04 0.67 M28.46 102.91 C47.84 80.11, 68.85 57.8, 117.68 0.27 M28.46 102.91 C52.78 76.42, 74.3 51.54, 117.68 0.27 M34.1 102.52 C54.85 77.27, 75.92 53.04, 122.67 0.63 M34.1 102.52 C56.55 76.35, 79.66 50.35, 122.67 0.63 M39.09 102.88 C56.87 81.96, 76.15 63.35, 128.31 0.24 M39.09 102.88 C68.25 68.39, 98.4 34.6, 128.31 0.24 M44.73 102.48 C63.12 80.87, 82.48 59.34, 133.3 0.6 M44.73 102.48 C80.87 62.29, 114.9 23.57, 133.3 0.6 M49.72 102.84 C72.82 75.41, 96.04 48.81, 138.94 0.2 M49.72 102.84 C82.42 66.1, 115.26 28.23, 138.94 0.2 M55.36 102.45 C87.47 63.95, 121.66 25.09, 143.93 0.56 M55.36 102.45 C75.26 78.8, 94.64 56.05, 143.93 0.56 M60.35 102.81 C83.74 75.06, 107.04 52.05, 149.57 0.17 M60.35 102.81 C90.68 70.49, 119.52 36.53, 149.57 0.17 M65.99 102.41 C99.66 65.57, 132.42 26.75, 154.56 0.53 M65.99 102.41 C101.02 64.57, 135.14 23.61, 154.56 0.53 M70.98 102.77 C101.85 64.73, 137.96 25.39, 160.2 0.13 M70.98 102.77 C93.87 74.37, 118.63 47.09, 160.2 0.13 M76.62 102.38 C105.23 72.23, 130.64 42.41, 165.19 0.49 M76.62 102.38 C110.71 63.68, 145.34 24.31, 165.19 0.49 M81.61 102.74 C104.48 73.37, 132.33 44.13, 170.18 0.85 M81.61 102.74 C101.18 79.9, 122.61 54.95, 170.18 0.85 M87.25 102.35 C118.45 68.55, 147.81 33.48, 175.82 0.46 M87.25 102.35 C123.01 61.4, 158.29 21.09, 175.82 0.46 M92.24 102.71 C123.29 65.08, 154.25 30.29, 180.81 0.82 M92.24 102.71 C121.42 69.32, 148.86 36.42, 180.81 0.82 M97.88 102.31 C122.59 71.66, 148.69 45.54, 186.45 0.43 M97.88 102.31 C124.8 72.43, 151.52 41.68, 186.45 0.43 M102.87 102.67 C122.82 78, 144.17 54.65, 190.78 1.54 M102.87 102.67 C121.73 81.51, 141.46 59.8, 190.78 1.54 M108.51 102.28 C142.3 64.92, 172.96 23.73, 195.11 2.66 M108.51 102.28 C142.46 64.38, 175.59 25.62, 195.11 2.66 M113.5 102.64 C141.04 67, 173.26 33.51, 199.44 3.77 M113.5 102.64 C137.74 74.4, 163.42 47.02, 199.44 3.77 M119.14 102.24 C150.79 65.69, 180.78 29.74, 203.12 5.64 M119.14 102.24 C146.89 71.45, 173.99 39.33, 203.12 5.64 M124.13 102.6 C150.1 70.92, 175.73 44.12, 205.48 9.02 M124.13 102.6 C146.6 78.26, 166.77 55.07, 205.48 9.02 M129.77 102.21 C157.8 70.15, 185.56 38.28, 207.84 12.4 M129.77 102.21 C158.53 70.09, 185.37 37.93, 207.84 12.4 M134.76 102.57 C157.96 75.45, 181.04 47.96, 209.55 16.53 M134.76 102.57 C160.92 70.7, 188.42 40.75, 209.55 16.53 M140.4 102.17 C167.19 69.88, 193.72 37.75, 210.6 21.42 M140.4 102.17 C160.46 79.6, 179.6 56.49, 210.6 21.42 M145.39 102.53 C172.79 75.01, 194.42 45.97, 210.34 27.82 M145.39 102.53 C168.64 74.99, 194.18 48.21, 210.34 27.82 M150.37 102.89 C167.94 86.23, 182.04 67.24, 210.73 33.46 M150.37 102.89 C167.85 82.58, 187.42 59.7, 210.73 33.46 M156.02 102.5 C172.89 80.91, 191.72 61.62, 210.47 39.86 M156.02 102.5 C175.12 80.52, 194 57.31, 210.47 39.86 M161 102.86 C176.85 81.65, 194.62 62.47, 210.87 45.5 M161 102.86 C178.82 80.3, 199.37 59.4, 210.87 45.5 M166.65 102.46 C183.67 83.1, 198.99 65.77, 210.6 51.9 M166.65 102.46 C182.39 84.11, 198.88 63.64, 210.6 51.9 M171.64 102.82 C182.5 87.43, 196.96 76.05, 211 57.54 M171.64 102.82 C182.29 90.51, 192.36 77.05, 211 57.54 M177.28 102.43 C186.91 90.51, 196.5 82.18, 210.74 63.94 M177.28 102.43 C187.74 90.04, 199.36 76.84, 210.74 63.94 M182.27 102.79 C188.69 94.68, 192.83 90.32, 211.13 69.58 M182.27 102.79 C190.27 93.42, 199.62 83.59, 211.13 69.58 M188.56 101.64 C193.72 95.18, 203.81 84.87, 210.21 76.74 M188.56 101.64 C195 93.54, 204 85.01, 210.21 76.74 M195.52 99.74 C197.72 96.97, 201.03 93.32, 208.64 84.64 M195.52 99.74 C199.93 95.24, 204.93 89.79, 208.64 84.64" stroke="#4c6ef5" stroke-width="0.5" fill="none"></path><path d="M25.5 0 C88.13 -1.94, 147.61 -2.08, 184.9 0 M25.5 0 C67.73 1.37, 108.5 1.08, 184.9 0 M184.9 0 C201.39 -0.05, 208.78 9.21, 210.4 25.5 M184.9 0 C200.06 1.7, 209.49 9.99, 210.4 25.5 M210.4 25.5 C211.44 41.44, 208.79 55.39, 210.4 76.5 M210.4 25.5 C210.51 40.45, 210.96 53.47, 210.4 76.5 M210.4 76.5 C211.02 93.55, 201.66 101.2, 184.9 102 M210.4 76.5 C211.22 91.53, 202.19 104.09, 184.9 102 M184.9 102 C145.38 102.84, 104.15 102.67, 25.5 102 M184.9 102 C132.7 102.36, 78.56 103.53, 25.5 102 M25.5 102 C9.57 103.2, 0.85 94.17, 0 76.5 M25.5 102 C6.85 102.11, 1.79 92.35, 0 76.5 M0 76.5 C1.27 63.16, -0.07 49.27, 0 25.5 M0 76.5 C-0.8 65.37, 0.03 52.43, 0 25.5 M0 25.5 C0.25 7.28, 8.6 1.32, 25.5 0 M0 25.5 C-0.79 7.41, 7.56 -2.12, 25.5 0" stroke="#000000" stroke-width="1" fill="none"></path></g><g transform="translate(325.62427317685024 625.0999889373779) rotate(0 86.44999694824219 25)"><text x="86.44999694824219" y="0" font-family="Virgil, Segoe UI Emoji" font-size="20px" fill="#000000" text-anchor="middle" style="white-space: pre;" direction="ltr" dominant-baseline="text-before-edge">Worker</text><text x="86.44999694824219" y="25" font-family="Virgil, Segoe UI Emoji" font-size="20px" fill="#000000" text-anchor="middle" style="white-space: pre;" direction="ltr" dominant-baseline="text-before-edge">(watcher/listener)</text></g><g stroke-linecap="round"><g transform="translate(222.68424021786598 315.2181421172258) rotate(0 37.99999999999994 0.7897752514188028)"><path d="M-0.16 0.79 C12.54 0.91, 63.54 1.26, 76.23 1.57 M-1.71 0.16 C10.86 0.41, 62.59 2.98, 75.4 3.1" stroke="#000000" stroke-width="1" fill="none"></path></g><g transform="translate(222.68424021786598 315.2181421172258) rotate(0 37.99999999999994 0.7897752514188028)"><path d="M51.64 10.89 C60.03 8.96, 65.83 6.16, 75.4 3.1 M51.64 10.89 C61.73 6.81, 69.24 4.42, 75.4 3.1" stroke="#000000" stroke-width="1" fill="none"></path></g><g transform="translate(222.68424021786598 315.2181421172258) rotate(0 37.99999999999994 0.7897752514188028)"><path d="M52.19 -6.2 C60.53 -3, 66.17 -0.68, 75.4 3.1 M52.19 -6.2 C62.2 -3.59, 69.49 0.7, 75.4 3.1" stroke="#000000" stroke-width="1" fill="none"></path></g></g><mask></mask><g stroke-linecap="round"><g transform="translate(120.69274003499214 249.69995307922363) rotate(0 84.38697472374056 -59.442110953659494)"><path d="M0.97 -0.88 C29.06 -20.65, 141.76 -99.85, 169.6 -119.38 M0.02 1.27 C27.93 -18.27, 140.67 -97.89, 169.09 -118.1" stroke="#000000" stroke-width="1" fill="none"></path></g><g transform="translate(120.69274003499214 249.69995307922363) rotate(0 84.38697472374056 -59.442110953659494)"><path d="M154.86 -97.54 C159.06 -104.27, 165.25 -114.87, 169.09 -118.1 M154.86 -97.54 C159.83 -105.78, 165.61 -112.21, 169.09 -118.1" stroke="#000000" stroke-width="1" fill="none"></path></g><g transform="translate(120.69274003499214 249.69995307922363) rotate(0 84.38697472374056 -59.442110953659494)"><path d="M144.98 -111.5 C152.94 -112.88, 162.97 -118.04, 169.09 -118.1 M144.98 -111.5 C153.63 -114.63, 163.05 -115.92, 169.09 -118.1" stroke="#000000" stroke-width="1" fill="none"></path></g></g><mask></mask><g stroke-linecap="round" transform="translate(183.67068528181176 442.27339031494967) rotate(0 64 42.5)"><path d="M3.19 8.07 C3.19 8.07, 3.19 8.07, 3.19 8.07 M3.19 8.07 C3.19 8.07, 3.19 8.07, 3.19 8.07 M0.96 16.73 C6.02 10.94, 10.64 6.92, 13.42 2.39 M0.96 16.73 C2.9 14.46, 6.34 11.19, 13.42 2.39 M0.7 23.13 C6.76 15.2, 11.71 10.34, 20.38 0.49 M0.7 23.13 C6.23 17.18, 10.83 11.53, 20.38 0.49 M1.09 28.77 C8.17 21.33, 16.96 10.58, 26.02 0.1 M1.09 28.77 C8.17 21.24, 15.08 12.74, 26.02 0.1 M0.83 35.17 C9.9 23.2, 17.85 14.51, 31.01 0.46 M0.83 35.17 C9.3 25.1, 18.64 15.22, 31.01 0.46 M1.22 40.81 C11.31 29.94, 20.25 20.34, 36.65 0.06 M1.22 40.81 C15.62 25.72, 29.04 10.03, 36.65 0.06 M0.96 47.21 C14.08 35.48, 26.11 21.84, 41.64 0.42 M0.96 47.21 C13.69 33.46, 26.41 18.24, 41.64 0.42 M0.7 53.61 C19.56 31.18, 37.66 12.73, 46.63 0.78 M0.7 53.61 C18.21 35.33, 33.9 14.65, 46.63 0.78 M1.1 59.25 C16.78 43.54, 29.83 28.57, 52.27 0.39 M1.1 59.25 C13.7 44.26, 26.46 30.79, 52.27 0.39 M0.83 65.65 C19.86 40.84, 38.93 19.52, 57.26 0.75 M0.83 65.65 C16.82 47.06, 31.31 30.55, 57.26 0.75 M1.23 71.29 C22.95 45.69, 44.25 22.13, 62.9 0.35 M1.23 71.29 C16.8 53.5, 33.54 34.31, 62.9 0.35 M2.94 75.43 C16.65 58.45, 27.52 41.81, 67.89 0.71 M2.94 75.43 C21.7 52.87, 42.53 31.07, 67.89 0.71 M5.3 78.81 C21.14 60.21, 38.37 39.88, 73.53 0.32 M5.3 78.81 C26.37 54.82, 45.89 33.71, 73.53 0.32 M8.32 81.43 C29.21 59.01, 50.18 32.4, 78.52 0.68 M8.32 81.43 C29.44 57.56, 50.17 31.76, 78.52 0.68 M11.99 83.3 C38.69 52.95, 62.95 24.47, 84.16 0.28 M11.99 83.3 C32.3 57.44, 54.34 33.54, 84.16 0.28 M16.32 84.42 C33.22 67.64, 47.38 48.14, 89.15 0.64 M16.32 84.42 C36.07 61.01, 55.73 39.15, 89.15 0.64 M20.65 85.53 C42.33 59.42, 65.21 35.66, 94.79 0.25 M20.65 85.53 C35.95 67.87, 51.12 49.85, 94.79 0.25 M25.64 85.89 C53.8 51.9, 81.81 18.76, 99.78 0.61 M25.64 85.89 C43.93 63.33, 63.45 42.43, 99.78 0.61 M31.28 85.5 C61.84 52.56, 90.29 15.82, 105.42 0.21 M31.28 85.5 C58.34 55.04, 86.76 22.05, 105.42 0.21 M36.27 85.86 C60.13 60.19, 81.17 32.26, 110.41 0.57 M36.27 85.86 C51.95 68.11, 67.54 50.07, 110.41 0.57 M41.91 85.46 C68.53 57.42, 95.88 27.52, 114.74 1.69 M41.91 85.46 C66.04 58.16, 90.94 31.12, 114.74 1.69 M46.9 85.82 C69.16 56.96, 93.44 30.74, 119.07 2.8 M46.9 85.82 C63.23 67.87, 78.29 50.47, 119.07 2.8 M52.54 85.43 C65.8 68.04, 80.08 53.98, 122.09 5.43 M52.54 85.43 C67.57 69.35, 80.8 52.77, 122.09 5.43 M57.53 85.79 C75.02 67.33, 89.98 48.77, 125.11 8.05 M57.53 85.79 C73.74 69.08, 88.17 51.88, 125.11 8.05 M63.17 85.39 C86.17 59.46, 111.52 30.54, 126.81 12.19 M63.17 85.39 C84.17 62.58, 103.47 37.44, 126.81 12.19 M68.16 85.75 C86.95 65.09, 102.96 43.16, 127.86 17.07 M68.16 85.75 C83.62 66.55, 101.23 48.49, 127.86 17.07 M73.8 85.36 C93.72 61.26, 113.64 36.65, 128.26 22.72 M73.8 85.36 C86.13 72.48, 98 57.51, 128.26 22.72 M78.79 85.72 C88.42 73.98, 101.34 63.37, 128 29.11 M78.79 85.72 C95.06 65.97, 111.59 48.38, 128 29.11 M84.44 85.32 C100.75 65.51, 116.5 49.75, 128.39 34.76 M84.44 85.32 C93.33 72.93, 102.79 62.92, 128.39 34.76 M89.42 85.68 C103.6 71.37, 114.23 55.51, 128.13 41.16 M89.42 85.68 C98.51 76.06, 107.17 65.37, 128.13 41.16 M95.07 85.29 C108.09 73.24, 119.38 56.37, 128.52 46.8 M95.07 85.29 C103.49 75.85, 112.51 67.18, 128.52 46.8 M100.05 85.65 C109.28 77.47, 116.57 68.73, 128.26 53.2 M100.05 85.65 C110.12 75.9, 118.44 63.81, 128.26 53.2 M105.7 85.25 C113.21 73.31, 124.13 65.56, 128.66 58.84 M105.7 85.25 C110.32 80.41, 115.66 74.81, 128.66 58.84 M111.99 84.11 C115.77 78.99, 122.12 73.37, 127.74 65.99 M111.99 84.11 C116.5 79.26, 119.9 75.26, 127.74 65.99 M118.95 82.2 C119.74 80.69, 122.51 79.6, 125.51 74.65 M118.95 82.2 C120.78 80.7, 121.92 78.99, 125.51 74.65" stroke="#40c057" stroke-width="0.5" fill="none"></path><path d="M21.25 0 C46.88 -1.32, 70.97 -0.12, 106.75 0 M21.25 0 C48.46 0.69, 77.73 1.04, 106.75 0 M106.75 0 C121.23 0.02, 127.14 7.44, 128 21.25 M106.75 0 C121.53 0.61, 126.95 7.9, 128 21.25 M128 21.25 C130.04 36.6, 128.9 49.5, 128 63.75 M128 21.25 C127.85 33.27, 127.59 43.15, 128 63.75 M128 63.75 C126.35 77.82, 121.77 83.39, 106.75 85 M128 63.75 C128.14 77.94, 119.29 86.08, 106.75 85 M106.75 85 C85.36 85.43, 63.22 86.52, 21.25 85 M106.75 85 C78.19 85.19, 49.65 83.88, 21.25 85 M21.25 85 C6.97 85.25, -0.09 77.2, 0 63.75 M21.25 85 C7.85 83.79, -0.5 75.85, 0 63.75 M0 63.75 C1.44 49.63, -0.29 39.72, 0 21.25 M0 63.75 C0.08 46.68, -0.07 31.82, 0 21.25 M0 21.25 C-1.44 7.81, 8.45 0.62, 21.25 0 M0 21.25 C1.2 7.52, 8.32 0.84, 21.25 0" stroke="transparent" stroke-width="1" fill="none"></path></g><g stroke-linecap="round" transform="translate(180.0331866460549 433.27339031494967) rotate(0 64.66803997576 17.744279261641452)"><path d="M6.36 10.83 C6.36 10.83, 6.36 10.83, 6.36 10.83 M6.36 10.83 C6.36 10.83, 6.36 10.83, 6.36 10.83 M2.16 21.76 C6.97 17.89, 9.97 13.36, 13.97 8.17 M2.16 21.76 C4.96 16.92, 8.56 12.81, 13.97 8.17 M5.84 23.63 C8.97 17.59, 14.29 15.4, 20.93 6.27 M5.84 23.63 C10.59 18.14, 16.27 11.06, 20.93 6.27 M9.51 25.5 C16.68 19.27, 21.76 13.92, 27.88 4.36 M9.51 25.5 C13.82 19.36, 19.62 14.47, 27.88 4.36 M12.53 28.12 C18 21.74, 24.13 13.02, 33.53 3.97 M12.53 28.12 C20.65 19.96, 27.22 9.88, 33.53 3.97 M16.21 29.99 C24.63 22.26, 31.04 10.93, 39.83 2.82 M16.21 29.99 C21.08 22.75, 27.68 16.81, 39.83 2.82 M20.54 31.1 C25.56 25.25, 31.1 18.37, 45.47 2.43 M20.54 31.1 C26.01 24.96, 32.05 18.19, 45.47 2.43 M25.53 31.46 C33.75 23.96, 40.92 14.51, 51.77 1.28 M25.53 31.46 C32.18 25.41, 37.78 18.5, 51.77 1.28 M29.86 32.58 C37.57 25.61, 42.24 19.42, 57.41 0.88 M29.86 32.58 C38.48 22.14, 49.15 10.63, 57.41 0.88 M34.84 32.94 C44.85 22.98, 49.97 13.08, 63.71 -0.27 M34.84 32.94 C40.77 26.39, 47.02 18.64, 63.71 -0.27 M39.18 34.05 C44.56 26.67, 52.67 20.5, 68.7 0.09 M39.18 34.05 C47.67 22.52, 57.97 11.56, 68.7 0.09 M43.51 35.17 C50.04 24.51, 60.38 18.86, 73.68 0.45 M43.51 35.17 C53.77 22.81, 65.09 10.75, 73.68 0.45 M48.49 35.53 C59.02 26.29, 66.54 11.63, 78.67 0.81 M48.49 35.53 C59 21.53, 69.69 9.59, 78.67 0.81 M54.14 35.13 C61.81 26.46, 71.7 14.68, 83 1.93 M54.14 35.13 C62.25 26.04, 69.49 17.24, 83 1.93 M59.78 34.74 C65.55 27.05, 76.59 17.02, 87.99 2.29 M59.78 34.74 C68.91 25.11, 75.95 16.14, 87.99 2.29 M64.77 35.1 C77.37 20.37, 87 10.71, 92.98 2.65 M64.77 35.1 C73.33 24.34, 82.85 15, 92.98 2.65 M70.41 34.71 C78.29 24.31, 88.95 11.14, 97.96 3.01 M70.41 34.71 C78.7 25.48, 85.67 16.46, 97.96 3.01 M75.4 35.07 C85.31 23.97, 97.45 11.38, 102.29 4.12 M75.4 35.07 C82.79 26.31, 91.34 16.81, 102.29 4.12 M81.04 34.67 C91.97 23.49, 101.48 13.68, 106.63 5.24 M81.04 34.67 C89.3 24.2, 98.02 13.79, 106.63 5.24 M86.68 34.28 C93.6 26.09, 103.12 17.58, 110.96 6.35 M86.68 34.28 C94.91 25.25, 101.26 17.24, 110.96 6.35 M92.98 33.13 C103.01 24.65, 109.12 14.69, 115.29 7.47 M92.98 33.13 C99.43 25.4, 104.85 17.7, 115.29 7.47 M99.28 31.98 C107.35 23.11, 115.86 15.01, 118.96 9.34 M99.28 31.98 C104.54 27.74, 108.88 21.85, 118.96 9.34 M104.92 31.58 C108.33 28.26, 113.24 22.71, 123.29 10.45 M104.92 31.58 C109.16 25.52, 114.68 19.1, 123.29 10.45 M111.22 30.43 C115.85 24.43, 122.83 16.26, 126.31 13.08 M111.22 30.43 C115.79 24.11, 122.16 17.83, 126.31 13.08 M121.46 24.76 C123.49 22.83, 124.61 20.23, 128.02 17.21 M121.46 24.76 C123.62 22.32, 125.78 19.36, 128.02 17.21" stroke="#40c057" stroke-width="0.5" fill="none"></path><path d="M65.72 -0.96 C76.86 -1.07, 91.33 1.17, 101.2 3.13 C111.07 5.09, 120.38 7.98, 124.93 10.81 C129.48 13.65, 130.51 16.97, 128.52 20.15 C126.52 23.32, 120.71 27.49, 112.97 29.86 C105.23 32.24, 93.27 33.56, 82.07 34.4 C70.86 35.24, 56.76 35.67, 45.72 34.9 C34.68 34.13, 23.19 32.13, 15.8 29.78 C8.41 27.43, 2.9 24.01, 1.37 20.8 C-0.16 17.59, 1.8 13.41, 6.61 10.54 C11.43 7.67, 19.07 5.38, 30.26 3.56 C41.46 1.75, 64.9 0.21, 73.78 -0.34 C82.65 -0.89, 83.59 0.01, 83.51 0.26 M63.24 0.02 C74.01 0.02, 87.47 1.84, 97.29 3.3 C107.11 4.75, 116.78 5.94, 122.16 8.74 C127.54 11.55, 130.83 16.74, 129.57 20.11 C128.3 23.49, 121.95 26.48, 114.55 28.99 C107.15 31.5, 96.07 34.34, 85.18 35.19 C74.28 36.04, 60.55 34.86, 49.2 34.1 C37.85 33.34, 25.05 33.04, 17.1 30.63 C9.15 28.23, 3.49 22.95, 1.5 19.67 C-0.49 16.39, 0.67 13.8, 5.14 10.94 C9.62 8.08, 18.62 4.47, 28.37 2.51 C38.12 0.56, 57.91 -0.2, 63.65 -0.79 C69.4 -1.37, 62.95 -1.63, 62.86 -0.99" stroke="#000000" stroke-width="1" fill="none"></path></g><g stroke-linecap="round" transform="translate(185.39909054760687 501.2380359029785) rotate(0 64.66803997576 17.744279261641452)"><path d="M1.42 14.49 C1.42 14.49, 1.42 14.49, 1.42 14.49 M1.42 14.49 C1.42 14.49, 1.42 14.49, 1.42 14.49 M2.47 19.37 C5.39 16.45, 8.19 12.24, 11.66 8.81 M2.47 19.37 C5.66 14.7, 9.46 11.64, 11.66 8.81 M3.52 24.26 C8.47 20.34, 13.41 13.94, 20.58 4.64 M3.52 24.26 C9.54 16.83, 14.89 10.66, 20.58 4.64 M7.85 25.38 C13.14 21.37, 14.47 15.7, 26.22 4.25 M7.85 25.38 C13.94 19.1, 18.21 13.47, 26.22 4.25 M11.53 27.25 C18.24 17.86, 28.85 10.83, 32.52 3.1 M11.53 27.25 C17.08 19.45, 24.53 12.94, 32.52 3.1 M15.86 28.36 C22.38 18.89, 30.83 11.06, 38.17 2.7 M15.86 28.36 C22.7 21.06, 27.88 13.38, 38.17 2.7 M19.54 30.23 C25.53 22.5, 29.76 15.94, 43.81 2.31 M19.54 30.23 C28.04 20.74, 37.08 9.45, 43.81 2.31 M23.21 32.1 C33.82 20.42, 41.13 7.5, 50.11 1.16 M23.21 32.1 C32.97 21.41, 40.77 10.93, 50.11 1.16 M27.54 33.22 C35.21 25.24, 45.1 15.05, 55.75 0.76 M27.54 33.22 C38.39 21.47, 48.74 8.89, 55.75 0.76 M32.53 33.58 C41.69 20.56, 51.84 7.65, 60.74 1.12 M32.53 33.58 C43.31 20.8, 52.76 9.71, 60.74 1.12 M37.51 33.94 C46.18 26.19, 53.37 18.47, 66.38 0.73 M37.51 33.94 C45.66 24.47, 53.57 15.81, 66.38 0.73 M42.5 34.3 C53.53 25.38, 61.54 15.29, 71.37 1.09 M42.5 34.3 C52.13 23.99, 59.99 14.72, 71.37 1.09 M46.83 35.41 C54.23 23.37, 65.38 16.86, 76.36 1.45 M46.83 35.41 C55.92 24.29, 66.78 12.12, 76.36 1.45 M51.82 35.77 C58.7 27.17, 64.22 22.33, 81.34 1.81 M51.82 35.77 C58.87 27.4, 65.86 19.63, 81.34 1.81 M56.81 36.13 C70.89 22.14, 80.92 7.77, 86.99 1.41 M56.81 36.13 C64.74 26.59, 74.38 15.9, 86.99 1.41 M61.79 36.49 C70.66 27.25, 80.5 14.45, 91.97 1.77 M61.79 36.49 C72.36 25.27, 82.12 14.95, 91.97 1.77 M67.44 36.1 C74.44 26.22, 81.37 17.92, 96.3 2.89 M67.44 36.1 C77.11 24.04, 88.72 13.25, 96.3 2.89 M73.08 35.7 C84.81 24.22, 92.55 13.22, 100.63 4 M73.08 35.7 C81.1 26.61, 88.26 19.89, 100.63 4 M78.72 35.31 C88.86 26.24, 98.14 12.67, 105.62 4.36 M78.72 35.31 C86.12 25.62, 95.47 17.39, 105.62 4.36 M84.37 34.91 C92.05 28.47, 99.27 17.6, 109.95 5.48 M84.37 34.91 C92.4 25.29, 102.92 13.24, 109.95 5.48 M90.01 34.52 C96.24 26.78, 102.94 17.29, 114.28 6.59 M90.01 34.52 C97.55 24.05, 107.87 14.36, 114.28 6.59 M95.65 34.12 C104.5 25.91, 110.31 15.47, 118.61 7.71 M95.65 34.12 C103.28 25.83, 109.2 16.4, 118.61 7.71 M103.26 31.47 C108.11 26.3, 112.58 20.64, 121.63 10.33 M103.26 31.47 C107.22 25.84, 112.44 20.79, 121.63 10.33 M110.22 29.56 C116.76 21.23, 122.28 15.03, 124.65 12.96 M110.22 29.56 C114.64 24.43, 117.22 21.87, 124.65 12.96 M117.17 27.66 C120.81 22.15, 125.45 18.14, 127.67 15.58 M117.17 27.66 C121.13 22.46, 124.65 18.98, 127.67 15.58" stroke="#40c057" stroke-width="0.5" fill="none"></path><path d="M54.07 0.42 C64.99 -0.17, 79.98 0.39, 90.63 1.53 C101.28 2.67, 111.47 4.6, 117.95 7.25 C124.42 9.91, 129.07 14.26, 129.48 17.45 C129.89 20.64, 126.38 23.67, 120.42 26.4 C114.46 29.14, 104.1 32.26, 93.74 33.86 C83.37 35.47, 69.73 36.28, 58.23 36.03 C46.74 35.78, 33.87 34.4, 24.75 32.35 C15.64 30.3, 7.37 26.76, 3.52 23.73 C-0.33 20.7, -1.1 17.46, 1.67 14.2 C4.44 10.94, 9.83 6.67, 20.13 4.17 C30.44 1.67, 54.97 -0.03, 63.51 -0.79 C72.04 -1.55, 71.47 -0.87, 71.34 -0.37 M38.26 2.12 C47.96 0.49, 63.03 -1.46, 74.81 -1 C86.6 -0.54, 100.21 2.54, 108.94 4.89 C117.67 7.25, 124.17 9.99, 127.19 13.12 C130.21 16.26, 130.43 20.8, 127.07 23.72 C123.72 26.64, 116.14 28.57, 107.05 30.67 C97.96 32.77, 84.22 35.99, 72.53 36.33 C60.84 36.66, 47.46 34.21, 36.92 32.68 C26.38 31.15, 15.47 29.79, 9.3 27.14 C3.14 24.48, -0.44 20.12, -0.05 16.76 C0.35 13.4, 5.17 9.76, 11.67 6.98 C18.18 4.2, 34.33 0.73, 38.99 0.07 C43.65 -0.58, 39.38 2.33, 39.64 3.05" stroke="#000000" stroke-width="1" fill="none"></path></g><g stroke-linecap="round"><g transform="translate(183.18772518145784 517.1936805307691) rotate(0 -1.1829519507761006 -33.285164135551724)"><path d="M-0.42 -0.1 C-1.01 -11.13, -3.22 -54.94, -3.52 -65.82 M1.56 -1.19 C1.32 -12.59, -0.67 -56.56, -1.41 -67.55" stroke="#000000" stroke-width="1" fill="none"></path></g></g><mask></mask><g stroke-linecap="round"><g transform="translate(313.3124397668282 517.4050458969182) rotate(0 -1.5772692677014675 -33.785164135551724)"><path d="M-1.15 0.75 C-1.58 -10.3, -2.68 -55.02, -2.98 -66.4 M0.45 0.1 C-0.09 -11.25, -3.16 -56.85, -3.83 -67.91" stroke="#000000" stroke-width="1" fill="none"></path></g></g><mask></mask><g transform="translate(222.5230321780939 473.27339031494967) rotate(0 25.549999237060547 12.5)"><text x="25.549999237060547" y="0" font-family="Virgil, Segoe UI Emoji" font-size="20px" fill="#000000" text-anchor="middle" style="white-space: pre;" direction="ltr" dominant-baseline="text-before-edge">Redis</text></g><g stroke-linecap="round" transform="translate(192.18420970028774 10) rotate(0 110.00003051757812 57.99999237060547)"><path d="M7.06 7.46 C7.06 7.46, 7.06 7.46, 7.06 7.46 M7.06 7.46 C7.06 7.46, 7.06 7.46, 7.06 7.46 M2.21 19.15 C7.31 14.53, 13.33 8.71, 16.64 2.54 M2.21 19.15 C5.13 15.01, 9.85 10.26, 16.64 2.54 M0.64 27.05 C10.46 15.86, 16.89 7.82, 22.94 1.39 M0.64 27.05 C5.34 21.52, 11.21 15.98, 22.94 1.39 M0.37 33.45 C8.39 26.66, 14.86 20.04, 29.24 0.24 M0.37 33.45 C12.28 21.92, 22.77 8.17, 29.24 0.24 M0.77 39.09 C12.24 24.25, 24.15 10.87, 34.88 -0.15 M0.77 39.09 C6.87 30.73, 15.55 21.85, 34.88 -0.15 M0.51 45.49 C13.17 32.1, 27.17 16.19, 39.87 0.21 M0.51 45.49 C14.62 29.26, 30.14 11.6, 39.87 0.21 M0.9 51.13 C17.34 32.9, 30.53 17.58, 44.86 0.57 M0.9 51.13 C16.16 33.69, 29.92 18.29, 44.86 0.57 M0.64 57.53 C15.66 40.58, 29.36 23.05, 50.5 0.17 M0.64 57.53 C19.13 34.33, 39.28 11.1, 50.5 0.17 M0.38 63.93 C20.94 39.61, 41.33 18.81, 55.49 0.53 M0.38 63.93 C20.89 39.5, 40.47 15.38, 55.49 0.53 M0.77 69.57 C14.55 51.83, 28.36 34.74, 61.13 0.14 M0.77 69.57 C15.26 51.94, 29.3 35.75, 61.13 0.14 M0.51 75.97 C22.11 50.14, 43.34 24.95, 66.12 0.5 M0.51 75.97 C15.17 59.73, 28.72 43.04, 66.12 0.5 M0.91 81.61 C27 51.52, 54.92 16.97, 71.76 0.11 M0.91 81.61 C26.55 49.94, 54.37 20.99, 71.76 0.11 M0.65 88.01 C18.94 69.23, 36.66 46.54, 76.75 0.47 M0.65 88.01 C26.6 60.16, 51.58 31.59, 76.75 0.47 M1.04 93.65 C23.51 66.73, 49.45 38.68, 82.39 0.07 M1.04 93.65 C23.61 66.13, 46.8 39.88, 82.39 0.07 M2.09 98.54 C32.63 60.16, 63.45 25.86, 87.38 0.43 M2.09 98.54 C28.69 67.76, 54.11 38.65, 87.38 0.43 M3.8 102.68 C32.67 66.15, 62.92 33.87, 93.02 0.04 M3.8 102.68 C34.67 66.39, 66.31 31.18, 93.02 0.04 M6.16 106.06 C34.46 71.65, 66.4 36.61, 98.01 0.4 M6.16 106.06 C36.76 70.84, 67.39 37.26, 98.01 0.4 M8.52 109.43 C32.57 79.31, 61.13 46.68, 103.65 0 M8.52 109.43 C44.31 66.77, 80.14 26.7, 103.65 0 M11.54 112.06 C30.57 90.38, 51.28 64.43, 108.64 0.36 M11.54 112.06 C40.25 79.39, 69.19 44.43, 108.64 0.36 M15.87 113.17 C41.88 82.29, 70.17 51.07, 114.28 -0.03 M15.87 113.17 C39.64 86.51, 63.21 60.24, 114.28 -0.03 M19.55 115.04 C59.89 70.89, 98.58 24.12, 119.27 0.33 M19.55 115.04 C49.74 80.52, 80.43 46.25, 119.27 0.33 M23.88 116.16 C57 79.24, 86.55 42.99, 124.91 -0.07 M23.88 116.16 C49.64 88.33, 75.1 57.38, 124.91 -0.07 M28.87 116.52 C67.5 71.6, 105.15 29.35, 129.9 0.29 M28.87 116.52 C61.96 76.75, 98.14 36.8, 129.9 0.29 M34.51 116.12 C65.09 81.16, 97.35 41.73, 135.54 -0.1 M34.51 116.12 C74.29 70.36, 113.39 25.23, 135.54 -0.1 M39.5 116.48 C73.86 75.75, 108.77 38.87, 140.53 0.26 M39.5 116.48 C61.98 91.53, 83.07 67.48, 140.53 0.26 M45.14 116.09 C71.9 86.15, 95.22 54.55, 146.17 -0.14 M45.14 116.09 C73.29 83.15, 101.63 50.36, 146.17 -0.14 M50.13 116.45 C83.43 78.61, 120.07 40.02, 151.16 0.22 M50.13 116.45 C73.44 90.1, 95.85 63.72, 151.16 0.22 M55.77 116.05 C84.07 82.48, 114.69 47.07, 156.15 0.58 M55.77 116.05 C77.5 92.14, 96.73 68.14, 156.15 0.58 M60.76 116.41 C98.11 72.42, 138.18 27.7, 161.79 0.19 M60.76 116.41 C87.22 85.56, 115.8 54.26, 161.79 0.19 M66.4 116.02 C105.84 72.36, 141.88 27.84, 166.78 0.55 M66.4 116.02 C97.99 80.46, 128.31 45.34, 166.78 0.55 M71.39 116.38 C100.88 81.5, 134.89 46.84, 172.42 0.16 M71.39 116.38 C108.84 74.24, 147.36 30.24, 172.42 0.16 M77.03 115.99 C101.59 86.99, 124.17 60.42, 177.41 0.52 M77.03 115.99 C110.88 76.85, 146.77 35.95, 177.41 0.52 M82.02 116.35 C110.11 79.5, 141.37 47.23, 183.05 0.12 M82.02 116.35 C116.06 76.1, 151.24 36.12, 183.05 0.12 M87.66 115.95 C109.99 89.42, 129.36 65.08, 188.04 0.48 M87.66 115.95 C128.47 71.61, 167.27 27.05, 188.04 0.48 M92.65 116.31 C118.33 87.34, 142.33 59.15, 193.68 0.09 M92.65 116.31 C122.5 81.16, 152.69 46.38, 193.68 0.09 M98.29 115.92 C124.39 84.41, 153.23 52.56, 198.01 1.2 M98.29 115.92 C129.24 81.23, 159.18 44.12, 198.01 1.2 M103.28 116.28 C132.65 86.05, 156.51 53.11, 202.34 2.32 M103.28 116.28 C138.49 76.6, 171.29 35.91, 202.34 2.32 M108.92 115.88 C139.24 78.25, 174.25 41.66, 206.67 3.43 M108.92 115.88 C133.77 85.82, 160.54 55.93, 206.67 3.43 M113.91 116.24 C138.31 86.68, 165.09 57.77, 210.35 5.3 M113.91 116.24 C146.52 77.92, 178.02 42.19, 210.35 5.3 M119.55 115.85 C148.03 82.41, 179.65 46.67, 212.71 8.68 M119.55 115.85 C143.95 89.79, 166.64 61.73, 212.71 8.68 M124.54 116.21 C158.82 76.24, 193.54 39.56, 215.73 11.3 M124.54 116.21 C147.78 90.35, 170.52 62.25, 215.73 11.3 M130.18 115.81 C165.52 79, 195.53 39.92, 217.44 15.44 M130.18 115.81 C159.46 84.72, 186.7 51.18, 217.44 15.44 M135.17 116.17 C154.37 93.74, 172.44 71.29, 219.14 19.57 M135.17 116.17 C156.66 89.57, 179.17 65.82, 219.14 19.57 M140.15 116.53 C159.59 96.72, 175.25 75.67, 220.19 24.46 M140.15 116.53 C168.96 81.97, 199.92 46.72, 220.19 24.46 M145.8 116.14 C163.06 97.72, 179.61 78.49, 220.59 30.1 M145.8 116.14 C166.93 92.91, 187.12 70.46, 220.59 30.1 M150.78 116.5 C178.61 84.36, 203.65 55.43, 220.33 36.5 M150.78 116.5 C175.45 85.15, 202.56 55.52, 220.33 36.5 M156.43 116.1 C180.29 88.84, 204.29 59.46, 220.72 42.14 M156.43 116.1 C177.14 91.22, 200.37 65.21, 220.72 42.14 M161.41 116.46 C183.34 91.11, 209.19 61.77, 220.46 48.54 M161.41 116.46 C180.04 92.74, 199.04 70.46, 220.46 48.54 M167.06 116.07 C180.86 100.97, 191.41 85.88, 220.2 54.94 M167.06 116.07 C181.42 99.95, 195.77 82.82, 220.2 54.94 M172.04 116.43 C189.69 96.45, 205.33 78.5, 220.59 60.58 M172.04 116.43 C186.47 99.8, 202.51 82.78, 220.59 60.58 M177.69 116.04 C189.86 101.8, 200.36 90.33, 220.33 66.98 M177.69 116.04 C186.93 104.25, 197.51 91.88, 220.33 66.98 M182.67 116.4 C197.63 100.67, 210.55 82.02, 220.73 72.62 M182.67 116.4 C191.05 107.69, 199.36 96.57, 220.73 72.62 M188.32 116 C198.72 104.45, 211.35 89.74, 220.46 79.02 M188.32 116 C199.35 102.55, 212.17 89.82, 220.46 79.02 M193.3 116.36 C205.54 102.9, 213.32 93.56, 220.86 84.66 M193.3 116.36 C200.72 108.03, 208.06 101.2, 220.86 84.66 M199.6 115.21 C206.91 107.22, 214.72 96.01, 219.94 91.82 M199.6 115.21 C206.9 106.61, 212.94 99.54, 219.94 91.82 M206.56 113.31 C208.45 110.5, 214.66 106.12, 218.37 99.72 M206.56 113.31 C209.04 110.74, 212.38 107.64, 218.37 99.72" stroke="#fab005" stroke-width="0.5" fill="none"></path><path d="M29 0 C61.54 0.95, 93.46 -1.5, 191 0 M29 0 C86.48 1.01, 142.89 1.46, 191 0 M191 0 C209.06 1.77, 220.11 8.44, 220 29 M191 0 C211.16 0.98, 219.7 11.22, 220 29 M220 29 C217.52 43.05, 219.96 58.07, 220 87 M220 29 C219.8 40.06, 220.19 52.91, 220 87 M220 87 C219.46 106.91, 210.52 117.69, 191 116 M220 87 C218.21 107.67, 211.39 113.72, 191 116 M191 116 C125.37 117.96, 65.4 115.54, 29 116 M191 116 C140.94 115.94, 90.32 115.24, 29 116 M29 116 C10.73 117.78, 1.21 108.04, 0 87 M29 116 C11.81 115.62, 0.09 105.77, 0 87 M0 87 C1.1 66.99, 0.05 45.2, 0 29 M0 87 C-0.19 70.58, -1.01 54.88, 0 29 M0 29 C-0.88 8.48, 9.81 -1.44, 29 0 M0 29 C1.1 10.56, 9.45 1.48, 29 0" stroke="#000000" stroke-width="1" fill="none"></path></g><g transform="translate(268.71426188534633 55.49999237060547) rotate(0 33.46997833251953 12.5)"><text x="33.46997833251953" y="0" font-family="Virgil, Segoe UI Emoji" font-size="20px" fill="#000000" text-anchor="middle" style="white-space: pre;" direction="ltr" dominant-baseline="text-before-edge">GitLab</text></g><g stroke-linecap="round" transform="translate(337.67068528181153 437.2733903149496) rotate(0 64 42.49999999999997)"><path d="M3.19 8.07 C3.19 8.07, 3.19 8.07, 3.19 8.07 M3.19 8.07 C3.19 8.07, 3.19 8.07, 3.19 8.07 M0.96 16.73 C4.28 15.21, 4.78 9.99, 13.42 2.39 M0.96 16.73 C6.35 11.29, 10.81 7.45, 13.42 2.39 M0.7 23.13 C8.56 16.12, 15.92 4.64, 20.38 0.49 M0.7 23.13 C5.88 15.95, 11.32 9.84, 20.38 0.49 M1.09 28.77 C8.32 20.77, 14.72 12.51, 26.02 0.1 M1.09 28.77 C8.36 20.8, 15.67 12.09, 26.02 0.1 M0.83 35.17 C9.94 25.25, 21.25 11.06, 31.01 0.46 M0.83 35.17 C7.77 26.91, 14.69 19.66, 31.01 0.46 M1.22 40.81 C15.4 25.54, 24.31 9.62, 36.65 0.06 M1.22 40.81 C14.11 24.97, 29.64 8.71, 36.65 0.06 M0.96 47.21 C17.3 27.64, 33.57 9.76, 41.64 0.42 M0.96 47.21 C17.39 28.9, 33.07 11.35, 41.64 0.42 M0.7 53.61 C11.28 44.19, 20.69 32.74, 46.63 0.78 M0.7 53.61 C13.41 37.73, 26.37 22.88, 46.63 0.78 M1.1 59.25 C17.73 40.13, 30.18 25.19, 52.27 0.39 M1.1 59.25 C13.25 45.03, 24.42 31.16, 52.27 0.39 M0.83 65.65 C17.3 42.63, 38.88 23.33, 57.26 0.75 M0.83 65.65 C17.6 46.64, 35.05 26.25, 57.26 0.75 M1.23 71.29 C14.86 56.18, 27.39 42.03, 62.9 0.35 M1.23 71.29 C19.99 50.6, 40.43 27.86, 62.9 0.35 M2.94 75.43 C21.99 53.22, 41.32 27.3, 67.89 0.71 M2.94 75.43 C20.87 54.48, 38.16 34.33, 67.89 0.71 M5.3 78.81 C31.93 47.95, 58.11 16.42, 73.53 0.32 M5.3 78.81 C24.4 57.31, 43.74 33.49, 73.53 0.32 M8.32 81.43 C35.86 51.24, 63.18 17.85, 78.52 0.68 M8.32 81.43 C28.69 57.37, 51.96 33.2, 78.52 0.68 M11.99 83.3 C36.05 58.6, 58.13 32.79, 84.16 0.28 M11.99 83.3 C30.95 62.08, 49.54 41.25, 84.16 0.28 M16.32 84.42 C33.38 64.13, 55.16 41.91, 89.15 0.64 M16.32 84.42 C32.74 66.39, 48.55 47.13, 89.15 0.64 M20.65 85.53 C46.39 57.71, 67.76 28.1, 94.79 0.25 M20.65 85.53 C44.19 58.58, 67.69 32.14, 94.79 0.25 M25.64 85.89 C41.97 64.55, 61.16 44.48, 99.78 0.61 M25.64 85.89 C48.25 56.98, 73.96 29.03, 99.78 0.61 M31.28 85.5 C45.27 67.06, 63.67 49.07, 105.42 0.21 M31.28 85.5 C58.05 56.67, 83.24 25.96, 105.42 0.21 M36.27 85.86 C64 54.4, 89.53 25.93, 110.41 0.57 M36.27 85.86 C54.43 66.37, 71.69 45.92, 110.41 0.57 M41.91 85.46 C58.23 67.48, 76.49 44.55, 114.74 1.69 M41.91 85.46 C58.49 66.09, 76 45.55, 114.74 1.69 M46.9 85.82 C62.39 67.3, 80.81 46.7, 119.07 2.8 M46.9 85.82 C64.3 64.13, 83.11 43.36, 119.07 2.8 M52.54 85.43 C70.61 62.03, 88.99 42.41, 122.09 5.43 M52.54 85.43 C70.71 64.73, 89.04 43.67, 122.09 5.43 M57.53 85.79 C84.84 54.77, 112.53 23.54, 125.11 8.05 M57.53 85.79 C83 56.86, 109.47 25.74, 125.11 8.05 M63.17 85.39 C81.07 64.88, 102.39 38.8, 126.81 12.19 M63.17 85.39 C82.63 63.41, 103 39.57, 126.81 12.19 M68.16 85.75 C92 60, 113.02 33.32, 127.86 17.07 M68.16 85.75 C89.27 62.83, 108.45 39.24, 127.86 17.07 M73.8 85.36 C89.24 65.44, 106.07 46.29, 128.26 22.72 M73.8 85.36 C85.82 71.11, 99.14 55.46, 128.26 22.72 M78.79 85.72 C87.98 74.79, 96.9 61.08, 128 29.11 M78.79 85.72 C92.53 69.18, 107.03 53.02, 128 29.11 M84.44 85.32 C100.45 67.77, 118.51 47.37, 128.39 34.76 M84.44 85.32 C97.88 68.84, 113.24 53.55, 128.39 34.76 M89.42 85.68 C102.27 73.28, 113.49 58.05, 128.13 41.16 M89.42 85.68 C102.34 70.88, 116.96 54.93, 128.13 41.16 M95.07 85.29 C102.81 76.9, 107.41 69.95, 128.52 46.8 M95.07 85.29 C103.48 76.74, 111.6 66.45, 128.52 46.8 M100.05 85.65 C107.37 77.06, 113.99 71.08, 128.26 53.2 M100.05 85.65 C108.28 76.18, 117.47 64.72, 128.26 53.2 M105.7 85.25 C115.52 75.11, 121.21 64.21, 128.66 58.84 M105.7 85.25 C111.67 78.54, 117.2 71.98, 128.66 58.84 M111.99 84.11 C117.5 77.87, 124.09 71.17, 127.74 65.99 M111.99 84.11 C115.84 80.2, 120.26 74.39, 127.74 65.99 M118.95 82.2 C121.35 79.96, 123.01 78.5, 125.51 74.65 M118.95 82.2 C121.22 78.87, 123.78 76.05, 125.51 74.65" stroke="#40c057" stroke-width="0.5" fill="none"></path><path d="M21.25 0 C42.69 0.62, 61.22 1.61, 106.75 0 M21.25 0 C52.99 -0.11, 85.55 -0.31, 106.75 0 M106.75 0 C119.25 1.05, 126.07 6.49, 128 21.25 M106.75 0 C118.92 0.8, 126.84 6.8, 128 21.25 M128 21.25 C129.41 37.12, 127.03 52.35, 128 63.75 M128 21.25 C127.81 34.07, 128.11 46.88, 128 63.75 M128 63.75 C127.22 79.64, 120.77 83.83, 106.75 85 M128 63.75 C127.21 77.24, 121.74 83.87, 106.75 85 M106.75 85 C75.33 86.01, 44.49 86.99, 21.25 85 M106.75 85 C88.87 85.92, 68.83 85.57, 21.25 85 M21.25 85 C8.62 85.69, 1.31 79.62, 0 63.75 M21.25 85 C6.81 86.3, -2 75.76, 0 63.75 M0 63.75 C-0.88 48.21, 0.62 31.93, 0 21.25 M0 63.75 C-0.63 53.87, 0.4 44.34, 0 21.25 M0 21.25 C1.4 8.64, 6.28 0.26, 21.25 0 M0 21.25 C-0.61 5.18, 8.11 1.69, 21.25 0" stroke="transparent" stroke-width="1" fill="none"></path></g><g stroke-linecap="round" transform="translate(334.0331866460547 428.2733903149496) rotate(0 64.66803997576 17.744279261641452)"><path d="M4.74 12.07 C4.74 12.07, 4.74 12.07, 4.74 12.07 M4.74 12.07 C4.74 12.07, 4.74 12.07, 4.74 12.07 M1.85 21.49 C5.88 18.97, 7.67 13.88, 12.35 9.41 M1.85 21.49 C4.77 19.14, 6.75 15.8, 12.35 9.41 M5.53 23.36 C7.98 20.98, 13.64 13.17, 20.62 6 M5.53 23.36 C9.7 18.54, 11.97 16.01, 20.62 6 M9.2 25.23 C12.48 22.36, 19.1 17.53, 27.57 4.09 M9.2 25.23 C15.58 18.81, 19.77 12.37, 27.57 4.09 M12.88 27.1 C19.8 16.53, 28.87 7.83, 33.22 3.7 M12.88 27.1 C19.89 18.99, 26.87 9.58, 33.22 3.7 M16.55 28.97 C24.11 21.34, 30.35 12.99, 39.52 2.55 M16.55 28.97 C22.82 22.87, 26.88 16.57, 39.52 2.55 M20.23 30.83 C25.35 23.5, 32.67 19.04, 45.16 2.16 M20.23 30.83 C29.72 18.29, 38.94 8.68, 45.16 2.16 M24.56 31.95 C32.09 25.55, 38.49 16.82, 51.46 1.01 M24.56 31.95 C34.14 20.8, 44.46 9.29, 51.46 1.01 M29.55 32.31 C34.27 26.84, 40.67 16.85, 57.1 0.61 M29.55 32.31 C37.8 23.95, 45.05 14.78, 57.1 0.61 M34.53 32.67 C39.55 23.98, 46.06 18.83, 62.74 0.22 M34.53 32.67 C40.59 23.68, 48.8 16.15, 62.74 0.22 M39.52 33.03 C49.88 19.25, 60.87 9.5, 67.73 0.58 M39.52 33.03 C48.7 22.3, 59.78 10.52, 67.73 0.58 M43.85 34.14 C54.65 23.23, 62.69 11.8, 72.72 0.94 M43.85 34.14 C49.56 27.29, 55.74 20.65, 72.72 0.94 M48.84 34.51 C58.51 27.25, 64.92 16.42, 77.71 1.3 M48.84 34.51 C60.85 20.61, 71.01 8.33, 77.71 1.3 M53.17 35.62 C63.98 22.36, 76.41 10.53, 83.35 0.9 M53.17 35.62 C63.56 23.32, 73.63 11.95, 83.35 0.9 M58.81 35.23 C68.03 25.42, 72.68 19.3, 88.34 1.26 M58.81 35.23 C69.77 23.47, 79.13 11.92, 88.34 1.26 M64.46 34.83 C74.26 25.85, 84.85 13.79, 93.32 1.62 M64.46 34.83 C71.33 27.8, 77.63 19.42, 93.32 1.62 M70.1 34.44 C74.76 27.7, 81.27 20.4, 97.65 2.74 M70.1 34.44 C80.5 24.32, 89.93 11.24, 97.65 2.74 M75.09 34.8 C81.91 26.56, 87.08 19.55, 101.98 3.85 M75.09 34.8 C84.09 23.71, 92.14 14.45, 101.98 3.85 M80.73 34.4 C89 25.46, 98.77 12.73, 106.32 4.97 M80.73 34.4 C90.09 23.46, 100.07 12.79, 106.32 4.97 M86.37 34.01 C93.82 25.09, 102.47 11.75, 110.65 6.08 M86.37 34.01 C91.32 28.59, 96.54 22.26, 110.65 6.08 M92.02 33.61 C99.88 26.41, 104.03 20.46, 114.98 7.2 M92.02 33.61 C99.21 24.8, 108 14.75, 114.98 7.2 M98.97 31.71 C105.07 25.58, 110.47 16.08, 119.31 8.31 M98.97 31.71 C107.42 23.39, 113.46 13.57, 119.31 8.31 M105.27 30.56 C110.84 23.44, 115.04 17.27, 122.33 10.94 M105.27 30.56 C112.53 22.98, 118.9 14.62, 122.33 10.94 M111.57 29.41 C115.9 23.79, 121.42 17.73, 125.35 13.56 M111.57 29.41 C115.4 23.66, 121.11 18.12, 125.35 13.56 M118.52 27.51 C122.72 23.49, 126.63 20.5, 128.37 16.19 M118.52 27.51 C121.05 24.9, 123.56 21.88, 128.37 16.19" stroke="#40c057" stroke-width="0.5" fill="none"></path><path d="M94.45 1.47 C104.58 2.46, 114.92 5.97, 120.69 8.69 C126.46 11.4, 129.54 14.7, 129.06 17.76 C128.59 20.83, 124.64 24.48, 117.86 27.08 C111.08 29.67, 99.24 32.09, 88.39 33.35 C77.54 34.62, 64.18 35.04, 52.76 34.66 C41.35 34.29, 28.56 33.39, 19.91 31.11 C11.26 28.83, 3.44 24.11, 0.87 20.99 C-1.7 17.86, 0.54 15.15, 4.47 12.38 C8.4 9.61, 15.43 6.42, 24.42 4.37 C33.42 2.31, 46.18 0.4, 58.44 0.04 C70.69 -0.32, 91.14 1.67, 97.96 2.2 C104.78 2.74, 99.92 3.01, 99.38 3.23 M91.15 1.18 C101.7 2.25, 113.16 4.62, 119.69 7.45 C126.22 10.28, 130.38 14.86, 130.35 18.18 C130.32 21.5, 125.93 24.68, 119.52 27.37 C113.12 30.07, 102.41 33.22, 91.92 34.34 C81.43 35.45, 68.36 34.57, 56.58 34.06 C44.79 33.55, 30.03 32.95, 21.2 31.27 C12.38 29.58, 6.9 26.93, 3.62 23.96 C0.34 20.99, -1.81 16.63, 1.52 13.45 C4.85 10.26, 14.41 6.82, 23.59 4.83 C32.77 2.83, 45.28 1.85, 56.6 1.46 C67.92 1.06, 85.96 2.62, 91.5 2.47 C97.03 2.32, 90.04 0.43, 89.83 0.54" stroke="#000000" stroke-width="1" fill="none"></path></g><g stroke-linecap="round" transform="translate(339.39909054760665 496.2380359029785) rotate(0 64.66803997576 17.744279261641452)"><path d="M2.77 13.01 C2.77 13.01, 2.77 13.01, 2.77 13.01 M2.77 13.01 C2.77 13.01, 2.77 13.01, 2.77 13.01 M3.17 18.65 C4.34 16.35, 5.79 13.09, 11.7 8.84 M3.17 18.65 C6.1 15.05, 8.45 12.48, 11.7 8.84 M4.22 23.54 C11.32 14.74, 14.89 10.49, 19.96 5.43 M4.22 23.54 C8.96 18.26, 13.61 12.1, 19.96 5.43 M7.89 25.41 C17.05 18.71, 22.39 9.66, 26.26 4.28 M7.89 25.41 C13 18.75, 20.1 12.11, 26.26 4.28 M12.22 26.53 C17.48 19.79, 24.01 16.59, 31.91 3.89 M12.22 26.53 C18.52 18.16, 26.54 9.48, 31.91 3.89 M15.9 28.4 C22.04 20.95, 28.74 10.69, 38.21 2.74 M15.9 28.4 C20.44 22.09, 24.84 16.45, 38.21 2.74 M19.57 30.27 C27.08 24.09, 34.54 16.34, 43.85 2.34 M19.57 30.27 C28.3 20.29, 38.66 9.1, 43.85 2.34 M24.56 30.63 C29.03 26.1, 36.62 16.35, 49.49 1.95 M24.56 30.63 C32.66 21.44, 41.03 10.45, 49.49 1.95 M28.89 31.74 C37.87 18.79, 47.49 10.18, 55.79 0.8 M28.89 31.74 C38.5 20.8, 46.38 11.19, 55.79 0.8 M33.88 32.1 C39.61 25.44, 44.9 20.42, 61.43 0.4 M33.88 32.1 C44.48 20.73, 53.93 10.4, 61.43 0.4 M38.21 33.22 C47.93 23.43, 57.82 14.05, 66.42 0.76 M38.21 33.22 C44.76 26.61, 49.86 19.96, 66.42 0.76 M42.54 34.33 C50.39 24.24, 54.83 16.37, 71.41 1.12 M42.54 34.33 C51.45 24.2, 60.26 12.96, 71.41 1.12 M47.53 34.69 C54.53 26.03, 64.28 18.7, 77.05 0.73 M47.53 34.69 C54.71 25.88, 63.44 17.29, 77.05 0.73 M51.86 35.81 C63.21 24.73, 75.34 11.5, 82.04 1.09 M51.86 35.81 C60.77 25.71, 68.89 15.73, 82.04 1.09 M57.5 35.41 C62.87 28.97, 72.87 17.76, 87.03 1.45 M57.5 35.41 C66.36 24.91, 75.91 13.35, 87.03 1.45 M63.15 35.02 C70.35 28.27, 73.2 23.02, 92.01 1.81 M63.15 35.02 C73.89 22.45, 82.8 9.96, 92.01 1.81 M68.79 34.62 C75.98 25.02, 85.33 17.97, 96.34 2.92 M68.79 34.62 C75.61 25.83, 81.52 18.2, 96.34 2.92 M73.78 34.98 C80.01 26.21, 90.72 18.09, 100.67 4.04 M73.78 34.98 C83.51 23.62, 94.45 11.38, 100.67 4.04 M79.42 34.59 C88.82 22.81, 99.26 13.68, 105.01 5.15 M79.42 34.59 C85.85 27.8, 92.45 21.07, 105.01 5.15 M85.06 34.19 C88.67 26.35, 93.85 21.5, 109.99 5.51 M85.06 34.19 C89.49 28.72, 95.01 22.37, 109.99 5.51 M90.05 34.55 C98.4 25.48, 108.37 12.29, 114.32 6.63 M90.05 34.55 C99.68 23.09, 108.96 12.05, 114.32 6.63 M97 32.65 C104.09 21.91, 114.77 12.83, 118.65 7.74 M97 32.65 C102.19 24.76, 109.42 17.44, 118.65 7.74 M103.96 30.74 C107.18 24.79, 114.29 19.3, 122.33 9.61 M103.96 30.74 C108.46 24.93, 113.68 20.57, 122.33 9.61 M110.26 29.6 C114.12 24.87, 118.35 21.59, 124.69 12.99 M110.26 29.6 C114.58 24.52, 119.42 19.8, 124.69 12.99 M117.87 26.94 C121.83 24.64, 123.92 18.74, 127.71 15.62 M117.87 26.94 C120.62 23.87, 123.93 18.83, 127.71 15.62" stroke="#40c057" stroke-width="0.5" fill="none"></path><path d="M93.69 1.7 C103.94 2.78, 114.1 5.25, 120.12 7.88 C126.15 10.5, 130.26 14.24, 129.81 17.43 C129.37 20.62, 124.13 24.31, 117.45 27.01 C110.76 29.72, 100.44 32.19, 89.7 33.64 C78.95 35.09, 64.67 36.37, 52.99 35.73 C41.31 35.08, 27.95 31.97, 19.6 29.78 C11.25 27.58, 5.66 25.41, 2.9 22.56 C0.14 19.71, -0.47 15.81, 3.05 12.69 C6.58 9.58, 14.76 6.01, 24.05 3.88 C33.34 1.75, 44.86 -0.17, 58.81 -0.07 C72.75 0.03, 97.84 3.24, 107.7 4.5 C117.55 5.77, 118.59 7.34, 117.94 7.53 M46.63 0.01 C57.23 -0.96, 72.34 0.07, 83.54 1.08 C94.74 2.09, 106.23 3.63, 113.84 6.05 C121.44 8.46, 127.31 12.6, 129.15 15.55 C131 18.51, 129.95 20.92, 124.91 23.78 C119.88 26.65, 108.75 30.59, 98.94 32.76 C89.14 34.92, 77.76 36.63, 66.08 36.75 C54.41 36.87, 38.7 35.3, 28.88 33.47 C19.05 31.63, 11.7 28.54, 7.15 25.73 C2.6 22.92, 0.22 19.71, 1.59 16.6 C2.96 13.49, 8.18 9.92, 15.38 7.05 C22.58 4.17, 39.4 0.36, 44.79 -0.66 C50.18 -1.68, 47.38 0.54, 47.7 0.94" stroke="#000000" stroke-width="1" fill="none"></path></g><g stroke-linecap="round"><g transform="translate(337.1877251814576 512.1936805307691) rotate(0 -1.1829519507761006 -33.285164135551724)"><path d="M1.12 0.16 C0.43 -11.09, -2.35 -55.4, -2.97 -66.56 M0.24 -0.8 C-0.14 -11.93, 0.04 -54.22, -0.58 -65.02" stroke="#000000" stroke-width="1" fill="none"></path></g></g><mask></mask><g stroke-linecap="round"><g transform="translate(467.3124397668282 512.4050458969184) rotate(0 -1.5772692677014675 -33.785164135551724)"><path d="M-0.6 0.01 C-1.35 -11.32, -2.79 -56.65, -3.38 -67.81 M1.28 -1.03 C0.25 -12.19, -3.94 -55.07, -4.45 -66.39" stroke="#000000" stroke-width="1" fill="none"></path></g></g><mask></mask><g transform="translate(344.9396963016288 468.27339031494967) rotate(0 57.13333511352539 12.5)"><text x="57.13333511352539" y="0" font-family="Virgil, Segoe UI Emoji" font-size="20px" fill="#000000" text-anchor="middle" style="white-space: pre;" direction="ltr" dominant-baseline="text-before-edge">PostgreSQL</text></g><g stroke-linecap="round"><g transform="translate(410.02861945607003 252.62793015036056) rotate(0 -48.12699412587034 -61.942110953659494)"><path d="M0.52 -1.06 C-15.63 -21.83, -80.71 -103.15, -96.99 -123.76 M-0.67 0.99 C-16.41 -19.63, -78.99 -101.34, -94.67 -122.15" stroke="#000000" stroke-width="1" fill="none"></path></g><g transform="translate(410.02861945607003 252.62793015036056) rotate(0 -48.12699412587034 -61.942110953659494)"><path d="M-73.64 -108.63 C-81.57 -113.67, -85.65 -117.85, -94.67 -122.15 M-73.64 -108.63 C-78.95 -112.46, -82.31 -115.88, -94.67 -122.15" stroke="#000000" stroke-width="1" fill="none"></path></g><g transform="translate(410.02861945607003 252.62793015036056) rotate(0 -48.12699412587034 -61.942110953659494)"><path d="M-87.25 -98.28 C-91.33 -106.36, -91.48 -113.53, -94.67 -122.15 M-87.25 -98.28 C-89.45 -104.4, -89.7 -110.19, -94.67 -122.15" stroke="#000000" stroke-width="1" fill="none"></path></g></g><mask></mask><g stroke-linecap="round"><g transform="translate(407.1297872378848 375.69996833801275) rotate(0 -0.15678434012454545 27.263866931084266)"><path d="M-1.19 -0.37 C-1.57 8.79, -1.3 46.05, -1.24 55.08 M0.38 -1.61 C0.28 7.18, 1.37 43.85, 0.98 53.25" stroke="#000000" stroke-width="1" fill="none"></path></g><g transform="translate(407.1297872378848 375.69996833801275) rotate(0 -0.15678434012454545 27.263866931084266)"><path d="M-7.53 29.74 C-4.85 37.32, -0.04 46.98, 0.98 53.25 M-7.53 29.74 C-6.23 36.34, -3.1 41.81, 0.98 53.25" stroke="#000000" stroke-width="1" fill="none"></path></g><g transform="translate(407.1297872378848 375.69996833801275) rotate(0 -0.15678434012454545 27.263866931084266)"><path d="M9.57 29.77 C5.67 37.17, 3.9 46.82, 0.98 53.25 M9.57 29.77 C6.76 36.25, 5.77 41.71, 0.98 53.25" stroke="#000000" stroke-width="1" fill="none"></path></g></g><mask></mask><g stroke-linecap="round"><g transform="translate(318.5434376004596 598.3326830336682) rotate(0 -26.696116404426107 -29.41330531366492)"><path d="M-0.75 -0.96 C-9.42 -10.85, -43.45 -50.07, -52.22 -59.83 M1.06 1.15 C-7.65 -8.57, -43.35 -48.86, -52.56 -58.82" stroke="#000000" stroke-width="1" fill="none"></path></g><g transform="translate(318.5434376004596 598.3326830336682) rotate(0 -26.696116404426107 -29.41330531366492)"><path d="M-30.47 -47.11 C-38.29 -48.63, -44.64 -53.93, -52.56 -58.82 M-30.47 -47.11 C-35.12 -49.8, -40.89 -51.9, -52.56 -58.82" stroke="#000000" stroke-width="1" fill="none"></path></g><g transform="translate(318.5434376004596 598.3326830336682) rotate(0 -26.696116404426107 -29.41330531366492)"><path d="M-43.17 -35.65 C-47.33 -40.35, -50.08 -48.91, -52.56 -58.82 M-43.17 -35.65 C-44.77 -41.13, -47.51 -45.97, -52.56 -58.82" stroke="#000000" stroke-width="1" fill="none"></path></g></g><mask></mask><g stroke-linecap="round"><g transform="translate(320.0544619203022 370.2738438945129) rotate(0 -27.299119060705664 34.15134240762126)"><path d="M0.99 -0.64 C-8.14 10.89, -44.37 57.36, -53.71 68.96 M0.06 1.64 C-9.26 12.85, -44.84 56.29, -54.19 67.19" stroke="#000000" stroke-width="1" fill="none"></path></g><g transform="translate(320.0544619203022 370.2738438945129) rotate(0 -27.299119060705664 34.15134240762126)"><path d="M-45.68 43.68 C-50.13 54.45, -51.31 61.4, -54.19 67.19 M-45.68 43.68 C-48.74 52.12, -51.88 60.23, -54.19 67.19" stroke="#000000" stroke-width="1" fill="none"></path></g><g transform="translate(320.0544619203022 370.2738438945129) rotate(0 -27.299119060705664 34.15134240762126)"><path d="M-32.56 54.65 C-42.14 61.22, -48.45 63.88, -54.19 67.19 M-32.56 54.65 C-40.21 59.3, -48.03 63.5, -54.19 67.19" stroke="#000000" stroke-width="1" fill="none"></path></g></g><mask></mask><g stroke-linecap="round"><g transform="translate(411.63464496086397 600.3326830336682) rotate(0 0.9383864542901961 -32.77431834364427)"><path d="M-0.64 0.89 C-0.47 -9.72, 1.38 -53.84, 1.93 -64.8 M1.23 0.31 C1.16 -10.55, 0.84 -55.33, 1.01 -66.53" stroke="#000000" stroke-width="1" fill="none"></path></g><g transform="translate(411.63464496086397 600.3326830336682) rotate(0 0.9383864542901961 -32.77431834364427)"><path d="M9.5 -43.02 C7.98 -51.9, 4.52 -59.65, 1.01 -66.53 M9.5 -43.02 C7.07 -52.11, 2.98 -60.23, 1.01 -66.53" stroke="#000000" stroke-width="1" fill="none"></path></g><g transform="translate(411.63464496086397 600.3326830336682) rotate(0 0.9383864542901961 -32.77431834364427)"><path d="M-7.6 -43.06 C-2.63 -51.83, 0.39 -59.57, 1.01 -66.53 M-7.6 -43.06 C-3.98 -51.97, -2.02 -60.08, 1.01 -66.53" stroke="#000000" stroke-width="1" fill="none"></path></g></g><mask></mask><g stroke-linecap="round" transform="translate(517.8786268181539 436.1366951574749) rotate(0 64 42.49999999999997)"><path d="M3.19 8.07 C3.19 8.07, 3.19 8.07, 3.19 8.07 M3.19 8.07 C3.19 8.07, 3.19 8.07, 3.19 8.07 M0.96 16.73 C7.26 11.62, 11.56 7.58, 13.42 2.39 M0.96 16.73 C3.06 12.8, 5.71 10.61, 13.42 2.39 M0.7 23.13 C5.81 17.58, 14.63 7.57, 20.38 0.49 M0.7 23.13 C5.26 18.31, 8.96 14.33, 20.38 0.49 M1.09 28.77 C9.4 21.11, 18.44 9.2, 26.02 0.1 M1.09 28.77 C7.13 21.67, 15 14.15, 26.02 0.1 M0.83 35.17 C5.83 25.63, 15.43 18.38, 31.01 0.46 M0.83 35.17 C10.51 22.88, 20.76 10.86, 31.01 0.46 M1.22 40.81 C16.13 24.67, 28.39 7.1, 36.65 0.06 M1.22 40.81 C10.37 30.53, 19.92 19.66, 36.65 0.06 M0.96 47.21 C14.49 31.43, 27.68 19.87, 41.64 0.42 M0.96 47.21 C16.23 28.23, 32.24 10.67, 41.64 0.42 M0.7 53.61 C17.64 33.69, 34.88 17.26, 46.63 0.78 M0.7 53.61 C12.01 41.85, 22.63 29.3, 46.63 0.78 M1.1 59.25 C10.76 46.75, 20.87 34.02, 52.27 0.39 M1.1 59.25 C21.51 36.08, 40.07 14.81, 52.27 0.39 M0.83 65.65 C23.15 41.83, 42.61 15.67, 57.26 0.75 M0.83 65.65 C17.09 46.62, 35.15 26.81, 57.26 0.75 M1.23 71.29 C23.56 49.01, 42.36 23.63, 62.9 0.35 M1.23 71.29 C14.12 55.67, 28.39 37.67, 62.9 0.35 M2.94 75.43 C26.96 48.04, 49.87 20.68, 67.89 0.71 M2.94 75.43 C27.64 47.22, 50.43 18.94, 67.89 0.71 M5.3 78.81 C32.89 47.13, 58.26 16.59, 73.53 0.32 M5.3 78.81 C28.04 53.82, 49.62 27, 73.53 0.32 M8.32 81.43 C27.51 59.48, 46.85 34.98, 78.52 0.68 M8.32 81.43 C24.19 63.87, 40.4 45.65, 78.52 0.68 M11.99 83.3 C34.44 59.39, 52.13 35.44, 84.16 0.28 M11.99 83.3 C37.27 51.24, 64.47 21.9, 84.16 0.28 M16.32 84.42 C34.23 62.77, 52.84 40.96, 89.15 0.64 M16.32 84.42 C32.13 65.39, 47.13 48.04, 89.15 0.64 M20.65 85.53 C48.18 54.6, 79.42 20.06, 94.79 0.25 M20.65 85.53 C43.9 58.16, 67.69 33.34, 94.79 0.25 M25.64 85.89 C43.89 67.63, 58.95 49.19, 99.78 0.61 M25.64 85.89 C55.14 54.73, 82.26 21, 99.78 0.61 M31.28 85.5 C54.36 58.48, 76.79 35.1, 105.42 0.21 M31.28 85.5 C47.35 67.91, 64.11 49.08, 105.42 0.21 M36.27 85.86 C55.16 62.97, 74.92 39.23, 110.41 0.57 M36.27 85.86 C62.75 54.8, 89.22 24.3, 110.41 0.57 M41.91 85.46 C61.49 60.88, 83.01 35.8, 114.74 1.69 M41.91 85.46 C57.55 67.9, 70.75 52.77, 114.74 1.69 M46.9 85.82 C70.38 58.89, 93.08 30.76, 119.07 2.8 M46.9 85.82 C64.62 64.1, 83.62 43.92, 119.07 2.8 M52.54 85.43 C65.21 67.15, 80.72 52.75, 122.09 5.43 M52.54 85.43 C73.42 61.36, 94.12 38.38, 122.09 5.43 M57.53 85.79 C77.29 65.67, 94.26 45.09, 125.11 8.05 M57.53 85.79 C81.38 58.22, 107.39 27.62, 125.11 8.05 M63.17 85.39 C76.73 68, 92.01 50.89, 126.81 12.19 M63.17 85.39 C86.23 58, 111.08 30.14, 126.81 12.19 M68.16 85.75 C81.65 69.45, 94.36 55.62, 127.86 17.07 M68.16 85.75 C85.29 65.97, 100.17 47.94, 127.86 17.07 M73.8 85.36 C91.23 67.46, 105.99 47.76, 128.26 22.72 M73.8 85.36 C87.86 69.25, 100.44 54.89, 128.26 22.72 M78.79 85.72 C91.51 74.5, 101.11 61.21, 128 29.11 M78.79 85.72 C95.1 67.62, 111.74 49.2, 128 29.11 M84.44 85.32 C94.13 73.43, 105.78 57.52, 128.39 34.76 M84.44 85.32 C99.75 68.43, 114.49 49.78, 128.39 34.76 M89.42 85.68 C96.66 75.92, 106.46 66.32, 128.13 41.16 M89.42 85.68 C103.59 68.11, 119 52.31, 128.13 41.16 M95.07 85.29 C105.26 72.56, 115.64 59.44, 128.52 46.8 M95.07 85.29 C102.47 75.18, 111.96 66.1, 128.52 46.8 M100.05 85.65 C111.89 70.85, 123.48 59.36, 128.26 53.2 M100.05 85.65 C106.77 77.63, 113.79 70.97, 128.26 53.2 M105.7 85.25 C112.12 80.05, 116.66 71.39, 128.66 58.84 M105.7 85.25 C112.79 75.32, 120.95 66.61, 128.66 58.84 M111.99 84.11 C117.55 79.15, 121.62 72.26, 127.74 65.99 M111.99 84.11 C116.01 81.12, 119.3 77.26, 127.74 65.99 M118.95 82.2 C121.78 79.44, 124.71 77.01, 125.51 74.65 M118.95 82.2 C121.32 79.51, 124.11 76.36, 125.51 74.65" stroke="#40c057" stroke-width="0.5" fill="none"></path><path d="M21.25 0 C51.05 1, 80.25 -0.56, 106.75 0 M21.25 0 C53.5 -0.14, 85.83 -0.95, 106.75 0 M106.75 0 C119.96 -1.82, 128.37 6.12, 128 21.25 M106.75 0 C120.73 0.67, 126.41 8.33, 128 21.25 M128 21.25 C128.41 32.63, 126.58 43.09, 128 63.75 M128 21.25 C128.1 35.98, 127.57 52.83, 128 63.75 M128 63.75 C127.29 78.18, 122.81 83.71, 106.75 85 M128 63.75 C127.72 78.4, 121.84 85.99, 106.75 85 M106.75 85 C90.44 85.49, 70.03 83.07, 21.25 85 M106.75 85 C85.29 86.46, 64.16 86.25, 21.25 85 M21.25 85 C5.53 83.65, -1.61 76.39, 0 63.75 M21.25 85 C5.97 83.23, 0.31 79.17, 0 63.75 M0 63.75 C0.74 50.16, -1.79 36.16, 0 21.25 M0 63.75 C0.12 46.86, 0.55 31.43, 0 21.25 M0 21.25 C-0.36 8.77, 7.09 1.89, 21.25 0 M0 21.25 C2.21 6.38, 7.57 -0.55, 21.25 0" stroke="transparent" stroke-width="1" fill="none"></path></g><g stroke-linecap="round" transform="translate(514.241128182397 427.1366951574749) rotate(0 64.66803997576 17.744279261641452)"><path d="M0.43 13.62 C0.43 13.62, 0.43 13.62, 0.43 13.62 M0.43 13.62 C0.43 13.62, 0.43 13.62, 0.43 13.62 M2.14 17.76 C4.86 14.56, 7.62 11.96, 8.7 10.21 M2.14 17.76 C3.59 15.6, 5.28 13.4, 8.7 10.21 M3.84 21.89 C8.68 20.31, 11.7 16.36, 16.97 6.8 M3.84 21.89 C8.14 17.71, 12.98 11.43, 16.97 6.8 M6.21 25.27 C10.87 16.64, 19.24 11.96, 22.61 6.4 M6.21 25.27 C10.92 21.47, 13.39 15.99, 22.61 6.4 M10.54 26.39 C15.59 20.53, 22.23 14.27, 28.91 5.25 M10.54 26.39 C15.96 21.63, 19.3 14.96, 28.91 5.25 M14.21 28.26 C19.7 24.3, 24.35 16.02, 35.21 4.1 M14.21 28.26 C20.21 21.03, 27.44 12.79, 35.21 4.1 M18.54 29.37 C24.6 20.41, 30.92 16.26, 41.51 2.96 M18.54 29.37 C25.57 20.75, 31.87 12.73, 41.51 2.96 M22.22 31.24 C29.1 24.56, 35.04 14.81, 47.8 1.81 M22.22 31.24 C27.63 24.91, 35.08 18.13, 47.8 1.81 M26.55 32.35 C36.42 18.91, 49.23 8.68, 54.1 0.66 M26.55 32.35 C35.22 22.46, 45.65 10.28, 54.1 0.66 M30.88 33.47 C37.61 27.4, 42.78 17.18, 59.09 1.02 M30.88 33.47 C41.4 20.84, 51.77 9.68, 59.09 1.02 M35.87 33.83 C41.63 24.93, 51.27 17.22, 64.73 0.62 M35.87 33.83 C43.79 24.56, 50.57 15.54, 64.73 0.62 M40.85 34.19 C52.43 23.11, 62.74 10.94, 69.72 0.98 M40.85 34.19 C49.61 24.63, 56.82 14.55, 69.72 0.98 M45.84 34.55 C57.93 21.65, 64.76 11.78, 74.71 1.34 M45.84 34.55 C56.16 22.62, 66.49 10.56, 74.71 1.34 M50.83 34.91 C61.72 20.29, 72.35 11.49, 80.35 0.95 M50.83 34.91 C57.72 25.93, 65.18 18.19, 80.35 0.95 M55.82 35.27 C64.07 26.92, 67.8 19.49, 85.34 1.31 M55.82 35.27 C65.43 24.24, 73.77 13.56, 85.34 1.31 M60.8 35.63 C71.49 25.45, 81.57 11.78, 90.33 1.67 M60.8 35.63 C68.53 25.76, 76.25 17.69, 90.33 1.67 M66.45 35.24 C76.06 21.98, 90.27 8.23, 95.31 2.03 M66.45 35.24 C75.24 24.77, 83.96 13.77, 95.31 2.03 M72.09 34.84 C79.23 24.71, 89.13 15.28, 99.64 3.14 M72.09 34.84 C82.02 25.41, 90.18 14.98, 99.64 3.14 M77.73 34.45 C84.08 27.24, 95.32 14.65, 103.97 4.26 M77.73 34.45 C83.78 27.74, 89.68 21.57, 103.97 4.26 M83.37 34.05 C90.69 26.72, 93.69 20.83, 108.31 5.37 M83.37 34.05 C88.77 27.21, 96.01 19.13, 108.31 5.37 M89.02 33.66 C99.52 25.31, 107.9 12.69, 113.29 5.73 M89.02 33.66 C94.34 26.99, 99.21 21.55, 113.29 5.73 M94.66 33.26 C100.16 25.64, 105.99 19.99, 116.97 7.6 M94.66 33.26 C100.81 25.8, 106.62 17.53, 116.97 7.6 M100.96 32.11 C104.62 24.65, 113.53 19.57, 119.99 10.23 M100.96 32.11 C107.51 24.61, 113.34 16.45, 119.99 10.23 M107.92 30.21 C111.33 24.15, 118.13 18.5, 123 12.85 M107.92 30.21 C112.74 23.86, 119.4 17.38, 123 12.85 M114.87 28.3 C116.02 25.05, 119.57 22.32, 126.68 14.72 M114.87 28.3 C119.04 24.16, 122.94 20.07, 126.68 14.72" stroke="#40c057" stroke-width="0.5" fill="none"></path><path d="M50.99 0.31 C61.55 -0.56, 76.28 -0.22, 87.08 0.8 C97.87 1.82, 108.91 3.83, 115.76 6.43 C122.61 9.03, 127.25 13.15, 128.18 16.41 C129.12 19.66, 126.63 23.26, 121.39 25.94 C116.16 28.62, 106.76 30.96, 96.78 32.5 C86.81 34.04, 73.13 35.14, 61.55 35.18 C49.96 35.21, 36.77 34.56, 27.27 32.71 C17.76 30.87, 8.96 27.29, 4.49 24.11 C0.02 20.92, -1.96 16.58, 0.45 13.6 C2.85 10.63, 9.94 8.52, 18.92 6.24 C27.91 3.96, 47.55 1.04, 54.37 -0.07 C61.18 -1.18, 59.42 -0.68, 59.81 -0.4 M68.77 0.35 C79.74 0.57, 94.61 2.37, 103.76 4.13 C112.92 5.9, 119.88 7.92, 123.71 10.94 C127.54 13.97, 128.79 19.31, 126.75 22.3 C124.72 25.29, 119.66 26.89, 111.49 28.9 C103.33 30.9, 89.37 33.28, 77.79 34.36 C66.2 35.43, 52.74 36.11, 42 35.35 C31.26 34.6, 20.14 32.36, 13.33 29.83 C6.53 27.3, 2.28 23.75, 1.16 20.16 C0.04 16.58, 1.42 11.49, 6.59 8.31 C11.76 5.12, 21.91 2.64, 32.18 1.07 C42.45 -0.5, 62.08 -1.14, 68.23 -1.11 C74.38 -1.09, 68.94 0.71, 69.07 1.21" stroke="#000000" stroke-width="1" fill="none"></path></g><g stroke-linecap="round" transform="translate(519.607032083949 495.10134074550365) rotate(0 62.66803997575994 20.744279261641452)"><path d="M1.47 18.5 C1.47 18.5, 1.47 18.5, 1.47 18.5 M1.47 18.5 C1.47 18.5, 1.47 18.5, 1.47 18.5 M2.52 23.39 C6.95 19.42, 9.02 13.52, 16.29 7.54 M2.52 23.39 C7.08 16.76, 11.92 12.27, 16.29 7.54 M4.22 27.52 C9.69 24.27, 12.15 17.87, 23.25 5.63 M4.22 27.52 C12.38 18.09, 19.83 9.55, 23.25 5.63 M7.24 30.15 C13.3 25.02, 16.38 17.78, 29.55 4.49 M7.24 30.15 C11.62 23.53, 16.62 19.45, 29.55 4.49 M11.57 31.26 C21.26 21.66, 27.91 12.22, 35.85 3.34 M11.57 31.26 C18.36 21.8, 26.06 13.23, 35.85 3.34 M15.25 33.13 C22.04 24.28, 28.18 20.3, 42.15 2.19 M15.25 33.13 C20.85 26.59, 27.17 20.19, 42.15 2.19 M19.58 34.24 C25.67 28.73, 33.07 18.63, 48.45 1.04 M19.58 34.24 C28.76 22.55, 39.12 11.19, 48.45 1.04 M23.25 36.11 C31.41 24.76, 41.6 12.01, 54.09 0.64 M23.25 36.11 C34.53 24.82, 45.4 11.57, 54.09 0.64 M26.93 37.98 C36.33 29.77, 44.36 19.3, 59.08 1 M26.93 37.98 C38.66 24.48, 48.09 12.68, 59.08 1 M31.92 38.34 C42.53 23.33, 55.86 11.11, 64.72 0.61 M31.92 38.34 C40.6 28.6, 50.23 17.07, 64.72 0.61 M36.25 39.46 C49.59 25.84, 62.1 10.12, 69.71 0.97 M36.25 39.46 C47.5 25.38, 61.36 10.88, 69.71 0.97 M41.23 39.82 C50.44 30.51, 57.71 19.45, 75.35 0.57 M41.23 39.82 C53.82 23.95, 67.98 10.05, 75.35 0.57 M46.22 40.18 C51.73 32.6, 62.72 21.34, 80.34 0.93 M46.22 40.18 C58.11 26.29, 72.28 11.17, 80.34 0.93 M51.21 40.54 C63.51 28.29, 75.21 12.49, 84.67 2.05 M51.21 40.54 C61.85 28.55, 72.13 16.78, 84.67 2.05 M55.54 41.65 C64.57 29.34, 76.39 15.93, 89 3.16 M55.54 41.65 C63.83 30.77, 73.88 20.49, 89 3.16 M60.53 42.01 C71.89 28.51, 82.27 14.81, 93.33 4.28 M60.53 42.01 C72.84 28.05, 87.38 13.34, 93.33 4.28 M65.51 42.37 C74.79 32.6, 81.51 23.5, 98.32 4.64 M65.51 42.37 C74.01 31.23, 83.95 22.3, 98.32 4.64 M71.81 41.22 C82.36 29.8, 95.36 13.14, 102.65 5.75 M71.81 41.22 C79.02 32.88, 85.93 24.65, 102.65 5.75 M77.45 40.83 C89.09 28.02, 95.07 20.64, 106.98 6.87 M77.45 40.83 C88.86 28.84, 98.68 14.64, 106.98 6.87 M83.1 40.44 C91.91 28.72, 102.3 16.35, 110.65 8.74 M83.1 40.44 C92.4 29.52, 101.4 19.97, 110.65 8.74 M89.4 39.29 C98.85 28.66, 104.52 20.21, 114.33 10.61 M89.4 39.29 C94.62 32.98, 101.15 26.05, 114.33 10.61 M95.04 38.89 C100.78 32.27, 106.02 27.82, 117.35 13.23 M95.04 38.89 C99.69 31.74, 105.75 26.25, 117.35 13.23 M101.99 36.99 C111.14 28.82, 118.2 21.51, 121.02 15.1 M101.99 36.99 C107.76 29.16, 114.67 21.95, 121.02 15.1 M110.26 33.57 C114.58 28.62, 117.27 28.54, 124.04 17.72 M110.26 33.57 C114.12 29.68, 116.07 25.45, 124.04 17.72 M118.53 30.16 C119.36 29.05, 120.33 28.45, 121.81 26.39 M118.53 30.16 C119.94 28.84, 121.2 26.98, 121.81 26.39" stroke="#40c057" stroke-width="0.5" fill="none"></path><path d="M45.43 0.64 C55.28 -0.71, 69.35 -0.77, 79.93 0.34 C90.52 1.44, 101.55 4.39, 108.92 7.27 C116.3 10.15, 122.31 14.06, 124.17 17.62 C126.03 21.17, 124.56 25.21, 120.09 28.58 C115.62 31.96, 106.76 35.61, 97.34 37.86 C87.92 40.11, 74.92 42.05, 63.55 42.1 C52.18 42.15, 38.88 40.38, 29.12 38.17 C19.35 35.96, 9.6 32.06, 4.95 28.83 C0.31 25.59, -0.3 22.39, 1.25 18.75 C2.8 15.11, 5.64 10.19, 14.25 6.97 C22.87 3.75, 44.72 0.57, 52.92 -0.58 C61.11 -1.73, 63.12 -0.57, 63.42 0.06 M43.41 1.72 C53.09 0.18, 66 -0.84, 76.65 0.12 C87.3 1.08, 99.22 4.86, 107.31 7.46 C115.4 10.06, 123.14 12.29, 125.2 15.7 C127.25 19.12, 124.17 24.11, 119.65 27.95 C115.13 31.79, 107.17 36.24, 98.1 38.72 C89.03 41.21, 76.29 42.7, 65.22 42.86 C54.16 43.01, 41.69 41.97, 31.73 39.66 C21.78 37.36, 10.93 32.75, 5.5 29.04 C0.07 25.33, -2.13 21.15, -0.86 17.41 C0.41 13.67, 5.78 9.18, 13.09 6.59 C20.4 4.01, 37.9 2.73, 43 1.89 C48.1 1.05, 43.38 1.25, 43.69 1.54" stroke="#000000" stroke-width="1" fill="none"></path></g><g stroke-linecap="round"><g transform="translate(517.3956667177999 511.0569853732943) rotate(0 -1.1829519507761006 -33.285164135551724)"><path d="M-0.7 1.19 C-1.03 -9.92, -2.22 -54.41, -2.55 -65.73 M1.14 0.77 C0.68 -10.76, -2.81 -56.37, -3.59 -67.41" stroke="#000000" stroke-width="1" fill="none"></path></g></g><mask></mask><g stroke-linecap="round"><g transform="translate(647.5203813031703 511.2683507394436) rotate(0 -1.5772692677014675 -33.785164135551724)"><path d="M-0.18 0.84 C-0.64 -10.64, -2.84 -56.11, -3.43 -67.7 M-1.74 0.24 C-2.32 -10.54, -4.02 -54.86, -4.52 -66.22" stroke="#000000" stroke-width="1" fill="none"></path></g></g><mask></mask><g transform="translate(555.0476393638501 467.13669515747483) rotate(0 27.233333587646484 12.5)"><text x="27.233333587646484" y="0" font-family="Virgil, Segoe UI Emoji" font-size="20px" fill="#000000" text-anchor="middle" style="white-space: pre;" direction="ltr" dominant-baseline="text-before-edge">MinIO</text></g><g stroke-linecap="round"><g transform="translate(508.2954948185594 365.5245643656371) rotate(0 19.21887091798095 31.508187707935377)"><path d="M-0.95 -1.13 C5.34 9.64, 31.4 53.19, 38.15 63.73 M0.74 0.9 C6.83 11.4, 30.61 51.64, 37.04 61.98" stroke="#000000" stroke-width="1" fill="none"></path></g><g transform="translate(508.2954948185594 365.5245643656371) rotate(0 19.21887091798095 31.508187707935377)"><path d="M17.58 46.3 C22.01 51.14, 31.5 58.62, 37.04 61.98 M17.58 46.3 C21.63 50.56, 27.2 52.68, 37.04 61.98" stroke="#000000" stroke-width="1" fill="none"></path></g><g transform="translate(508.2954948185594 365.5245643656371) rotate(0 19.21887091798095 31.508187707935377)"><path d="M32.21 37.45 C31.75 45.1, 36.41 55.5, 37.04 61.98 M32.21 37.45 C33.05 43.72, 35.35 47.82, 37.04 61.98" stroke="#000000" stroke-width="1" fill="none"></path></g></g><mask></mask><g stroke-linecap="round"><g transform="translate(510.8847260789878 604.2118684256236) rotate(0 26.82844193607184 -32.41326635694145)"><path d="M-0.18 -0.71 C8.82 -11.62, 45.1 -55.11, 54.19 -65.87 M-1.73 1.53 C7.15 -9.23, 44.24 -53.93, 53.53 -64.88" stroke="#000000" stroke-width="1" fill="none"></path></g><g transform="translate(510.8847260789878 604.2118684256236) rotate(0 26.82844193607184 -32.41326635694145)"><path d="M45 -41.38 C46.59 -47.89, 48.73 -54.96, 53.53 -64.88 M45 -41.38 C47.4 -47.02, 49.47 -53.23, 53.53 -64.88" stroke="#000000" stroke-width="1" fill="none"></path></g><g transform="translate(510.8847260789878 604.2118684256236) rotate(0 26.82844193607184 -32.41326635694145)"><path d="M31.89 -52.36 C37.58 -55.39, 43.86 -58.99, 53.53 -64.88 M31.89 -52.36 C37.83 -55.24, 43.35 -58.56, 53.53 -64.88" stroke="#000000" stroke-width="1" fill="none"></path></g></g><mask></mask></svg>