<svg version="1.1" xmlns="http://www.w3.org/2000/svg" viewBox="0 0 1223.1842402178659 838.7265944262615" width="1223.1842402178659" height="838.7265944262615">
  <!-- svg-source:excalidraw -->
  
  <defs>
    <style class="style-fonts">
      @font-face {
        font-family: "Virgil";
        src: url("https://excalidraw.com/Virgil.woff2");
      }
      @font-face {
        font-family: "Cascadia";
        src: url("https://excalidraw.com/Cascadia.woff2");
      }
    </style>
  </defs>
  <rect x="0" y="0" width="1223.1842402178659" height="838.7265944262615" fill="#ffffff"></rect><g stroke-linecap="round" transform="translate(10 484.89998054504395) rotate(0 105.19999694824219 60.00000762939453)"><path d="M7.33 7.7 C7.33 7.7, 7.33 7.7, 7.33 7.7 M7.33 7.7 C7.33 7.7, 7.33 7.7, 7.33 7.7 M7.07 14.09 C10.29 9.31, 12.61 6.07, 17.56 2.02 M7.07 14.09 C9.47 10.8, 12.92 8.42, 17.56 2.02 M2.87 25.02 C6.78 21.09, 10.72 14.11, 23.21 1.62 M2.87 25.02 C10.38 15.83, 19.13 6.34, 23.21 1.62 M2.61 31.42 C8.19 25.89, 14.99 17.03, 29.51 0.47 M2.61 31.42 C9.52 24.2, 13.93 17.54, 29.51 0.47 M3 37.06 C14.08 25.18, 21.22 17.34, 33.18 2.34 M3 37.06 C15.1 23.63, 25.44 11.14, 33.18 2.34 M2.74 43.46 C11.77 32.66, 19.96 24.75, 38.17 2.7 M2.74 43.46 C14.93 28.8, 28.9 14.46, 38.17 2.7 M3.14 49.1 C17.84 32.93, 30.03 19.83, 43.81 2.31 M3.14 49.1 C12.2 37.77, 22.18 27.08, 43.81 2.31 M2.87 55.5 C14.3 43.99, 21.71 34.86, 48.8 2.67 M2.87 55.5 C17.97 37.5, 33.96 21.75, 48.8 2.67 M2.61 61.9 C22.19 39.46, 41.12 16.76, 54.44 2.28 M2.61 61.9 C13.63 48.84, 25.95 34.67, 54.44 2.28 M3.01 67.54 C16.15 52.92, 25.25 39.69, 59.43 2.64 M3.01 67.54 C21.7 45.42, 41.34 22.1, 59.43 2.64 M2.75 73.94 C22.72 51.36, 42.62 27.39, 65.07 2.24 M2.75 73.94 C22.68 50.98, 43.32 28.02, 65.07 2.24 M3.14 79.58 C27.61 51.63, 55.12 19.77, 70.06 2.6 M3.14 79.58 C27.58 52, 51.67 21.96, 70.06 2.6 M2.88 85.98 C19.19 67.99, 33.32 52.47, 75.05 2.96 M2.88 85.98 C18.27 68.54, 32.88 50.96, 75.05 2.96 M2.62 92.38 C24.42 67.75, 44.49 46.22, 80.69 2.57 M2.62 92.38 C27.76 62.01, 53.43 32.33, 80.69 2.57 M2.36 98.77 C25.59 69.87, 47.44 45.63, 85.68 2.93 M2.36 98.77 C24.85 74.32, 48.4 46.76, 85.68 2.93 M4.06 102.91 C22.93 78.04, 44.38 53.58, 91.32 2.53 M4.06 102.91 C27.18 75.47, 52.45 48.07, 91.32 2.53 M4.46 108.55 C32.8 73.33, 61.74 39.93, 96.31 2.89 M4.46 108.55 C37.56 70.1, 71.41 30.11, 96.31 2.89 M7.48 111.18 C35.6 79.07, 66.61 43.13, 101.95 2.5 M7.48 111.18 C28.75 85.59, 50.58 60.84, 101.95 2.5 M9.84 114.55 C43.69 76.46, 76.98 40, 106.94 2.86 M9.84 114.55 C38.45 82.11, 65.57 50.5, 106.94 2.86 M12.86 117.18 C43.54 82.66, 74.65 46.6, 112.58 2.46 M12.86 117.18 C47.5 76.79, 82.16 37.51, 112.58 2.46 M17.19 118.29 C42.83 89.57, 66.49 60.73, 117.57 2.82 M17.19 118.29 C48.08 85.04, 77.25 51.24, 117.57 2.82 M21.52 119.41 C49.72 86.27, 77.72 55.11, 123.21 2.43 M21.52 119.41 C56.87 79.14, 91.17 39.41, 123.21 2.43 M25.2 121.28 C48.27 95.68, 69.01 70.29, 128.2 2.79 M25.2 121.28 C61.49 79.15, 98.71 37.13, 128.2 2.79 M30.84 120.88 C63.06 81.66, 97.94 41.73, 133.84 2.39 M30.84 120.88 C57.33 91.86, 83.51 59.73, 133.84 2.39 M36.48 120.49 C69.79 81.38, 104.67 43.92, 138.83 2.75 M36.48 120.49 C70.57 80.96, 106.89 40.04, 138.83 2.75 M41.47 120.85 C76.42 82.59, 110.59 39.84, 144.47 2.36 M41.47 120.85 C74.85 81.48, 108.38 42.1, 144.47 2.36 M47.11 120.45 C79.45 86.44, 107.69 51.79, 149.46 2.72 M47.11 120.45 C71.18 91.15, 95.59 62.55, 149.46 2.72 M52.1 120.81 C78.55 88.48, 108.16 53.92, 155.1 2.33 M52.1 120.81 C79.46 90.18, 107.51 57, 155.1 2.33 M57.74 120.42 C94.86 78.19, 131.69 37.85, 160.09 2.69 M57.74 120.42 C86.62 86.14, 113.43 53.92, 160.09 2.69 M62.73 120.78 C91.46 89.35, 119.26 53.51, 165.73 2.29 M62.73 120.78 C84.61 94.17, 108.17 68.7, 165.73 2.29 M67.72 121.14 C103.49 79.95, 143.28 36.6, 170.72 2.65 M67.72 121.14 C95.56 90.95, 122.12 59.24, 170.72 2.65 M73.36 120.75 C108.29 76.83, 143.86 39.43, 176.36 2.26 M73.36 120.75 C93.01 98.42, 113.93 72.8, 176.36 2.26 M78.35 121.11 C111.34 86.19, 141.03 50.37, 182 1.86 M78.35 121.11 C99.88 96.14, 123.1 70.84, 182 1.86 M83.99 120.71 C112.04 87.02, 142.2 49.97, 188.3 0.71 M83.99 120.71 C109.1 92.03, 135.74 63.36, 188.3 0.71 M88.98 121.07 C110.09 95.22, 132.88 73.28, 191.98 2.58 M88.98 121.07 C121.71 81.27, 156.84 42.96, 191.98 2.58 M94.62 120.68 C130.26 79.04, 167.17 35.27, 196.31 3.7 M94.62 120.68 C122.17 90.6, 148.84 61.28, 196.31 3.7 M99.61 121.04 C119.35 97.05, 145.06 70.73, 199.98 5.57 M99.61 121.04 C123.57 93.21, 146.94 64.97, 199.98 5.57 M105.25 120.64 C125.14 96.59, 146.12 75.43, 203 8.19 M105.25 120.64 C143.25 77.26, 179.4 34.53, 203 8.19 M110.24 121 C139.46 89.74, 167.08 56.45, 206.02 10.81 M110.24 121 C142.72 84.94, 175.91 46.63, 206.02 10.81 M115.88 120.61 C150.17 81.2, 181.27 43.72, 208.38 14.19 M115.88 120.61 C135.49 98.19, 153.94 75.33, 208.38 14.19 M120.87 120.97 C151.29 85.19, 182.94 49.04, 210.09 18.33 M120.87 120.97 C142.47 96.05, 163.1 72.78, 210.09 18.33 M126.51 120.57 C151.9 93.77, 176.51 63.41, 210.48 23.97 M126.51 120.57 C157.94 83.91, 190.62 46.38, 210.48 23.97 M131.5 120.93 C155.41 94.97, 177.84 68.67, 210.88 29.61 M131.5 120.93 C156.85 91.38, 182.49 60.95, 210.88 29.61 M137.14 120.54 C152.77 103.67, 168.24 83.3, 210.62 36.01 M137.14 120.54 C153.73 101.8, 170.32 84.06, 210.62 36.01 M142.13 120.9 C168.37 92.18, 193.49 60.28, 211.01 41.65 M142.13 120.9 C158.09 102.88, 174.73 83.18, 211.01 41.65 M147.77 120.5 C163.56 103.41, 178.8 82.95, 210.75 48.05 M147.77 120.5 C161.59 104.7, 174.2 90.11, 210.75 48.05 M152.76 120.86 C169.84 103.35, 187.37 84.38, 211.15 53.69 M152.76 120.86 C173.76 97.35, 193.69 73.63, 211.15 53.69 M158.4 120.47 C170.69 106.17, 183.13 93.19, 210.88 60.09 M158.4 120.47 C180.02 97.81, 200.31 72.75, 210.88 60.09 M163.39 120.83 C181.89 98.23, 200.46 76.24, 211.28 65.74 M163.39 120.83 C175.94 105.78, 189.28 90.98, 211.28 65.74 M169.03 120.43 C182.5 103.45, 198.22 87.58, 211.02 72.13 M169.03 120.43 C185.45 102.42, 200.68 84.85, 211.02 72.13 M174.02 120.8 C187.8 103.94, 202.18 88.25, 211.41 77.78 M174.02 120.8 C188.04 105.21, 201.94 88.14, 211.41 77.78 M179 121.16 C187.97 110.22, 197.86 98.72, 211.15 84.17 M179 121.16 C187.53 111.46, 196.24 102.42, 211.15 84.17 M183.33 122.27 C191.65 110.45, 201.65 100.18, 210.89 90.57 M183.33 122.27 C192.94 112.29, 201.44 101.17, 210.89 90.57 M188.98 121.88 C196.48 113.91, 201.96 106.24, 209.97 97.72 M188.98 121.88 C195.97 114.03, 204.36 105.44, 209.97 97.72 M199.21 116.2 C201.38 114.07, 203.97 111.64, 207.09 107.14 M199.21 116.2 C200.71 114.45, 203.53 112.22, 207.09 107.14" stroke="#be4bdb" stroke-width="0.5" fill="none"></path><path d="M30 0 M30 0 C61.13 -2.93, 93.64 -0.31, 180.4 0 M30 0 C71.47 -1.52, 111.47 -0.86, 180.4 0 M180.4 0 C201.23 0.1, 210.27 8.46, 210.4 30 M180.4 0 C202.16 0.28, 210.31 11.73, 210.4 30 M210.4 30 C211.58 54.76, 211.87 78.73, 210.4 90 M210.4 30 C209.37 46.28, 211.01 62.43, 210.4 90 M210.4 90 C209.06 111.28, 199.47 119.21, 180.4 120 M210.4 90 C211.48 110.94, 198.67 120.76, 180.4 120 M180.4 120 C144.23 121.85, 106.27 122.82, 30 120 M180.4 120 C133.87 121.37, 87.88 121.37, 30 120 M30 120 C11.72 120.35, 0.61 108.57, 0 90 M30 120 C10.27 119.79, 0.46 108.48, 0 90 M0 90 C-1.61 69.64, -0.44 54.01, 0 30 M0 90 C0.53 69.57, -0.05 47.31, 0 30 M0 30 C0.33 10.31, 10.86 1.32, 30 0 M0 30 C-0.36 8.81, 11.84 -0.63, 30 0" stroke="#000000" stroke-width="1" fill="none"></path></g><g transform="translate(72.22998809814453 521.899995803833) rotate(0 41.72996520996094 25)"><text x="41.72996520996094" y="0" font-family="Virgil, Segoe UI Emoji" font-size="20px" fill="#000000" text-anchor="middle" style="white-space: pre;" direction="ltr" dominant-baseline="text-before-edge">Frontend</text><text x="41.72996520996094" y="25" font-family="Virgil, Segoe UI Emoji" font-size="20px" fill="#000000" text-anchor="middle" style="white-space: pre;" direction="ltr" dominant-baseline="text-before-edge">(React)</text></g><g stroke-linecap="round" transform="translate(393.9999542236328 482.69995307922363) rotate(0 105.19999694824219 60.00000762939453)"><path d="M7.33 7.7 C7.33 7.7, 7.33 7.7, 7.33 7.7 M7.33 7.7 C7.33 7.7, 7.33 7.7, 7.33 7.7 M7.07 14.09 C10.52 9.58, 14.02 6.91, 17.56 2.02 M7.07 14.09 C11.18 10.21, 14.92 4.74, 17.56 2.02 M2.87 25.02 C8.86 19.84, 14.59 14.88, 23.21 1.62 M2.87 25.02 C7.9 18.6, 13.61 12.13, 23.21 1.62 M2.61 31.42 C9.92 22.52, 19.87 12.54, 29.51 0.47 M2.61 31.42 C11.22 22.89, 18.83 13.16, 29.51 0.47 M3 37.06 C11.77 28.72, 19.09 17.42, 33.18 2.34 M3 37.06 C11.61 26.9, 21.47 16.77, 33.18 2.34 M2.74 43.46 C12.65 30.41, 24.45 15.89, 38.17 2.7 M2.74 43.46 C16.24 27.55, 29.55 13.43, 38.17 2.7 M3.14 49.1 C12.32 36.41, 26 26.2, 43.81 2.31 M3.14 49.1 C11.71 38.64, 20.87 27.93, 43.81 2.31 M2.87 55.5 C14.09 42.52, 25 28.84, 48.8 2.67 M2.87 55.5 C17.48 38.56, 32.26 22.53, 48.8 2.67 M2.61 61.9 C23.33 38.45, 43.96 16.22, 54.44 2.28 M2.61 61.9 C17.78 42.25, 35.48 24.05, 54.44 2.28 M3.01 67.54 C18.6 51.51, 31.15 34.53, 59.43 2.64 M3.01 67.54 C14.68 52.84, 26.21 39.51, 59.43 2.64 M2.75 73.94 C23.71 49.84, 47.28 25.55, 65.07 2.24 M2.75 73.94 C23.58 50.94, 42.28 28.86, 65.07 2.24 M3.14 79.58 C16.41 62.41, 32.71 43.11, 70.06 2.6 M3.14 79.58 C27.38 51.28, 51.7 23.79, 70.06 2.6 M2.88 85.98 C25.64 59.48, 47.15 35.25, 75.05 2.96 M2.88 85.98 C16.25 69.24, 30.99 52.59, 75.05 2.96 M2.62 92.38 C20.92 69.31, 38.66 48.82, 80.69 2.57 M2.62 92.38 C25 68.39, 45.88 44.38, 80.69 2.57 M2.36 98.77 C23.16 77.73, 39.13 54.77, 85.68 2.93 M2.36 98.77 C18.89 78.97, 36.14 59.26, 85.68 2.93 M4.06 102.91 C35.78 66.13, 65.05 32.29, 91.32 2.53 M4.06 102.91 C22.22 80.14, 41.56 58.65, 91.32 2.53 M4.46 108.55 C35.57 70.66, 67.31 34.77, 96.31 2.89 M4.46 108.55 C27.27 84.86, 47.66 60.24, 96.31 2.89 M7.48 111.18 C41.9 69.91, 79.08 26.88, 101.95 2.5 M7.48 111.18 C36.87 78.17, 65.03 43.78, 101.95 2.5 M9.84 114.55 C33.47 84.87, 62.43 55.11, 106.94 2.86 M9.84 114.55 C47.73 70.64, 85.94 27.51, 106.94 2.86 M12.86 117.18 C48.68 76.27, 86.65 31.71, 112.58 2.46 M12.86 117.18 C35.95 90.58, 58.3 65.3, 112.58 2.46 M17.19 118.29 C47.14 86.38, 72.54 52.29, 117.57 2.82 M17.19 118.29 C43.31 88.98, 70.81 56.61, 117.57 2.82 M21.52 119.41 C50 86.45, 76.62 54.02, 123.21 2.43 M21.52 119.41 C51.02 86.55, 79.66 53.06, 123.21 2.43 M25.2 121.28 C50.31 90.98, 74.98 64.71, 128.2 2.79 M25.2 121.28 C52.79 87.58, 81.07 55.18, 128.2 2.79 M30.84 120.88 C62.46 86.23, 94.59 47.82, 133.84 2.39 M30.84 120.88 C65.43 79.15, 102.43 37.9, 133.84 2.39 M36.48 120.49 C66.47 82.7, 100.1 47.7, 138.83 2.75 M36.48 120.49 C68.48 81.14, 102.96 43.4, 138.83 2.75 M41.47 120.85 C78.38 80.57, 110.13 42.38, 144.47 2.36 M41.47 120.85 C73.91 82.6, 105.9 44.78, 144.47 2.36 M47.11 120.45 C84.13 73.8, 123.28 32.1, 149.46 2.72 M47.11 120.45 C78.55 85.26, 109.12 47.66, 149.46 2.72 M52.1 120.81 C86.41 81.82, 121.13 37.89, 155.1 2.33 M52.1 120.81 C79.44 89.51, 107.14 59.07, 155.1 2.33 M57.74 120.42 C83.17 92.38, 106.35 63.49, 160.09 2.69 M57.74 120.42 C79.97 96.62, 101.3 71.8, 160.09 2.69 M62.73 120.78 C103.73 76.16, 139.7 28.83, 165.73 2.29 M62.73 120.78 C93.44 85.97, 125.79 48.83, 165.73 2.29 M67.72 121.14 C97.27 87.97, 125.33 55.61, 170.72 2.65 M67.72 121.14 C92.96 92.08, 118.64 62.6, 170.72 2.65 M73.36 120.75 C109.9 79.05, 147.43 38.47, 176.36 2.26 M73.36 120.75 C101.62 88.59, 129.36 56.94, 176.36 2.26 M78.35 121.11 C112.76 81.1, 148.05 38.15, 182 1.86 M78.35 121.11 C109.97 86.61, 140.89 49.21, 182 1.86 M83.99 120.71 C111.67 88.34, 139.51 56.11, 188.3 0.71 M83.99 120.71 C114.92 84.47, 146.08 49.39, 188.3 0.71 M88.98 121.07 C114.17 90.23, 138.54 65.12, 191.98 2.58 M88.98 121.07 C118.4 88.53, 145.7 57.33, 191.98 2.58 M94.62 120.68 C133.37 77.94, 171.16 33.39, 196.31 3.7 M94.62 120.68 C116.38 95.2, 140 69.1, 196.31 3.7 M99.61 121.04 C127.15 91.34, 152.62 58, 199.98 5.57 M99.61 121.04 C136.17 80.54, 169.56 42.03, 199.98 5.57 M105.25 120.64 C131.29 90.18, 155.91 62.07, 203 8.19 M105.25 120.64 C140.08 79.85, 175.54 39.93, 203 8.19 M110.24 121 C140.48 87.08, 170.23 54.49, 206.02 10.81 M110.24 121 C140.43 86.62, 170.92 51.07, 206.02 10.81 M115.88 120.61 C142.52 86.7, 172 56.86, 208.38 14.19 M115.88 120.61 C148.9 84.52, 180.82 45.94, 208.38 14.19 M120.87 120.97 C150.27 87.78, 176.17 57.2, 210.09 18.33 M120.87 120.97 C144.97 93.88, 169.25 64.36, 210.09 18.33 M126.51 120.57 C148.82 96.46, 172.27 71.92, 210.48 23.97 M126.51 120.57 C150.73 89.86, 177.9 61.92, 210.48 23.97 M131.5 120.93 C147.26 102.62, 166.18 83.37, 210.88 29.61 M131.5 120.93 C156.04 94.31, 179.68 65.78, 210.88 29.61 M137.14 120.54 C158.12 98.84, 178.02 75.29, 210.62 36.01 M137.14 120.54 C156.12 97.83, 176.14 76.08, 210.62 36.01 M142.13 120.9 C156.41 102.69, 170.93 87.84, 211.01 41.65 M142.13 120.9 C168.66 91.5, 194.05 60.3, 211.01 41.65 M147.77 120.5 C159.9 106.37, 174.05 89.77, 210.75 48.05 M147.77 120.5 C168.21 96.97, 190.18 72.38, 210.75 48.05 M152.76 120.86 C168.14 101.39, 185.33 84.42, 211.15 53.69 M152.76 120.86 C170.65 99.83, 188.67 79.87, 211.15 53.69 M158.4 120.47 C179.61 97.52, 200.88 76.23, 210.88 60.09 M158.4 120.47 C176.25 99.05, 194.27 79.16, 210.88 60.09 M163.39 120.83 C177.52 103.18, 192.55 87.05, 211.28 65.74 M163.39 120.83 C178.84 101.82, 197.1 81.36, 211.28 65.74 M169.03 120.43 C181.39 108.91, 189.18 97.76, 211.02 72.13 M169.03 120.43 C176.73 111.06, 185.96 100.66, 211.02 72.13 M174.02 120.8 C185.32 106.9, 195.07 96.67, 211.41 77.78 M174.02 120.8 C189.16 104.02, 204.6 87.08, 211.41 77.78 M179 121.16 C185.37 110.77, 194.84 105.34, 211.15 84.17 M179 121.16 C190.4 107.93, 202.49 96.34, 211.15 84.17 M183.33 122.27 C194.34 112.85, 203.19 101.66, 210.89 90.57 M183.33 122.27 C189.62 115.17, 196.5 107.25, 210.89 90.57 M188.98 121.88 C194.88 111.35, 204.07 105.31, 209.97 97.72 M188.98 121.88 C195.28 116.13, 200.41 109.06, 209.97 97.72 M199.21 116.2 C200.93 112.35, 204.81 110.01, 207.09 107.14 M199.21 116.2 C200.97 114.74, 202.85 112.41, 207.09 107.14" stroke="#4c6ef5" stroke-width="0.5" fill="none"></path><path d="M30 0 M30 0 C89.8 -0.44, 148.09 -3.06, 180.4 0 M30 0 C61.27 1.64, 94.15 1.1, 180.4 0 M180.4 0 C201 -0.62, 210.95 11.45, 210.4 30 M180.4 0 C200.42 0.53, 209.25 8.73, 210.4 30 M210.4 30 C210.04 42.81, 210.36 54.72, 210.4 90 M210.4 30 C210.7 42.16, 210 55.05, 210.4 90 M210.4 90 C209.33 110.84, 199.45 120.85, 180.4 120 M210.4 90 C211.25 108.81, 202.03 119.79, 180.4 120 M180.4 120 C124.11 118.48, 71.35 120.4, 30 120 M180.4 120 C124.92 120.37, 68.33 120.55, 30 120 M30 120 C8.37 119.49, 1.26 110.72, 0 90 M30 120 C10.74 118.67, -1.36 110.27, 0 90 M0 90 C-1.83 68.34, -1.91 46.14, 0 30 M0 90 C-0.87 67.43, -0.16 43.23, 0 30 M0 30 C-0.35 11.26, 10.77 -1.05, 30 0 M0 30 C-2.28 9.03, 10.02 -0.55, 30 0" stroke="#000000" stroke-width="1" fill="none"></path></g><g transform="translate(440.1600112915039 515.8999652862549) rotate(0 58.78996276855469 25)"><text x="58.78996276855469" y="0" font-family="Virgil, Segoe UI Emoji" font-size="20px" fill="#000000" text-anchor="middle" style="white-space: pre;" direction="ltr" dominant-baseline="text-before-edge">Backend</text><text x="58.78996276855469" y="25" font-family="Virgil, Segoe UI Emoji" font-size="20px" fill="#000000" text-anchor="middle" style="white-space: pre;" direction="ltr" dominant-baseline="text-before-edge">(REST API)</text></g><g stroke-linecap="round" transform="translate(243.39999389648438 230.0999927520752) rotate(0 110.00003051757812 57.99999237060547)"><path d="M7.06 7.46 C7.06 7.46, 7.06 7.46, 7.06 7.46 M7.06 7.46 C7.06 7.46, 7.06 7.46, 7.06 7.46 M6.8 13.86 C10.84 11.94, 11.21 8.18, 16.64 2.54 M6.8 13.86 C10.07 11, 11.41 8.73, 16.64 2.54 M3.26 24.03 C6.6 17.68, 10.53 12.31, 22.94 1.39 M3.26 24.03 C7.83 19.28, 13.84 12.52, 22.94 1.39 M3 30.43 C13.62 17.01, 23.55 6.55, 29.24 0.24 M3 30.43 C7.79 24.66, 14.06 17.21, 29.24 0.24 M2.74 36.83 C13.64 24.44, 22.12 16.89, 34.88 -0.15 M2.74 36.83 C14.18 23.23, 25.36 10.2, 34.88 -0.15 M3.13 42.47 C9.85 31.77, 19.81 23.69, 39.87 0.21 M3.13 42.47 C11.88 32.06, 20.86 20.94, 39.87 0.21 M2.87 48.87 C17.01 32.91, 33.42 12.52, 44.86 0.57 M2.87 48.87 C11.75 37.94, 22.74 27.74, 44.86 0.57 M3.26 54.51 C14.64 41.57, 25.86 26.63, 50.5 0.17 M3.26 54.51 C17.65 37.92, 33.39 20.12, 50.5 0.17 M3 60.91 C19.98 39.77, 38.33 17.7, 55.49 0.53 M3 60.91 C22.42 37.64, 41.57 14.44, 55.49 0.53 M2.74 67.31 C21.56 47.73, 39.2 28.93, 61.13 0.14 M2.74 67.31 C15.92 50.96, 28.67 36.83, 61.13 0.14 M3.14 72.95 C17.5 55.75, 29.35 42.07, 66.12 0.5 M3.14 72.95 C22.79 49.12, 41.55 27.54, 66.12 0.5 M2.88 79.35 C20.77 58.78, 40.73 33.21, 71.76 0.11 M2.88 79.35 C30.09 48.91, 56.07 17.66, 71.76 0.11 M3.27 84.99 C28.63 54.92, 50.37 27.11, 76.75 0.47 M3.27 84.99 C30.13 54.71, 57.26 23.66, 76.75 0.47 M1.04 93.65 C18 72.36, 37.78 51.14, 82.39 0.07 M1.04 93.65 C21.05 70.19, 41.41 47.3, 82.39 0.07 M2.09 98.54 C34.39 61.98, 67.44 23.14, 87.38 0.43 M2.09 98.54 C33.59 63.42, 65.77 27.35, 87.38 0.43 M3.8 102.68 C38.33 64.3, 73.62 20.76, 93.02 0.04 M3.8 102.68 C28.25 74.9, 52.72 48.97, 93.02 0.04 M6.16 106.06 C23.3 84.86, 43.48 61.99, 98.01 0.4 M6.16 106.06 C42.45 64.32, 78.82 22.91, 98.01 0.4 M8.52 109.43 C31.54 85.01, 51.95 61.66, 103.65 0 M8.52 109.43 C44.25 68.96, 79.61 28.1, 103.65 0 M11.54 112.06 C48.38 68, 86.72 24.69, 108.64 0.36 M11.54 112.06 C35.19 84.17, 61.23 55.54, 108.64 0.36 M15.87 113.17 C38.21 89.74, 57.5 66.35, 114.28 -0.03 M15.87 113.17 C41.07 84.66, 65.25 56.3, 114.28 -0.03 M19.55 115.04 C50.64 82.87, 75.87 49.72, 119.27 0.33 M19.55 115.04 C56.4 74.47, 92.4 31.95, 119.27 0.33 M23.22 116.91 C59.35 75.07, 97.28 32.36, 124.91 -0.07 M23.22 116.91 C54.09 81.76, 84.58 48.35, 124.91 -0.07 M28.87 116.52 C68.5 73.6, 106.98 28.55, 129.9 0.29 M28.87 116.52 C56.56 85.28, 84.66 51, 129.9 0.29 M34.51 116.12 C72.78 75.01, 107.13 32.53, 135.54 -0.1 M34.51 116.12 C58.9 87.59, 83.07 59.62, 135.54 -0.1 M39.5 116.48 C69.94 81.25, 101.61 45.48, 140.53 0.26 M39.5 116.48 C77.58 71.43, 117.21 26.64, 140.53 0.26 M45.14 116.09 C67.28 87.22, 90.35 61.2, 146.17 -0.14 M45.14 116.09 C77.9 77.44, 113.3 37.68, 146.17 -0.14 M50.13 116.45 C75.7 88.96, 99.43 57.96, 151.16 0.22 M50.13 116.45 C88.94 72.05, 128.22 27.84, 151.16 0.22 M55.77 116.05 C81.66 88.35, 106.7 61.76, 156.15 0.58 M55.77 116.05 C94.04 71.23, 130.42 29.37, 156.15 0.58 M60.76 116.41 C98.06 74.43, 134.14 35.63, 161.79 0.19 M60.76 116.41 C100.55 71.18, 141.41 24.94, 161.79 0.19 M66.4 116.02 C87.79 92.4, 111.1 67.57, 166.78 0.55 M66.4 116.02 C90.93 87.07, 115.49 59.18, 166.78 0.55 M71.39 116.38 C99.98 84.17, 126.4 52.25, 172.42 0.16 M71.39 116.38 C99.37 82.15, 130.42 46.86, 172.42 0.16 M77.03 115.99 C98.78 89.12, 123.29 64.48, 177.41 0.52 M77.03 115.99 C97.71 91.93, 118.7 69.26, 177.41 0.52 M82.02 116.35 C109.99 82.61, 137.94 50.91, 183.05 0.12 M82.02 116.35 C118.28 74.25, 154.41 32.41, 183.05 0.12 M87.66 115.95 C113.34 85.02, 142.58 53.91, 188.04 0.48 M87.66 115.95 C126.23 70.24, 165.25 24.78, 188.04 0.48 M92.65 116.31 C123.69 80.2, 153.67 45.28, 192.37 1.6 M92.65 116.31 C113.55 90.82, 134.1 68.51, 192.37 1.6 M98.29 115.92 C122.4 90.26, 148.11 59.58, 198.01 1.2 M98.29 115.92 C131.98 78.22, 163.71 42.37, 198.01 1.2 M103.28 116.28 C138.03 79.87, 167.67 41.51, 202.34 2.32 M103.28 116.28 C128.64 85.97, 156.02 55.67, 202.34 2.32 M108.92 115.88 C143.28 76.08, 175.18 39.36, 206.67 3.43 M108.92 115.88 C143.98 74.47, 180.5 33.52, 206.67 3.43 M113.91 116.24 C149.93 75.52, 189.32 32.19, 210.35 5.3 M113.91 116.24 C144.63 80.76, 175.75 46.22, 210.35 5.3 M119.55 115.85 C142.16 90.02, 160.65 66.83, 213.37 7.92 M119.55 115.85 C149.08 82.46, 180.39 47.42, 213.37 7.92 M124.54 116.21 C154.65 80.1, 182.61 47.51, 215.73 11.3 M124.54 116.21 C155.55 80.85, 187.65 45.77, 215.73 11.3 M130.18 115.81 C159.28 83.23, 187.08 48.62, 218.75 13.93 M130.18 115.81 C148.27 94.24, 167.49 74.33, 218.75 13.93 M135.17 116.17 C160.86 88.63, 185.76 58.38, 220.45 18.06 M135.17 116.17 C157.75 93.06, 177.94 68.33, 220.45 18.06 M140.15 116.53 C162.78 93.36, 184.67 64.88, 220.85 23.7 M140.15 116.53 C160.49 94.03, 180.02 72.42, 220.85 23.7 M145.8 116.14 C165.27 95.64, 183.28 72.14, 221.24 29.35 M145.8 116.14 C160.93 98.5, 175.56 81.95, 221.24 29.35 M150.78 116.5 C170.15 91.76, 193.99 68.88, 220.98 35.75 M150.78 116.5 C174.68 90.72, 198.31 63.01, 220.98 35.75 M156.43 116.1 C170.41 101.92, 186.75 83.55, 221.38 41.39 M156.43 116.1 C172.86 96.37, 189.99 77.56, 221.38 41.39 M161.41 116.46 C176.89 99.24, 192.47 80.75, 221.12 47.79 M161.41 116.46 C183 93.57, 203.01 70.34, 221.12 47.79 M167.06 116.07 C179.22 98.53, 196.28 81.97, 221.51 53.43 M167.06 116.07 C185.9 96.65, 202.19 75.98, 221.51 53.43 M172.04 116.43 C186.11 98.92, 202.49 78.22, 221.25 59.83 M172.04 116.43 C183.54 103.53, 193.79 89.87, 221.25 59.83 M177.69 116.04 C191.26 100.12, 205.15 84.81, 221.64 65.47 M177.69 116.04 C187.13 104.16, 197.26 93.3, 221.64 65.47 M182.67 116.4 C197.68 97.66, 211.95 81.33, 221.38 71.87 M182.67 116.4 C194.91 102.66, 206.1 88.49, 221.38 71.87 M188.32 116 C197.53 105.85, 207.24 92.47, 221.12 78.27 M188.32 116 C201.02 101.04, 214.29 86.18, 221.12 78.27 M192.65 117.12 C201.2 109.01, 206.37 100.22, 221.51 83.91 M192.65 117.12 C203.84 103.37, 215.83 91.3, 221.51 83.91 M198.29 116.72 C206.9 109.79, 211.28 102.36, 222.57 88.8 M198.29 116.72 C203.79 109.68, 210.35 103.58, 222.57 88.8 M204.59 115.57 C209.69 107.73, 216.63 101.42, 221.65 95.95 M204.59 115.57 C208.11 110.28, 213.12 105.39, 221.65 95.95" stroke="#15aabf" stroke-width="0.5" fill="none"></path><path d="M29 0 M29 0 C77.79 1.76, 126.26 1.92, 191 0 M29 0 C84.98 1.79, 139.71 1.73, 191 0 M191 0 C209.41 -0.2, 220.49 10.03, 220 29 M191 0 C208.08 -0.26, 218.58 10.58, 220 29 M220 29 C220.09 41.53, 218.71 53.82, 220 87 M220 29 C220.23 43.25, 219.3 58.68, 220 87 M220 87 C220.59 106.78, 212.07 116.61, 191 116 M220 87 C219.66 108.45, 209.38 114.98, 191 116 M191 116 C139.28 115.85, 89.3 115.84, 29 116 M191 116 C135.2 115.71, 80.88 117.16, 29 116 M29 116 C11.57 116.91, 1.24 108.07, 0 87 M29 116 C7.6 115.61, -1.49 105.58, 0 87 M0 87 C1.23 68.14, 0.77 45.66, 0 29 M0 87 C-1.09 67.8, -0.55 50.7, 0 29 M0 29 C1.36 8.31, 10.46 -1.62, 29 0 M0 29 C-0.02 8.39, 9.26 2.26, 29 0" stroke="#000000" stroke-width="1" fill="none"></path></g><g transform="translate(319.6800537109375 275.59998512268066) rotate(0 33.719970703125 12.5)"><text x="33.719970703125" y="0" font-family="Virgil, Segoe UI Emoji" font-size="20px" fill="#000000" text-anchor="middle" style="white-space: pre;" direction="ltr" dominant-baseline="text-before-edge">Kratos</text></g><g stroke-linecap="round" transform="translate(844.9998779296875 311.90000343322754) rotate(0 110.00003051757812 57.99999237060547)"><path d="M7.06 7.46 C7.06 7.46, 7.06 7.46, 7.06 7.46 M7.06 7.46 C7.06 7.46, 7.06 7.46, 7.06 7.46 M6.8 13.86 C9.28 11.84, 10.71 9.44, 16.64 2.54 M6.8 13.86 C8.68 12.07, 10.87 9.76, 16.64 2.54 M3.26 24.03 C6.92 18.17, 13.74 11.31, 22.94 1.39 M3.26 24.03 C11.24 14.86, 18.16 7.55, 22.94 1.39 M3 30.43 C12.46 19.69, 19.46 12.55, 29.24 0.24 M3 30.43 C12.42 20.51, 21.19 10.6, 29.24 0.24 M2.74 36.83 C13.55 25.19, 23.9 13.47, 34.88 -0.15 M2.74 36.83 C9.38 28.72, 18.35 19.59, 34.88 -0.15 M3.13 42.47 C16.64 26.51, 33.17 8.73, 39.87 0.21 M3.13 42.47 C16.39 27.77, 30.69 11.35, 39.87 0.21 M2.87 48.87 C16.05 30.51, 32.08 17.71, 44.86 0.57 M2.87 48.87 C14.4 34.08, 26.71 20.16, 44.86 0.57 M3.26 54.51 C14.73 42.5, 26.33 27.58, 50.5 0.17 M3.26 54.51 C16.13 38.93, 30.1 22.45, 50.5 0.17 M3 60.91 C16.88 46.6, 31.57 30.03, 55.49 0.53 M3 60.91 C19.09 40.17, 37.34 19.65, 55.49 0.53 M2.74 67.31 C25.01 41.87, 42.96 22.39, 61.13 0.14 M2.74 67.31 C15.21 53.11, 28.19 37.44, 61.13 0.14 M3.14 72.95 C19.64 53.97, 34.84 36.77, 66.12 0.5 M3.14 72.95 C28.77 44.89, 52.5 15.05, 66.12 0.5 M2.88 79.35 C23.49 55.9, 47.51 30.33, 71.76 0.11 M2.88 79.35 C23.29 54.77, 44.44 31.67, 71.76 0.11 M3.27 84.99 C18.58 65.18, 32.67 50.36, 76.75 0.47 M3.27 84.99 C30.04 54.14, 55.82 24.52, 76.75 0.47 M1.04 93.65 C28.44 63.7, 51.7 35.41, 82.39 0.07 M1.04 93.65 C32.29 59.07, 62.51 21.47, 82.39 0.07 M2.09 98.54 C27.69 69.56, 56.27 36.65, 87.38 0.43 M2.09 98.54 C27.38 68.98, 51.9 40.66, 87.38 0.43 M3.8 102.68 C33.46 71.48, 58.88 38.69, 93.02 0.04 M3.8 102.68 C36.04 63.67, 69.72 24.96, 93.02 0.04 M6.16 106.06 C28.35 80.18, 53.05 50.16, 98.01 0.4 M6.16 106.06 C37.91 69.56, 70 34.04, 98.01 0.4 M8.52 109.43 C41.61 73.4, 71.51 37.93, 103.65 0 M8.52 109.43 C34.56 80.24, 60.29 49.67, 103.65 0 M11.54 112.06 C33.98 85.33, 55.86 61.47, 108.64 0.36 M11.54 112.06 C34.39 87.89, 57.25 62.03, 108.64 0.36 M15.87 113.17 C37.88 85.34, 60.99 60.6, 114.28 -0.03 M15.87 113.17 C48.35 75.32, 82.32 35.17, 114.28 -0.03 M19.55 115.04 C49.74 77.35, 81.54 41.35, 119.27 0.33 M19.55 115.04 C54.09 76.52, 86.94 37.66, 119.27 0.33 M23.22 116.91 C61.54 77.86, 93.61 36.78, 124.91 -0.07 M23.22 116.91 C59.48 76.52, 94.17 34.05, 124.91 -0.07 M28.87 116.52 C55.64 83.38, 82.27 52.09, 129.9 0.29 M28.87 116.52 C53.94 87.27, 77.78 59.3, 129.9 0.29 M34.51 116.12 C59.16 89.17, 80.59 62.78, 135.54 -0.1 M34.51 116.12 C63.2 84.05, 92.54 51.47, 135.54 -0.1 M39.5 116.48 C58.74 91.04, 78.28 70.33, 140.53 0.26 M39.5 116.48 C60.7 91.93, 80.93 68.78, 140.53 0.26 M45.14 116.09 C79.99 77.24, 111.45 41.18, 146.17 -0.14 M45.14 116.09 C73.62 84.78, 101.64 52.2, 146.17 -0.14 M50.13 116.45 C78.55 84.91, 106.81 52.29, 151.16 0.22 M50.13 116.45 C74.22 90.26, 97.41 62.35, 151.16 0.22 M55.77 116.05 C81.99 86.65, 108.74 57.21, 156.15 0.58 M55.77 116.05 C84.45 83.59, 112.27 52.96, 156.15 0.58 M60.76 116.41 C101.27 70.72, 137.01 26.01, 161.79 0.19 M60.76 116.41 C83.63 88.84, 107.13 61.43, 161.79 0.19 M66.4 116.02 C106.01 71.17, 144.13 24.43, 166.78 0.55 M66.4 116.02 C103.26 74.04, 141.09 31.12, 166.78 0.55 M71.39 116.38 C99.54 85.91, 124.12 53.84, 172.42 0.16 M71.39 116.38 C102.64 83.27, 132.91 47.45, 172.42 0.16 M77.03 115.99 C101.89 91.52, 124.12 61.64, 177.41 0.52 M77.03 115.99 C101.74 86.91, 125.36 58.52, 177.41 0.52 M82.02 116.35 C107.59 87.06, 131.4 58.57, 183.05 0.12 M82.02 116.35 C120.13 74.94, 156.77 31.47, 183.05 0.12 M87.66 115.95 C110.15 88.84, 135.29 61.13, 188.04 0.48 M87.66 115.95 C123.7 76.43, 158.06 35.83, 188.04 0.48 M92.65 116.31 C117.54 88, 143.18 58.42, 192.37 1.6 M92.65 116.31 C129.14 72.06, 166.54 30.15, 192.37 1.6 M98.29 115.92 C121.56 89.45, 144.93 62.95, 198.01 1.2 M98.29 115.92 C130.35 77.84, 162.23 39.78, 198.01 1.2 M103.28 116.28 C140.3 73.66, 177.08 29.87, 202.34 2.32 M103.28 116.28 C134.43 77.95, 167.28 40.37, 202.34 2.32 M108.92 115.88 C143.61 75.99, 177.7 38.41, 206.67 3.43 M108.92 115.88 C143.84 73.21, 181.09 32.8, 206.67 3.43 M113.91 116.24 C151.22 74.65, 185.97 33.7, 210.35 5.3 M113.91 116.24 C135.63 91.71, 155.77 66.55, 210.35 5.3 M119.55 115.85 C147.58 80.25, 177.42 46.53, 213.37 7.92 M119.55 115.85 C144.9 84.43, 172.18 54.87, 213.37 7.92 M124.54 116.21 C155.94 79.54, 183.66 44.7, 215.73 11.3 M124.54 116.21 C151.23 84.74, 179.15 51.79, 215.73 11.3 M130.18 115.81 C163.65 77.9, 194.9 42.78, 218.75 13.93 M130.18 115.81 C148.05 95.03, 166.19 73.35, 218.75 13.93 M135.17 116.17 C169 77.96, 203.94 38.96, 220.45 18.06 M135.17 116.17 C152.39 95.07, 171.33 74.53, 220.45 18.06 M140.15 116.53 C165.34 86.99, 192.93 58.07, 220.85 23.7 M140.15 116.53 C164.34 88.05, 187.78 61.82, 220.85 23.7 M145.8 116.14 C165.25 95.83, 183.27 72.64, 221.24 29.35 M145.8 116.14 C166.97 93.04, 187.84 69.51, 221.24 29.35 M150.78 116.5 C173.52 90.66, 196 66.02, 220.98 35.75 M150.78 116.5 C167.94 97.32, 185.47 75.88, 220.98 35.75 M156.43 116.1 C172.85 97.12, 187.11 79.74, 221.38 41.39 M156.43 116.1 C180.1 89.55, 204.5 60.62, 221.38 41.39 M161.41 116.46 C179.39 96.22, 197.96 75.71, 221.12 47.79 M161.41 116.46 C185.31 89.13, 206.93 63.15, 221.12 47.79 M167.06 116.07 C181.07 101.17, 193.56 84.03, 221.51 53.43 M167.06 116.07 C181.59 98.47, 197.14 81.94, 221.51 53.43 M172.04 116.43 C182.83 103.25, 195.41 89.41, 221.25 59.83 M172.04 116.43 C189.68 96.46, 206.13 75.49, 221.25 59.83 M177.69 116.04 C196.25 94.59, 212.23 75.79, 221.64 65.47 M177.69 116.04 C191.54 100.4, 205.34 83.48, 221.64 65.47 M182.67 116.4 C196.25 98.76, 211.18 82.09, 221.38 71.87 M182.67 116.4 C189.88 107, 198.62 98.77, 221.38 71.87 M188.32 116 C202.74 100.62, 212.7 87.11, 221.12 78.27 M188.32 116 C198.86 103.46, 209.82 91.31, 221.12 78.27 M192.65 117.12 C198.1 109.27, 208.28 102.45, 221.51 83.91 M192.65 117.12 C201.52 105.22, 211.74 93.59, 221.51 83.91 M198.29 116.72 C207.92 108.23, 215.7 95.95, 222.57 88.8 M198.29 116.72 C205.1 107.13, 213.33 99.56, 222.57 88.8 M204.59 115.57 C209.38 108.27, 216.18 100.7, 221.65 95.95 M204.59 115.57 C211.1 108.31, 218.75 99.07, 221.65 95.95" stroke="#40c057" stroke-width="0.5" fill="none"></path><path d="M29 0 M29 0 C83.26 -0.61, 137.9 -1.98, 191 0 M29 0 C83.11 -0.58, 139.08 -0.61, 191 0 M191 0 C211.2 -1.93, 220.73 10.7, 220 29 M191 0 C208.88 0.56, 218.42 9.94, 220 29 M220 29 C221.64 50.38, 220.08 74.56, 220 87 M220 29 C219.26 47.26, 218.89 63.1, 220 87 M220 87 C219.52 105.03, 209.75 117.89, 191 116 M220 87 C219.57 105.06, 212.46 114.18, 191 116 M191 116 C156.67 115.16, 122.32 115.07, 29 116 M191 116 C133.55 115.04, 75.55 115.42, 29 116 M29 116 C8.4 114.15, 0.7 106.92, 0 87 M29 116 C8.17 117.75, 2.3 104.1, 0 87 M0 87 C1.25 65.52, 0.4 46.7, 0 29 M0 87 C0.64 70.85, 0.96 53.03, 0 29 M0 29 C1.29 8.96, 10.28 0.35, 29 0 M0 29 C0.54 9.46, 11.09 0.7, 29 0" stroke="#000000" stroke-width="1" fill="none"></path></g><g transform="translate(927.7699279785156 357.399995803833) rotate(0 27.22998046875 12.5)"><text x="27.22998046875" y="0" font-family="Virgil, Segoe UI Emoji" font-size="20px" fill="#000000" text-anchor="middle" style="white-space: pre;" direction="ltr" dominant-baseline="text-before-edge">MinIO</text></g><g stroke-linecap="round" transform="translate(409.4842432696237 703.8999767303467) rotate(0 105.19999694824219 51.00000762939453)"><path d="M6.13 6.66 C6.13 6.66, 6.13 6.66, 6.13 6.66 M6.13 6.66 C6.13 6.66, 6.13 6.66, 6.13 6.66 M3.25 16.07 C7.13 11, 11.06 7.99, 15.05 2.49 M3.25 16.07 C7.88 11.7, 12.07 5.55, 15.05 2.49 M3.64 21.71 C8.97 17.28, 14.04 13.07, 21.35 1.34 M3.64 21.71 C8.01 16.07, 13.04 10.38, 21.35 1.34 M3.38 28.11 C9.7 20.38, 18.62 11.58, 27 0.94 M3.38 28.11 C11.05 20.68, 17.71 12.03, 27 0.94 M3.12 34.51 C11.55 26.57, 18.54 15.66, 31.98 1.3 M3.12 34.51 C11.34 24.8, 20.79 15.13, 31.98 1.3 M3.51 40.15 C13.01 27.58, 24.39 13.55, 37.63 0.91 M3.51 40.15 C16.51 24.81, 29.33 11.26, 37.63 0.91 M3.25 46.55 C12.08 34.25, 25.41 24.44, 42.61 1.27 M3.25 46.55 C11.55 36.42, 20.42 26.04, 42.61 1.27 M3.65 52.19 C14.52 39.61, 25.08 26.34, 48.26 0.87 M3.65 52.19 C17.84 35.74, 32.21 20.17, 48.26 0.87 M3.38 58.59 C23.31 36.02, 43.16 14.68, 53.24 1.23 M3.38 58.59 C17.94 39.66, 35.02 22.18, 53.24 1.23 M3.12 64.99 C18.54 49.16, 30.92 32.37, 58.89 0.84 M3.12 64.99 C14.66 50.45, 26.05 37.29, 58.89 0.84 M3.52 70.63 C23.81 47.32, 46.7 23.82, 63.87 1.2 M3.52 70.63 C23.73 48.33, 41.82 26.95, 63.87 1.2 M3.26 77.03 C16.38 60.03, 32.53 40.9, 69.52 0.81 M3.26 77.03 C27.26 49, 51.34 21.78, 69.52 0.81 M2.34 84.18 C25.1 57.69, 46.61 33.45, 74.5 1.17 M2.34 84.18 C15.71 67.45, 30.44 50.8, 74.5 1.17 M4.04 88.32 C21.89 65.79, 39.17 45.82, 80.15 0.77 M4.04 88.32 C25.88 64.94, 46.23 41.54, 80.15 0.77 M5.1 93.21 C25.14 73.03, 40.36 50.94, 85.13 1.13 M5.1 93.21 C20.96 74.16, 37.52 55.24, 85.13 1.13 M8.11 95.83 C38.03 61.17, 65.5 29.4, 90.12 1.49 M8.11 95.83 C25.18 74.39, 43.4 54.19, 90.12 1.49 M10.48 99.21 C39.28 63.89, 68.75 30.62, 95.76 1.1 M10.48 99.21 C31.71 77.26, 50.56 54.41, 95.76 1.1 M14.81 100.32 C45.98 62.79, 79.94 23.47, 100.75 1.46 M14.81 100.32 C41.59 70.33, 67.1 39, 100.75 1.46 M19.79 100.68 C40.68 74.34, 66.82 47.82, 106.39 1.06 M19.79 100.68 C53.59 61.42, 87.74 22.96, 106.39 1.06 M24.13 101.8 C55.25 66.13, 88.61 26.87, 111.38 1.42 M24.13 101.8 C44.33 78.44, 63.8 56.48, 111.38 1.42 M27.8 103.67 C54.58 75.3, 76.85 44.83, 117.02 1.03 M27.8 103.67 C51.05 77.7, 75.56 48.77, 117.02 1.03 M32.79 104.03 C57.79 75.09, 80.92 46.69, 122.01 1.39 M32.79 104.03 C58.77 75.23, 83.82 45.88, 122.01 1.39 M38.43 103.63 C60.24 77.16, 81.48 54.83, 127.65 0.99 M38.43 103.63 C62.31 74.33, 86.72 46.38, 127.65 0.99 M43.42 103.99 C70.84 74.18, 98.85 40.52, 132.64 1.35 M43.42 103.99 C73.28 67.76, 105.52 32, 132.64 1.35 M49.06 103.6 C75.03 70.52, 104.62 40.18, 138.29 0.96 M49.06 103.6 C76.85 69.18, 107.05 36.36, 138.29 0.96 M54.05 103.96 C86.22 69, 113.28 36.21, 143.27 1.32 M54.05 103.96 C82.22 70.88, 109.82 38.11, 143.27 1.32 M59.69 103.56 C91.71 62.7, 125.91 26.7, 148.92 0.92 M59.69 103.56 C87.11 73.01, 113.69 39.99, 148.92 0.92 M64.68 103.92 C94.36 70.39, 124.32 31.95, 153.9 1.28 M64.68 103.92 C88.26 76.77, 112.3 50.54, 153.9 1.28 M70.32 103.53 C92.52 79.21, 112.45 54.06, 159.55 0.89 M70.32 103.53 C89.79 82.87, 108.34 61.26, 159.55 0.89 M75.31 103.89 C111.09 65.4, 141.77 24.15, 164.53 1.25 M75.31 103.89 C101.8 73.85, 130.05 41.43, 164.53 1.25 M80.95 103.5 C106.66 74.79, 130.76 46.98, 170.18 0.85 M80.95 103.5 C102.87 78.27, 125.15 52.69, 170.18 0.85 M85.94 103.86 C117.61 67.82, 150.32 32.77, 175.16 1.21 M85.94 103.86 C110.36 76.03, 134.36 48.7, 175.16 1.21 M90.93 104.22 C120.69 69.66, 151.24 32.16, 180.81 0.82 M90.93 104.22 C118.42 74.38, 145.19 41.76, 180.81 0.82 M96.57 103.82 C120.38 76.1, 144.25 48.43, 185.79 1.18 M96.57 103.82 C123.1 72.74, 149.8 42.8, 185.79 1.18 M101.56 104.18 C123.45 77.41, 144.39 56.25, 190.12 2.3 M101.56 104.18 C126.9 76.16, 150.29 49.47, 190.12 2.3 M107.2 103.79 C140.72 66.96, 173.38 28.31, 195.11 2.66 M107.2 103.79 C126.01 81.87, 146.55 59.3, 195.11 2.66 M112.19 104.15 C136.26 78.59, 158.21 49.31, 199.44 3.77 M112.19 104.15 C144.06 68.84, 172.9 35.55, 199.44 3.77 M117.83 103.75 C140.65 76.98, 162.12 52.51, 203.12 5.64 M117.83 103.75 C148.28 68.13, 179.28 33.35, 203.12 5.64 M122.82 104.11 C149.26 74.61, 175.14 46.48, 206.14 8.26 M122.82 104.11 C149.09 74.19, 175.63 43.19, 206.14 8.26 M128.46 103.72 C151.3 74.11, 176.97 48.66, 208.5 11.64 M128.46 103.72 C157.11 72.58, 184.64 39.04, 208.5 11.64 M133.45 104.08 C158.93 75.48, 180.88 49.44, 210.2 15.78 M133.45 104.08 C154.07 80.91, 174.95 55.3, 210.2 15.78 M139.09 103.68 C158.25 83.12, 178.65 62.08, 211.26 20.66 M139.09 103.68 C159.8 77.16, 183.38 53.35, 211.26 20.66 M144.08 104.04 C157.37 88.7, 173.76 72.36, 211.65 26.31 M144.08 104.04 C164.96 81.45, 185.06 56.97, 211.65 26.31 M149.72 103.65 C167.46 85.47, 184.25 65.5, 211.39 32.71 M149.72 103.65 C165.59 84.45, 182.5 66.3, 211.39 32.71 M154.71 104.01 C166.42 88.77, 178.34 76.92, 211.13 39.1 M154.71 104.01 C176.52 79.97, 197.16 54.24, 211.13 39.1 M160.35 103.61 C170.18 92.13, 181.92 78.29, 211.52 44.75 M160.35 103.61 C176.83 84.58, 194.91 64.48, 211.52 44.75 M165.34 103.97 C177.32 88.51, 190.99 75.57, 211.26 51.14 M165.34 103.97 C179.47 87.28, 193.7 71.69, 211.26 51.14 M170.98 103.58 C187.57 85.78, 204.29 69.71, 211.65 56.79 M170.98 103.58 C184.78 86.8, 198.73 71.59, 211.65 56.79 M175.97 103.94 C186.58 90.43, 197.98 78.47, 211.39 63.19 M175.97 103.94 C187.18 90.04, 201.08 74.6, 211.39 63.19 M181.61 103.54 C191 95.22, 195.94 87.35, 211.79 68.83 M181.61 103.54 C186.97 97.05, 193.79 89.43, 211.79 68.83 M186.6 103.9 C194.06 94.4, 200.08 88.45, 210.21 76.74 M186.6 103.9 C196.17 93.4, 206.12 82.77, 210.21 76.74 M193.55 102 C195.93 96.19, 201.42 95.34, 208.64 84.64 M193.55 102 C198.9 95.54, 205.01 90.82, 208.64 84.64" stroke="#4c6ef5" stroke-width="0.5" fill="none"></path><path d="M25.5 0 M25.5 0 C80.12 1.79, 132.81 1.15, 184.9 0 M25.5 0 C62.12 0.93, 99.18 0.27, 184.9 0 M184.9 0 C202.86 -1.89, 211.73 6.87, 210.4 25.5 M184.9 0 C199.62 0.29, 210.83 7.9, 210.4 25.5 M210.4 25.5 C211.51 36.86, 210.6 50.43, 210.4 76.5 M210.4 25.5 C210.22 40.01, 211.02 53.95, 210.4 76.5 M210.4 76.5 C210.56 92.38, 202.02 103.61, 184.9 102 M210.4 76.5 C211.15 94.03, 204.17 100.68, 184.9 102 M184.9 102 C123.37 100.59, 63.83 102.66, 25.5 102 M184.9 102 C148.77 102.82, 113.19 102.52, 25.5 102 M25.5 102 C9.05 103.45, 0.02 93.96, 0 76.5 M25.5 102 C7.35 100.73, -2.26 95.18, 0 76.5 M0 76.5 C-0.28 58.83, -1.55 40.73, 0 25.5 M0 76.5 C-0.64 56.38, -0.6 37.52, 0 25.5 M0 25.5 C-0.95 9.35, 9.24 -1.03, 25.5 0 M0 25.5 C1.63 8.29, 10.06 1.13, 25.5 0" stroke="#000000" stroke-width="1" fill="none"></path></g><g transform="translate(425.5943506914987 737.0999889373779) rotate(0 86.47991943359375 25)"><text x="86.47991943359375" y="0" font-family="Virgil, Segoe UI Emoji" font-size="20px" fill="#000000" text-anchor="middle" style="white-space: pre;" direction="ltr" dominant-baseline="text-before-edge">Worker</text><text x="86.47991943359375" y="25" font-family="Virgil, Segoe UI Emoji" font-size="20px" fill="#000000" text-anchor="middle" style="white-space: pre;" direction="ltr" dominant-baseline="text-before-edge">(watcher/listener)</text></g><g stroke-linecap="round"><g transform="translate(222.68424021786586 546.8999843597412) rotate(0 83.25834068369585 0.7594165863829687)"><path d="M-0.16 0.79 C27.87 0.65, 140.21 -0.06, 168.23 -0.01 M-1.71 0.16 C26.19 0.15, 139.25 1.66, 167.4 1.52" stroke="#000000" stroke-width="1" fill="none"></path></g><g transform="translate(222.68424021786586 546.8999843597412) rotate(0 83.25834068369585 0.7594165863829687)"><path d="M140.46 12.01 C147.54 8.54, 157.85 7.14, 169.38 3.24 M140.07 12.31 C145.94 10.19, 152.16 7.74, 167.7 1.34" stroke="#000000" stroke-width="1" fill="none"></path></g><g transform="translate(222.68424021786586 546.8999843597412) rotate(0 83.25834068369585 0.7594165863829687)"><path d="M140.57 -8.51 C147.76 -5.82, 158.04 -1.07, 169.38 3.24 M140.19 -8.21 C145.84 -5.81, 152.04 -3.75, 167.7 1.34" stroke="#000000" stroke-width="1" fill="none"></path></g></g><mask></mask><g stroke-linecap="round"><g transform="translate(127.35663191821436 483.69995307922363) rotate(0 106.28948010983814 -65.5514041648039)"><path d="M0.97 -0.88 C36.22 -22.82, 177.55 -110.68, 212.56 -132.38 M0.02 1.27 C35.09 -20.44, 176.46 -108.72, 212.04 -131.1" stroke="#000000" stroke-width="1" fill="none"></path></g><g transform="translate(127.35663191821436 483.69995307922363) rotate(0 106.28948010983814 -65.5514041648039)"><path d="M192.13 -106.05 C200.1 -118.01, 209.46 -125.2, 212.52 -131.47 M193 -107.97 C198.78 -113.61, 201.73 -119.53, 212.46 -130.69" stroke="#000000" stroke-width="1" fill="none"></path></g><g transform="translate(127.35663191821436 483.69995307922363) rotate(0 106.28948010983814 -65.5514041648039)"><path d="M181.24 -123.45 C193.34 -128.72, 206.94 -129.15, 212.52 -131.47 M182.11 -125.36 C190.52 -126.96, 196.04 -128.77, 212.46 -130.69" stroke="#000000" stroke-width="1" fill="none"></path></g></g><mask></mask><g stroke-linecap="round" transform="translate(566.6706852818114 247.27339031494967) rotate(0 64 42.49999999999998)"><path d="M3.19 8.07 C3.19 8.07, 3.19 8.07, 3.19 8.07 M3.19 8.07 C3.19 8.07, 3.19 8.07, 3.19 8.07 M0.96 16.73 C3.97 14.68, 6.46 12.23, 10.8 5.41 M0.96 16.73 C2.32 14.36, 5.68 11.9, 10.8 5.41 M0.7 23.13 C5.87 18.85, 11.85 11.51, 17.75 3.51 M0.7 23.13 C5.51 16.51, 11.01 12.06, 17.75 3.51 M1.09 28.77 C6.06 24.37, 12.11 15.21, 24.05 2.36 M1.09 28.77 C8.12 20.48, 13.13 14.53, 24.05 2.36 M0.83 35.17 C10 26.24, 18.94 13.58, 29.04 2.72 M0.83 35.17 C7.73 27.6, 15.64 18.71, 29.04 2.72 M1.22 40.81 C14.49 27.3, 21.78 15.61, 34.68 2.32 M1.22 40.81 C7.73 31.12, 16.86 22.98, 34.68 2.32 M0.96 47.21 C14.58 31.03, 26.4 20.06, 39.67 2.68 M0.96 47.21 C11.5 35.17, 20.89 24.23, 39.67 2.68 M0.7 53.61 C14.76 33.94, 32.9 17.66, 45.31 2.29 M0.7 53.61 C11.78 41.36, 22.84 28.11, 45.31 2.29 M1.1 59.25 C19.17 38.96, 32 23.41, 50.3 2.65 M1.1 59.25 C20.78 37.75, 39.22 15, 50.3 2.65 M0.83 65.65 C14.5 51.22, 25.71 37.7, 55.94 2.26 M0.83 65.65 C18.66 47.04, 34.33 26.25, 55.94 2.26 M1.89 70.54 C18.7 53.73, 31.73 35.97, 60.93 2.62 M1.89 70.54 C16.17 55.09, 29.03 39.89, 60.93 2.62 M3.59 74.67 C26.75 46.76, 51.58 22.65, 66.57 2.22 M3.59 74.67 C17.54 60.33, 29.18 44.29, 66.57 2.22 M5.3 78.81 C28.69 50.25, 51.81 24.93, 71.56 2.58 M5.3 78.81 C24.71 56.78, 44.93 34.4, 71.56 2.58 M8.32 81.43 C30.53 55.92, 55.04 31.23, 77.2 2.19 M8.32 81.43 C29.24 57.58, 52.69 32.24, 77.2 2.19 M11.34 84.06 C34.4 56.13, 63.26 27.53, 82.19 2.55 M11.34 84.06 C32.8 60.26, 54.74 34.35, 82.19 2.55 M15.67 85.17 C41.89 53.04, 66.01 26.77, 87.83 2.15 M15.67 85.17 C30.59 68.08, 44.98 51.82, 87.83 2.15 M20 86.29 C40.62 61.51, 62.35 39.16, 92.82 2.51 M20 86.29 C47.67 54.52, 74.07 24.69, 92.82 2.51 M24.33 87.4 C52.98 53.46, 81.27 21.43, 98.46 2.12 M24.33 87.4 C42.55 67.15, 60.2 44.87, 98.46 2.12 M29.32 87.76 C52.79 59.62, 75.75 31.06, 103.45 2.48 M29.32 87.76 C44.48 67.89, 62.11 50.33, 103.45 2.48 M34.96 87.37 C55.06 62.42, 76.44 38.75, 109.09 2.08 M34.96 87.37 C61.94 55.29, 90.14 22.82, 109.09 2.08 M39.95 87.73 C65.17 59.93, 84.5 36.53, 113.43 3.2 M39.95 87.73 C64.18 60.13, 89.18 31.66, 113.43 3.2 M45.59 87.33 C74.55 55.37, 100.16 21, 117.76 4.31 M45.59 87.33 C72.18 55.52, 99.13 26.09, 117.76 4.31 M50.58 87.69 C64.77 71.18, 78.89 54.38, 122.09 5.43 M50.58 87.69 C66.57 68.31, 83.09 48.74, 122.09 5.43 M56.22 87.3 C82.34 55.07, 110.4 24.5, 125.11 8.05 M56.22 87.3 C79.57 59.71, 104.24 31.66, 125.11 8.05 M61.21 87.66 C82.03 65.62, 101.86 42.52, 128.12 10.68 M61.21 87.66 C87.6 58.45, 115.27 26.41, 128.12 10.68 M66.85 87.26 C80.97 69.91, 95.81 52.75, 127.86 17.07 M66.85 87.26 C83.9 69.72, 98.24 50.58, 127.86 17.07 M71.84 87.62 C89.81 64.33, 110.09 41.86, 128.26 22.72 M71.84 87.62 C89.23 68.26, 107.71 47.35, 128.26 22.72 M77.48 87.23 C88.64 74.93, 101.46 60.04, 128 29.11 M77.48 87.23 C89.34 72.37, 102.63 58.42, 128 29.11 M82.47 87.59 C94.8 76.79, 104.9 64.7, 128.39 34.76 M82.47 87.59 C92.93 74.51, 104.66 61.72, 128.39 34.76 M88.11 87.19 C101.5 68.6, 119.15 54.77, 128.13 41.16 M88.11 87.19 C96.73 77.96, 105.84 68, 128.13 41.16 M93.1 87.55 C107.69 74.27, 117.26 60.21, 128.52 46.8 M93.1 87.55 C103.36 76.71, 113.14 63.97, 128.52 46.8 M98.08 87.91 C107.64 78.43, 115.72 68.61, 128.26 53.2 M98.08 87.91 C108.12 77.14, 115.62 67.17, 128.26 53.2 M103.73 87.52 C113.65 76.4, 123 64.62, 128.66 58.84 M103.73 87.52 C110.58 78.76, 119.37 70.26, 128.66 58.84 M109.37 87.12 C115.54 80.21, 120.37 76.28, 129.05 64.48 M109.37 87.12 C113.48 83.31, 118.25 77.95, 129.05 64.48 M115.67 85.97 C119.29 81.15, 123.44 77.75, 126.82 73.14 M115.67 85.97 C119.63 81.02, 123.81 76.87, 126.82 73.14" stroke="#40c057" stroke-width="0.5" fill="none"></path><path d="M21.25 0 M21.25 0 C47.05 -0.46, 75.8 -0.7, 106.75 0 M21.25 0 C43.1 -1.06, 63.47 -0.56, 106.75 0 M106.75 0 C122.33 0.47, 127.2 7.55, 128 21.25 M106.75 0 C120.6 1.02, 129.57 6.2, 128 21.25 M128 21.25 C128.58 34.77, 128.99 49.81, 128 63.75 M128 21.25 C129.1 29.92, 129.09 39.51, 128 63.75 M128 63.75 C129.61 78.32, 119.08 83.56, 106.75 85 M128 63.75 C127.71 79.79, 119.17 84.76, 106.75 85 M106.75 85 C74.37 84.88, 40.11 85.04, 21.25 85 M106.75 85 C84.1 84.9, 63.01 86.24, 21.25 85 M21.25 85 C8.89 85.37, -1.17 78.33, 0 63.75 M21.25 85 C5.68 85.47, 1.37 79.6, 0 63.75 M0 63.75 C0 53.54, 0.95 45.25, 0 21.25 M0 63.75 C-0.67 54.38, -0.15 44.62, 0 21.25 M0 21.25 C-2 8.13, 7.82 -1.47, 21.25 0 M0 21.25 C-1.04 5.16, 9.19 -1.5, 21.25 0" stroke="transparent" stroke-width="1" fill="none"></path></g><g stroke-linecap="round" transform="translate(563.0331866460546 238.27339031494967) rotate(0 64.66803997576 17.744279261641463)"><path d="M3.31 12.15 C3.31 12.15, 3.31 12.15, 3.31 12.15 M3.31 12.15 C3.31 12.15, 3.31 12.15, 3.31 12.15 M4.14 19.37 C6.01 13.62, 8.83 10.11, 12.78 7.95 M3.31 18.42 C5.47 16.56, 7.51 13.46, 10.97 8.52 M3.06 23.73 C6.84 16.19, 11.7 12.4, 19.79 6.92 M4.39 23.11 C8.4 16.7, 14.84 11.41, 19.29 5.22 M9.1 23.91 C16.03 18.48, 21.85 8.7, 25.22 3.45 M8.14 25.55 C12.42 20.33, 15.61 15.75, 27.09 4.99 M9.89 28.23 C21.12 18.54, 26.25 9.08, 32.46 2.73 M12.24 27.24 C18.87 18.43, 26.85 9.4, 33.34 2.78 M13.36 28.39 C20.29 21.04, 25.24 15.83, 39.09 1.05 M14.93 29.07 C22.38 21.7, 27.87 13.25, 37.14 2.68 M18.97 29.72 C27.15 19.52, 37.59 11.41, 42.79 3.52 M17.86 30.98 C28.44 21.1, 36.1 12.34, 44.73 1.87 M22.91 33.91 C28.13 25.97, 35.55 18.92, 48.59 1.14 M21.52 32.51 C31.27 23.25, 40.39 12.71, 48.84 1.57 M28.05 33.01 C35.07 27.06, 38.08 20.25, 54.76 0.77 M27.23 34.7 C33.95 25.34, 41.93 14.65, 54.8 0.86 M31.85 33.71 C39.77 24.73, 47.82 17.98, 61.44 0.66 M31.19 34.23 C42.38 23.24, 52.47 10.86, 59.19 2.08 M35.65 36.04 C44.35 23.82, 53.82 13.51, 65.83 2.89 M35.9 34.04 C45.86 24.11, 53.89 16.34, 65.22 1.2 M42.52 35.42 C48.61 25.61, 56.99 18.7, 70.13 1.67 M40.17 35.2 C48.4 26.96, 55.11 19.73, 70.79 1.94 M44.5 35.13 C58.12 22.01, 66.69 12.32, 76.85 0.36 M46.46 35.26 C54.08 26.61, 63.58 15.6, 75.87 2.65 M51.29 38.32 C59.96 23.13, 71.81 10.8, 81.97 1.63 M49.64 38.19 C57.54 29.28, 65.63 20.48, 79.85 2.45 M56.05 37.49 C62.47 26.91, 69.81 18.55, 85.56 1.32 M55.01 37.66 C67.19 23.98, 79.5 11.72, 86.27 2.8 M59.35 38.77 C68.19 27.17, 77.04 17.82, 89.7 2.35 M60.33 37.26 C66.88 28.84, 75.11 20.86, 90.86 3.45 M66.51 37.16 C79.37 26.32, 91.22 11.3, 96.4 4.77 M65.26 37.57 C74.96 27.11, 83.2 17.68, 95.53 2.26 M71.36 39.78 C81.27 26.52, 93.91 13.06, 101.53 4.26 M71.29 37.3 C78.68 27.63, 85.81 19.02, 100.55 3.62 M76.29 38.6 C83.78 28.64, 88.36 22.02, 105.37 4.87 M75.89 37.92 C85.55 26.93, 94.98 15.36, 105.09 5.02 M83.43 38.98 C90.35 26.8, 99.22 16.63, 107.84 7.96 M81.83 38.02 C86.6 29.96, 93.39 24.38, 108.66 5.95 M87.22 34.62 C96.57 25.49, 102.71 18.05, 111.16 6.09 M87.84 36.18 C94.5 29.21, 100.69 21.72, 113.88 7.55 M95.75 35.36 C100.45 28.86, 105.3 24.76, 115.06 11.38 M96.14 34.65 C104.12 24.78, 111.9 16.8, 115.79 8.97 M101.93 31.16 C107.97 28.09, 113.35 18.36, 119.98 12.08 M101.65 33.16 C108.37 24.9, 115.5 18.45, 121.19 11.71 M109.39 30.08 C113.91 28.6, 116.16 21.98, 123.11 13.32 M108.12 30.81 C111.51 26.82, 115.06 23.65, 124.83 14.3 M114.13 29.49 C119.25 24.4, 123.68 19.31, 126.28 16.33 M115.53 29.19 C120.48 24.23, 124.62 19.45, 127.2 15.51" stroke="#40c057" stroke-width="0.5" fill="none"></path><path d="M58.22 0.03 C69.19 -0.49, 84.37 -0.15, 94.65 1.5 C104.94 3.16, 114.09 7.07, 119.93 9.96 C125.78 12.86, 130.03 15.92, 129.71 18.88 C129.38 21.84, 124.96 25.03, 117.98 27.73 C111 30.42, 98.82 33.74, 87.84 35.06 C76.86 36.37, 63.35 36.28, 52.08 35.6 C40.81 34.93, 28.46 33.26, 20.21 31 C11.97 28.74, 5.45 25.15, 2.63 22.02 C-0.2 18.89, -0.58 15.36, 3.26 12.21 C7.09 9.07, 15.88 5.27, 25.64 3.15 C35.39 1.03, 55.39 -0.13, 61.8 -0.5 C68.2 -0.87, 64 0.42, 64.09 0.92 M93.92 1.06 C104.34 2.47, 114.28 6.73, 119.94 9.8 C125.61 12.86, 128.31 16.59, 127.91 19.46 C127.51 22.34, 123.83 24.69, 117.56 27.03 C111.28 29.38, 100.82 32.07, 90.25 33.54 C79.67 35.01, 65.59 36.42, 54.09 35.86 C42.6 35.3, 30.03 32.16, 21.31 30.16 C12.58 28.16, 4.83 27.06, 1.74 23.87 C-1.35 20.67, -1.04 14.29, 2.77 11.01 C6.57 7.73, 15.46 5.96, 24.54 4.19 C33.62 2.43, 45.95 0.94, 57.24 0.41 C68.52 -0.12, 86.45 0.79, 92.27 1.01 C98.08 1.24, 92.49 1.29, 92.14 1.75" stroke="#000000" stroke-width="1" fill="none"></path></g><g stroke-linecap="round" transform="translate(568.3990905476065 306.2380359029785) rotate(0 64.66803997576 17.744279261641466)"><path d="M5.78 10.33 C5.78 10.33, 5.78 10.33, 5.78 10.33 M5.78 10.33 C5.78 10.33, 5.78 10.33, 5.78 10.33 M1.6 21 C6.61 17.15, 7.59 14.52, 12.84 7.31 M2.35 21.05 C5.04 16.19, 8.67 11.71, 12.46 8.1 M6.26 21.54 C8.4 19.92, 11.28 15.39, 19.74 7.79 M4.32 23.17 C10.62 17.13, 14.16 12.39, 19.1 6.19 M8 26.27 C13.85 19.01, 15.51 13.39, 27.43 5.85 M9.93 24.63 C13.42 19.86, 18.41 13.53, 27.87 3.44 M11.83 26.15 C20 17.66, 27.27 8.9, 32.39 3.35 M12.08 26.59 C19.1 18.32, 26.21 10.82, 32.5 4.27 M16.03 28.05 C23.56 20.13, 33.18 12.27, 40.84 0.96 M16.07 28.14 C24.56 19.69, 34.24 9.41, 38.97 2.69 M20.74 30.2 C26.94 24.75, 33.99 14.71, 44.82 3.2 M18.49 31.63 C29.05 19.43, 39.59 8.05, 45.6 1.31 M25.13 32.43 C31.39 21.89, 38.86 13.67, 50.03 1.74 M24.52 30.75 C29.57 25.09, 34.47 19.28, 51.03 0.51 M28.12 32.73 C34.66 24.54, 40.62 14.72, 56.42 -0.67 M28.78 33 C36.56 23.89, 43.77 15.45, 57.01 0.3 M34.19 32.17 C39.09 28.65, 46.35 20.47, 60.81 -0.86 M33.2 34.46 C44.36 22.47, 55.53 9.37, 63.03 -0.55 M39.3 33.44 C44.13 27.96, 50.48 16.67, 69.41 -0.35 M37.19 34.26 C48.57 22.29, 60.67 9.33, 67.04 0.34 M42.23 33.88 C50.27 29.94, 54.14 22.08, 71.12 1.99 M42.95 35.36 C49.33 27.69, 56.61 17.79, 72.87 0.12 M45.72 35.67 C54.81 24.45, 64.52 15.14, 76.09 -0.85 M46.88 36.77 C53.96 28.34, 58.92 22.45, 76.87 1.81 M51.76 38.84 C63.1 24.31, 74.35 9.35, 80.32 3.48 M50.9 36.33 C59.12 28.86, 64.15 21.6, 82.71 1.69 M58.21 36.83 C67.07 25.54, 79.58 12.61, 85.56 2.45 M57.23 36.18 C62.66 28.9, 69.9 22.78, 87.3 2.9 M63.36 35.92 C69.4 29.07, 75.05 20.92, 92.57 1.91 M63.08 36.07 C71.78 25.71, 80.17 17.01, 92.3 2.62 M67.14 37.51 C73.97 29.49, 84.17 19.44, 97.69 1.05 M67.96 35.49 C73.87 29.83, 80.25 21.79, 96.71 2.87 M71.77 34.12 C77.96 29.76, 86.13 21.82, 101.51 4.48 M74.49 35.59 C81.3 27.26, 90.55 16.58, 101.71 4.47 M77.64 37.15 C89.14 27.45, 95.38 17.1, 106.59 7.12 M78.37 34.74 C86.18 27.33, 94.07 18.58, 104.52 5.82 M84.53 35.58 C95.49 25.21, 103.19 13.04, 110.23 6.77 M85.74 35.22 C90.45 26.62, 96.81 21.06, 109.26 7.35 M90.28 33.81 C98.28 25.84, 109.52 13.05, 113.66 6.37 M92 34.79 C98.29 26.6, 103.86 17.51, 114.28 7.61 M96.62 33.06 C104.54 25.34, 110.09 19.98, 117.95 10.22 M97.7 32.1 C104.58 24.79, 109.67 17.7, 118.2 9.42 M101.79 31.45 C109.11 23.21, 115.56 15.92, 123.89 11.71 M103.37 32.55 C109.23 25.31, 115.18 17.98, 121.91 11.45 M107.81 32.44 C114.3 28.24, 119.37 22.85, 124 14.15 M108.84 30.67 C116.16 25.04, 120.88 17.73, 124.71 12.91 M115.68 29.47 C116.28 28.06, 120.57 24.43, 125.87 18.46 M116.51 30.48 C117.7 27.96, 121.61 24.33, 127.58 17.31" stroke="#40c057" stroke-width="0.5" fill="none"></path><path d="M61.47 -0.8 C72.54 -1.09, 86.94 0.64, 97.05 2.55 C107.17 4.46, 116.85 7.92, 122.17 10.67 C127.49 13.42, 130.06 15.87, 128.96 19.04 C127.86 22.22, 122.95 27.16, 115.57 29.73 C108.19 32.29, 95.6 33.45, 84.68 34.43 C73.76 35.41, 61.27 36.49, 50.04 35.61 C38.81 34.72, 25.6 31.65, 17.31 29.14 C9.02 26.63, 2.25 23.63, 0.3 20.53 C-1.64 17.42, 1.19 13.21, 5.64 10.49 C10.1 7.77, 16.48 5.87, 27.01 4.2 C37.53 2.52, 60.58 0.97, 68.78 0.44 C76.98 -0.09, 76.06 0.8, 76.21 1.03 M69.28 0.52 C80.69 0.44, 94.42 1.17, 103.79 2.75 C113.15 4.34, 121.66 7.16, 125.46 10.05 C129.26 12.93, 129.09 16.72, 126.58 20.09 C124.07 23.45, 118.24 27.7, 110.42 30.24 C102.6 32.78, 91.25 34.64, 79.66 35.34 C68.06 36.03, 51.9 35.63, 40.85 34.39 C29.8 33.15, 20.35 30.7, 13.36 27.89 C6.37 25.08, -0.33 20.77, -1.1 17.53 C-1.86 14.29, 3.14 11.02, 8.79 8.43 C14.44 5.85, 22.56 3.29, 32.8 2.01 C43.04 0.74, 64.3 0.9, 70.21 0.79 C76.12 0.69, 68.67 1.01, 68.26 1.39" stroke="#000000" stroke-width="1" fill="none"></path></g><g stroke-linecap="round"><g transform="translate(566.1877251814575 322.19368053076914) rotate(0 -1.1504717352480611 -33.714912031448144)"><path d="M-0.62 0.17 C-1.28 -11.15, -3.07 -56.48, -3.55 -67.6 M1.25 -0.78 C0.91 -12.02, -1.06 -55.86, -1.47 -66.61" stroke="#000000" stroke-width="1" fill="none"></path></g></g><mask></mask><g stroke-linecap="round"><g transform="translate(696.312439766828 322.4050458969184) rotate(0 -0.7883175998701972 -33.77661138907696)"><path d="M1.13 0.97 C0.82 -10.41, -1.39 -56.95, -2.24 -68.53 M0.27 0.44 C-0.1 -10.8, -2.41 -56.14, -2.71 -67.49" stroke="#000000" stroke-width="1" fill="none"></path></g></g><mask></mask><g transform="translate(573.9430875674979 278.27339031494967) rotate(0 57.12994384765625 12.5)"><text x="57.12994384765625" y="0" font-family="Virgil, Segoe UI Emoji" font-size="20px" fill="#000000" text-anchor="middle" style="white-space: pre;" direction="ltr" dominant-baseline="text-before-edge">PostgreSQL</text></g><g stroke-linecap="round" transform="translate(840.6706852818118 734.2733903149497) rotate(0 64 42.5)"><path d="M3.19 8.07 C3.19 8.07, 3.19 8.07, 3.19 8.07 M3.19 8.07 C3.19 8.07, 3.19 8.07, 3.19 8.07 M0.96 16.73 C4.33 13.6, 7.57 8.95, 10.8 5.41 M0.96 16.73 C4.72 13.51, 8.16 9.28, 10.8 5.41 M0.7 23.13 C5.34 15.13, 14.5 7.84, 17.75 3.51 M0.7 23.13 C6.09 16.8, 10.53 12.09, 17.75 3.51 M1.09 28.77 C4.57 23.74, 11.84 16.8, 24.05 2.36 M1.09 28.77 C8.61 20.35, 14.74 13.68, 24.05 2.36 M0.83 35.17 C10.9 24.05, 19.55 13.75, 29.04 2.72 M0.83 35.17 C7.75 28.27, 13.98 20.28, 29.04 2.72 M1.22 40.81 C9.65 33.45, 15.42 25.35, 34.68 2.32 M1.22 40.81 C7.18 33.4, 15.29 25.63, 34.68 2.32 M0.96 47.21 C15.24 31.39, 28.83 15.51, 39.67 2.68 M0.96 47.21 C10.38 34.65, 20.88 22.78, 39.67 2.68 M0.7 53.61 C15.17 36.13, 33.36 18.54, 45.31 2.29 M0.7 53.61 C14.26 38.7, 26.35 23.03, 45.31 2.29 M1.1 59.25 C14.11 45.65, 27.66 28.34, 50.3 2.65 M1.1 59.25 C13.37 45.27, 26.82 29.37, 50.3 2.65 M0.83 65.65 C16.32 47.58, 29.8 33.25, 55.94 2.26 M0.83 65.65 C23.31 39.74, 43.86 15.91, 55.94 2.26 M1.89 70.54 C23.5 45.75, 41.79 22.94, 60.93 2.62 M1.89 70.54 C23.48 45.62, 46.33 18.83, 60.93 2.62 M3.59 74.67 C20.25 56.17, 35.59 35.87, 66.57 2.22 M3.59 74.67 C19.26 56.96, 34.61 39.57, 66.57 2.22 M5.3 78.81 C23.59 58.85, 40.26 35.77, 71.56 2.58 M5.3 78.81 C19.68 62.74, 33.41 44.99, 71.56 2.58 M8.32 81.43 C30.88 55.11, 54.19 31.25, 77.2 2.19 M8.32 81.43 C33.24 53.84, 57.47 25.42, 77.2 2.19 M11.34 84.06 C32.71 56.47, 54.57 30.22, 82.19 2.55 M11.34 84.06 C28.22 64.77, 44.28 44.08, 82.19 2.55 M15.67 85.17 C40.72 57.74, 66.79 28.67, 87.83 2.15 M15.67 85.17 C44.01 52.6, 72.83 19.45, 87.83 2.15 M20 86.29 C43.11 59.59, 71.3 29.7, 92.82 2.51 M20 86.29 C46.6 56.18, 73.5 24.35, 92.82 2.51 M24.33 87.4 C50.32 58.18, 70.85 32.91, 98.46 2.12 M24.33 87.4 C51.21 54.36, 80.33 22.92, 98.46 2.12 M29.32 87.76 C47.59 69.26, 62.28 49.19, 103.45 2.48 M29.32 87.76 C57.01 55.7, 84.68 23.78, 103.45 2.48 M34.96 87.37 C61.31 60, 85.89 28.25, 109.09 2.08 M34.96 87.37 C55.19 63.04, 75.98 40.77, 109.09 2.08 M39.95 87.73 C53.83 68.74, 72.83 50.96, 113.43 3.2 M39.95 87.73 C58.35 66.26, 78.33 43.89, 113.43 3.2 M45.59 87.33 C75.36 54.36, 102.06 21.05, 117.76 4.31 M45.59 87.33 C59.71 69.66, 74.35 54.02, 117.76 4.31 M50.58 87.69 C77.77 58.65, 103.81 25.6, 122.09 5.43 M50.58 87.69 C73.72 62.23, 95.88 35.84, 122.09 5.43 M56.22 87.3 C80.88 59.31, 107.16 30.71, 125.11 8.05 M56.22 87.3 C72.74 67.59, 89.34 49.55, 125.11 8.05 M61.21 87.66 C86.51 60.7, 111.39 33.06, 128.12 10.68 M61.21 87.66 C78.87 65.63, 97.81 46.26, 128.12 10.68 M66.85 87.26 C80.49 71.84, 92.54 57.16, 127.86 17.07 M66.85 87.26 C79.65 70.81, 92.71 57.14, 127.86 17.07 M71.84 87.62 C84.03 74.23, 97.22 57.82, 128.26 22.72 M71.84 87.62 C89.28 68.72, 105.15 48.32, 128.26 22.72 M77.48 87.23 C90.11 74.64, 100.36 61.54, 128 29.11 M77.48 87.23 C93.73 68.62, 109.36 51.04, 128 29.11 M82.47 87.59 C91.51 77.92, 98.75 67.11, 128.39 34.76 M82.47 87.59 C92.36 76.8, 102.13 63.96, 128.39 34.76 M88.11 87.19 C102.51 69.87, 115.83 53.91, 128.13 41.16 M88.11 87.19 C98.82 74.66, 108.76 61.58, 128.13 41.16 M93.1 87.55 C105.93 74.55, 119.37 57.17, 128.52 46.8 M93.1 87.55 C106.11 72.85, 117.77 59.44, 128.52 46.8 M98.08 87.91 C105.93 75.52, 117.05 63.93, 128.26 53.2 M98.08 87.91 C108.3 74.64, 120 63.02, 128.26 53.2 M103.73 87.52 C113.38 79.56, 121.6 68.64, 128.66 58.84 M103.73 87.52 C112.92 75.81, 122.8 65.48, 128.66 58.84 M109.37 87.12 C114.65 81.03, 116.9 76.64, 129.05 64.48 M109.37 87.12 C115.1 82.36, 119.51 75.7, 129.05 64.48 M115.67 85.97 C119.85 82.08, 124.28 76.22, 126.82 73.14 M115.67 85.97 C120.01 81.57, 123.3 77.31, 126.82 73.14" stroke="#40c057" stroke-width="0.5" fill="none"></path><path d="M21.25 0 M21.25 0 C53.24 1.76, 89.19 -0.8, 106.75 0 M21.25 0 C46.43 -0.3, 72.77 0.36, 106.75 0 M106.75 0 C119.94 0.69, 129.24 6.95, 128 21.25 M106.75 0 C121.76 1.25, 126.2 7.54, 128 21.25 M128 21.25 C126.77 34.75, 128.15 51.24, 128 63.75 M128 21.25 C128.96 34.66, 128.22 48.2, 128 63.75 M128 63.75 C129.17 79.03, 121.27 86.7, 106.75 85 M128 63.75 C128.73 78.03, 120.47 86.68, 106.75 85 M106.75 85 C74.69 83.33, 39.82 83.1, 21.25 85 M106.75 85 C87.03 85.48, 69.56 85.31, 21.25 85 M21.25 85 C8.45 86.04, 1.07 78.35, 0 63.75 M21.25 85 C8.31 84.93, -1.38 78.72, 0 63.75 M0 63.75 C1.51 50.04, 0.84 37.56, 0 21.25 M0 63.75 C0.42 52.67, -0.89 40.36, 0 21.25 M0 21.25 C1.34 8.73, 5.49 -0.75, 21.25 0 M0 21.25 C0.86 8.74, 7.95 0.23, 21.25 0" stroke="transparent" stroke-width="1" fill="none"></path></g><g stroke-linecap="round" transform="translate(837.0331866460549 725.2733903149497) rotate(0 64.66803997576005 17.744279261641452)"><path d="M6.36 10.83 C6.36 10.83, 6.36 10.83, 6.36 10.83 M6.36 10.83 C6.36 10.83, 6.36 10.83, 6.36 10.83 M0.75 20.27 C4.52 15.94, 8.63 14.59, 13.35 7.38 M2.5 21.74 C5.19 18.23, 7.99 15.62, 13.26 8.07 M5.56 25.18 C10.39 17.94, 13.16 14.03, 20.26 4.41 M5.53 24.39 C11.32 17.41, 17.07 9.96, 21.63 7.21 M7.59 25.54 C15.44 20.33, 21.46 13.21, 29.78 2.83 M8.73 25.63 C14.02 19.77, 20.39 11.92, 27.48 3.72 M11.37 26.86 C17.12 22.79, 22.76 16.59, 31.26 7.16 M12.99 28.61 C18.45 21.67, 22.57 14.67, 32.65 6.26 M14.9 30.4 C23.79 22.26, 32.17 11.43, 40.21 5.39 M17.15 30.02 C24.59 20.9, 32.07 12.72, 39.42 4.21 M19.35 32.56 C25.87 25.81, 32.15 17.46, 42.46 4.84 M21.02 31.57 C27.13 24.96, 32.86 16, 43.72 3.66 M25.76 30.59 C30.63 25.33, 40.56 16.44, 51.86 2.79 M25.08 31.65 C33.59 22.28, 41.55 14.38, 49.92 1.87 M28.95 30.65 C37.4 21.27, 49.05 8.52, 54.44 1.3 M29.56 33.29 C38.3 22.88, 47.61 11.93, 56.01 2.08 M36.17 34.71 C44.19 21.89, 53.26 10.66, 64.18 0.62 M34 33.05 C43.06 22.93, 49.96 15.7, 62.48 0.87 M40.38 33.95 C49.65 25.37, 57.05 11.12, 68.49 0.57 M39.74 34.3 C45.26 26.69, 51.34 20.9, 68.8 1.44 M43.53 34.81 C52.5 24.06, 60.54 14.58, 74.69 -0.6 M44.15 35.28 C55.12 22.86, 66.41 8.42, 73.03 0.43 M48.55 37.46 C55.85 26.08, 65.42 18.19, 79.35 2.65 M47.77 35.43 C56.41 27.57, 62.73 17.53, 78.21 2.72 M51.26 37.6 C61.14 26.25, 67.81 15.63, 84.26 1.05 M53.23 37.17 C62.44 24.65, 73.65 13.56, 83.33 3.25 M57.72 35.38 C69.51 25.53, 78.14 14.31, 87.72 1.66 M57.66 36.76 C63.77 30.17, 70.51 22.27, 87.75 2.12 M62.17 35.49 C74.73 23.58, 82.26 15.72, 93.83 4.2 M63.73 36.33 C73.1 26.62, 81.32 16.49, 91.54 2.85 M69.62 38.07 C79.99 23.68, 89.37 12.71, 97.77 5.96 M69.26 36.69 C76.8 27.56, 82.15 20.47, 95.8 5.2 M73.85 35.32 C84.7 26.63, 90.95 15.89, 103.74 5.41 M74.32 35.91 C84.46 23.2, 94.92 12.2, 101.68 4.75 M78.02 36.62 C88.61 23.88, 99.86 14.68, 108.34 5.84 M78.88 36.38 C87.36 28.11, 94.02 19.63, 106.82 4.48 M86.62 38.39 C92.05 25.78, 99.66 18.78, 111.1 5.71 M83.8 36.6 C91.76 28.18, 99.74 18.81, 110.92 7.04 M91.41 36.26 C100.48 26.73, 105.19 16.18, 114.43 9.02 M91.92 35.27 C98.66 26.39, 106.6 18.41, 114.81 9.07 M98.12 36.91 C103.42 25.79, 113.2 16.67, 119.68 7.75 M95.72 35.09 C101.87 29.18, 107.09 24.15, 119.5 9.55 M103.66 33.94 C111.06 24.96, 119.04 16.66, 124.33 10.16 M103.63 34.58 C107.84 27.73, 114.79 21.82, 122.5 10.08 M109.45 33.28 C116.29 26.02, 122.77 20.7, 127.36 13.69 M108.47 33.37 C113.74 26.24, 118.29 22.67, 126.19 11.68 M114.73 33.54 C119.54 29.09, 121.07 24.31, 127.83 16.37 M115.72 30.57 C120.42 26.47, 125.04 20.04, 129.51 16.16" stroke="#40c057" stroke-width="0.5" fill="none"></path><path d="M65.72 -0.96 C76.86 -1.07, 91.33 1.17, 101.2 3.13 C111.07 5.09, 120.38 7.98, 124.93 10.81 C129.48 13.65, 130.51 16.97, 128.52 20.15 C126.52 23.32, 120.71 27.49, 112.97 29.86 C105.23 32.24, 93.27 33.56, 82.07 34.4 C70.86 35.24, 56.76 35.67, 45.72 34.9 C34.68 34.13, 23.19 32.13, 15.8 29.78 C8.41 27.43, 2.9 24.01, 1.37 20.8 C-0.16 17.59, 1.8 13.41, 6.61 10.54 C11.43 7.67, 19.07 5.38, 30.26 3.56 C41.46 1.75, 64.9 0.21, 73.78 -0.34 C82.65 -0.89, 83.59 0.01, 83.51 0.26 M63.24 0.02 C74.01 0.02, 87.47 1.84, 97.29 3.3 C107.11 4.75, 116.78 5.94, 122.16 8.74 C127.54 11.55, 130.83 16.74, 129.57 20.11 C128.3 23.49, 121.95 26.48, 114.55 28.99 C107.15 31.5, 96.07 34.34, 85.18 35.19 C74.28 36.04, 60.55 34.86, 49.2 34.1 C37.85 33.34, 25.05 33.04, 17.1 30.63 C9.15 28.23, 3.49 22.95, 1.5 19.67 C-0.49 16.39, 0.67 13.8, 5.14 10.94 C9.62 8.08, 18.62 4.47, 28.37 2.51 C38.12 0.56, 57.91 -0.2, 63.65 -0.79 C69.4 -1.37, 62.95 -1.63, 62.86 -0.99" stroke="#000000" stroke-width="1" fill="none"></path></g><g stroke-linecap="round" transform="translate(842.3990905476069 793.2380359029785) rotate(0 64.66803997576005 17.744279261641452)"><path d="M1.42 14.49 C1.42 14.49, 1.42 14.49, 1.42 14.49 M1.42 14.49 C1.42 14.49, 1.42 14.49, 1.42 14.49 M1.58 18.03 C5.71 16.08, 9.17 10.67, 10.7 9.04 M2.71 19.13 C6.02 15.76, 8.46 11.73, 11.38 8.2 M4 23.23 C9.5 16.07, 16.14 7.02, 22.4 3.5 M3.01 24.84 C8.14 18.04, 14.71 13.08, 20.59 5.21 M8.83 26.2 C16.19 17.75, 23.79 7.92, 26.27 3.07 M7.14 25.65 C14.7 16.58, 21.3 8.94, 26.12 4.17 M10.39 28.51 C17.01 21.47, 23.83 13.98, 32.02 2.48 M11.96 27.16 C18.28 17.41, 27.29 10.16, 33.04 3.86 M15.78 29.68 C23.31 19.98, 31.39 13.66, 39.3 4.16 M16.48 28.22 C20.41 23.82, 25.82 17.54, 37.51 2.37 M19.23 31.08 C25.08 23.25, 27.89 19.59, 43.06 1.5 M19.82 31.2 C26.26 21.14, 33.06 13.63, 43.57 1.82 M21.3 33.99 C33.6 22.45, 43.14 10.87, 50.29 0.42 M23.47 32.03 C34.58 20.6, 44.27 6.46, 50.83 1.96 M24.9 33.99 C36.41 21.84, 44.33 11.34, 55.98 1.81 M26.35 34.51 C33.61 25.81, 40.69 17.59, 55.58 2.5 M31.91 34.11 C37.27 26.66, 45.68 19.39, 59.64 2.08 M32.47 33.39 C43.13 22.12, 54.5 8.31, 60.36 1.65 M37.15 37.44 C41.67 26.27, 50.04 19.55, 64.01 1.1 M36.04 34.92 C41.77 29.24, 48.84 22.08, 65.68 1.9 M41.61 35 C52.45 22.33, 65.91 7.52, 72.38 3.05 M41.69 36.66 C51.69 23.42, 61.47 11.41, 70.44 0.92 M45.81 35.1 C54.67 27.71, 63 19.12, 75.12 3.26 M46.93 36.8 C55.53 24.42, 67.54 13.23, 75.55 2.27 M51.08 35.77 C57.92 25.12, 70 15.6, 81.69 2.66 M50.45 36.46 C60.33 26.59, 70.29 15.91, 80.96 1.8 M56.82 37.57 C62.9 29.58, 69.54 20.83, 84.61 1.59 M54.52 38.54 C63.16 28.62, 71.8 18.61, 86.69 1.39 M61.79 36.01 C67.66 30.49, 77.87 20.97, 91.43 2.21 M61.25 37.98 C67.93 29.59, 74.35 20.56, 91.89 3.34 M67.44 36.63 C78.66 23.16, 90.67 11.72, 95.27 3.35 M67.06 36.83 C74.73 26.86, 83.65 16.93, 96.43 3.09 M73.18 37.69 C77.18 29.78, 85.79 24.27, 102.22 3.67 M70.98 36.88 C82.56 24.73, 94.13 11.53, 101.37 4.37 M76.36 36 C85.34 29.66, 94.4 20.1, 104.56 5.99 M77.65 37.37 C85.09 28.26, 93.92 17.54, 105.21 5.47 M82.18 35.03 C87.04 30.61, 95.28 21.3, 109.4 6.95 M82.4 37.15 C91.82 26.42, 101.91 15.67, 109.66 6.78 M90.35 36.34 C92.59 28.46, 99.5 24, 114 7.62 M88.86 35.91 C98.99 25.15, 108.55 13.98, 113.94 7.4 M94.38 34.14 C103.19 25.68, 108.77 17.82, 117.01 8.13 M95.37 34.8 C104.09 25.99, 112.1 16.31, 119.15 7.68 M102.86 32.23 C108.3 26.76, 112.36 21.8, 121.19 11.56 M101.33 33.2 C106.88 28.58, 109.82 22.31, 122.01 11.05 M110.11 31.34 C115.91 26.72, 119.91 20.16, 123.9 14.28 M108.88 30.1 C114.81 24.99, 120.05 16.77, 124.42 12.29 M116.09 30.8 C118.7 25.04, 124.03 18.76, 129.01 16.71 M115.91 29.75 C119.87 24.28, 125.09 19.24, 128.51 16.3" stroke="#40c057" stroke-width="0.5" fill="none"></path><path d="M54.07 0.42 C64.99 -0.17, 79.98 0.39, 90.63 1.53 C101.28 2.67, 111.47 4.6, 117.95 7.25 C124.42 9.91, 129.07 14.26, 129.48 17.45 C129.89 20.64, 126.38 23.67, 120.42 26.4 C114.46 29.14, 104.1 32.26, 93.74 33.86 C83.37 35.47, 69.73 36.28, 58.23 36.03 C46.74 35.78, 33.87 34.4, 24.75 32.35 C15.64 30.3, 7.37 26.76, 3.52 23.73 C-0.33 20.7, -1.1 17.46, 1.67 14.2 C4.44 10.94, 9.83 6.67, 20.13 4.17 C30.44 1.67, 54.97 -0.03, 63.51 -0.79 C72.04 -1.55, 71.47 -0.87, 71.34 -0.37 M38.26 2.12 C47.96 0.49, 63.03 -1.46, 74.81 -1 C86.6 -0.54, 100.21 2.54, 108.94 4.89 C117.67 7.25, 124.17 9.99, 127.19 13.12 C130.21 16.26, 130.43 20.8, 127.07 23.72 C123.72 26.64, 116.14 28.57, 107.05 30.67 C97.96 32.77, 84.22 35.99, 72.53 36.33 C60.84 36.66, 47.46 34.21, 36.92 32.68 C26.38 31.15, 15.47 29.79, 9.3 27.14 C3.14 24.48, -0.44 20.12, -0.05 16.76 C0.35 13.4, 5.17 9.76, 11.67 6.98 C18.18 4.2, 34.33 0.73, 38.99 0.07 C43.65 -0.58, 39.38 2.33, 39.64 3.05" stroke="#000000" stroke-width="1" fill="none"></path></g><g stroke-linecap="round"><g transform="translate(840.1877251814578 809.1936805307691) rotate(0 -0.977290201555661 -33.82346030688069)"><path d="M-0.42 -0.1 C-1.01 -11.13, -3.22 -54.94, -3.52 -65.82 M1.56 -1.19 C1.32 -12.59, -0.67 -56.56, -1.41 -67.55" stroke="#000000" stroke-width="1" fill="none"></path></g></g><mask></mask><g stroke-linecap="round"><g transform="translate(970.3124397668282 809.4050458969182) rotate(0 -1.6946061906320438 -33.57958795016788)"><path d="M-1.15 0.75 C-1.58 -10.3, -2.68 -55.02, -2.98 -66.4 M0.45 0.1 C-0.09 -11.25, -3.16 -56.85, -3.83 -67.91" stroke="#000000" stroke-width="1" fill="none"></path></g></g><mask></mask><g transform="translate(879.5130567447443 765.2733903149497) rotate(0 25.559974670410156 12.5)"><text x="25.559974670410156" y="0" font-family="Virgil, Segoe UI Emoji" font-size="20px" fill="#000000" text-anchor="middle" style="white-space: pre;" direction="ltr" dominant-baseline="text-before-edge">Redis</text></g><g stroke-linecap="round" transform="translate(239.18420970028774 10) rotate(0 110.00003051757812 57.99999237060547)"><path d="M7.06 7.46 C7.06 7.46, 7.06 7.46, 7.06 7.46 M7.06 7.46 C7.06 7.46, 7.06 7.46, 7.06 7.46 M6.8 13.86 C8.1 11.72, 12 8.31, 16.64 2.54 M6.8 13.86 C9.86 9.06, 13.56 5.82, 16.64 2.54 M3.26 24.03 C8.11 17.55, 10.39 13.52, 22.94 1.39 M3.26 24.03 C9.97 17.28, 15.66 9.47, 22.94 1.39 M3 30.43 C13.65 20.69, 19.52 10.48, 29.24 0.24 M3 30.43 C13.86 18.43, 23.55 7.28, 29.24 0.24 M2.74 36.83 C12.26 29.11, 19.8 21.01, 34.88 -0.15 M2.74 36.83 C12.37 26.66, 21.01 16.56, 34.88 -0.15 M3.13 42.47 C14.42 29.91, 27.79 15.38, 39.87 0.21 M3.13 42.47 C11.18 32.76, 19.89 23.22, 39.87 0.21 M2.87 48.87 C18.56 31.92, 32.51 14.02, 44.86 0.57 M2.87 48.87 C16.77 33.64, 28.53 18.34, 44.86 0.57 M3.26 54.51 C23.33 32.96, 41.86 12.07, 50.5 0.17 M3.26 54.51 C13.27 43.86, 21.83 31.91, 50.5 0.17 M3 60.91 C23.46 37.69, 44.05 14.51, 55.49 0.53 M3 60.91 C19.29 41.79, 36.2 22.48, 55.49 0.53 M2.74 67.31 C17.59 52.56, 29.16 35.86, 61.13 0.14 M2.74 67.31 C23.65 44.15, 44.21 19.28, 61.13 0.14 M3.14 72.95 C21.34 51.28, 39.33 29.97, 66.12 0.5 M3.14 72.95 C17.25 56.51, 30.83 41.67, 66.12 0.5 M2.88 79.35 C31.41 47.96, 56.37 17.73, 71.76 0.11 M2.88 79.35 C17.03 63.3, 32.07 46.53, 71.76 0.11 M3.27 84.99 C20.04 65.76, 37.2 46.02, 76.75 0.47 M3.27 84.99 C25.17 59.7, 48.67 33.07, 76.75 0.47 M1.04 93.65 C15.84 77.1, 33.49 55.02, 82.39 0.07 M1.04 93.65 C31.05 58.26, 62.69 24.6, 82.39 0.07 M2.09 98.54 C24.37 71.18, 49.43 49.03, 87.38 0.43 M2.09 98.54 C25.5 72.86, 49.14 45.87, 87.38 0.43 M3.8 102.68 C33.17 65.52, 64.37 33.31, 93.02 0.04 M3.8 102.68 C37.42 63.41, 72.04 24.71, 93.02 0.04 M6.16 106.06 C28.23 79.86, 53.05 54.71, 98.01 0.4 M6.16 106.06 C25.31 83.58, 44.01 62.21, 98.01 0.4 M8.52 109.43 C36.35 75.94, 66.87 45.07, 103.65 0 M8.52 109.43 C32.25 81.04, 57.29 54.1, 103.65 0 M11.54 112.06 C50.75 71.47, 84.38 27.31, 108.64 0.36 M11.54 112.06 C32.09 87.27, 52.75 63.82, 108.64 0.36 M15.87 113.17 C37.19 89.56, 55.47 67.66, 114.28 -0.03 M15.87 113.17 C44.54 81.24, 72.36 49.34, 114.28 -0.03 M19.55 115.04 C57.76 71.87, 97.33 28.82, 119.27 0.33 M19.55 115.04 C55.22 74.57, 91.33 33.14, 119.27 0.33 M23.22 116.91 C47.72 88.11, 76.33 58.16, 124.91 -0.07 M23.22 116.91 C53.27 83.73, 84.39 48.25, 124.91 -0.07 M28.87 116.52 C66.02 75.54, 104.62 32.84, 129.9 0.29 M28.87 116.52 C64.18 76.82, 98.44 36.7, 129.9 0.29 M34.51 116.12 C66.23 82.55, 95.91 46.19, 135.54 -0.1 M34.51 116.12 C75.32 69.46, 115.54 24.82, 135.54 -0.1 M39.5 116.48 C77.44 74.74, 114.04 29.53, 140.53 0.26 M39.5 116.48 C63.19 88.26, 87.16 62.53, 140.53 0.26 M45.14 116.09 C69.51 85.47, 95.9 57.27, 146.17 -0.14 M45.14 116.09 C83.7 72.47, 121.17 27.28, 146.17 -0.14 M50.13 116.45 C72.3 91.85, 97.31 65.22, 151.16 0.22 M50.13 116.45 C81.16 79.57, 113.2 41.95, 151.16 0.22 M55.77 116.05 C81.76 87.12, 107.64 56.71, 156.15 0.58 M55.77 116.05 C90.16 75.21, 124.58 34.81, 156.15 0.58 M60.76 116.41 C85.74 84.55, 114.37 55.86, 161.79 0.19 M60.76 116.41 C86.32 87.56, 113.19 58.1, 161.79 0.19 M66.4 116.02 C99.98 80.34, 131.04 42.78, 166.78 0.55 M66.4 116.02 C97.8 78.82, 129.95 43.2, 166.78 0.55 M71.39 116.38 C108.87 73.02, 150.02 25.84, 172.42 0.16 M71.39 116.38 C105.62 78.65, 137.79 39.32, 172.42 0.16 M77.03 115.99 C107.95 81.04, 135.57 48.3, 177.41 0.52 M77.03 115.99 C110.4 75.11, 146.1 35.58, 177.41 0.52 M82.02 116.35 C109 84.63, 138.28 53.41, 183.05 0.12 M82.02 116.35 C104.48 92.36, 124.19 66.16, 183.05 0.12 M87.66 115.95 C119.93 77.21, 152.76 42.76, 188.04 0.48 M87.66 115.95 C114.01 85.62, 138.98 56.5, 188.04 0.48 M92.65 116.31 C123.92 78.27, 161.3 35.35, 192.37 1.6 M92.65 116.31 C129.11 75.17, 163.42 35.05, 192.37 1.6 M98.29 115.92 C135.9 75.6, 170.91 33.64, 198.01 1.2 M98.29 115.92 C130.03 77.74, 162.53 40.27, 198.01 1.2 M103.28 116.28 C138.53 75.3, 174.12 34.82, 202.34 2.32 M103.28 116.28 C126.89 91.46, 148.73 66.3, 202.34 2.32 M108.92 115.88 C129.84 93.05, 147.91 69, 206.67 3.43 M108.92 115.88 C141.51 77.99, 174.77 41.42, 206.67 3.43 M113.91 116.24 C138.47 88.97, 160.95 64.21, 210.35 5.3 M113.91 116.24 C140.65 87.41, 168.27 55.74, 210.35 5.3 M119.55 115.85 C154.17 76.25, 186.13 39.2, 213.37 7.92 M119.55 115.85 C153.35 75.88, 190.25 34.45, 213.37 7.92 M124.54 116.21 C149.67 88.68, 171.34 57.76, 215.73 11.3 M124.54 116.21 C157.83 77.61, 191.52 39.99, 215.73 11.3 M130.18 115.81 C160.72 81.3, 189.36 47.75, 218.75 13.93 M130.18 115.81 C150.06 93.55, 168.46 73.23, 218.75 13.93 M135.17 116.17 C156.33 88.13, 180.03 61.58, 220.45 18.06 M135.17 116.17 C163.51 80.95, 194.9 46.29, 220.45 18.06 M140.15 116.53 C164.06 84.11, 193.09 55.55, 220.85 23.7 M140.15 116.53 C168.5 85.65, 194.42 55.65, 220.85 23.7 M145.8 116.14 C163.57 96.14, 179.23 78.15, 221.24 29.35 M145.8 116.14 C167.23 92.3, 188.2 68.29, 221.24 29.35 M150.78 116.5 C175.51 88.6, 200.68 58.63, 220.98 35.75 M150.78 116.5 C172.86 91.33, 193.61 66.95, 220.98 35.75 M156.43 116.1 C172.89 95.04, 192.27 74.8, 221.38 41.39 M156.43 116.1 C182.19 88.04, 206.06 57.8, 221.38 41.39 M161.41 116.46 C178.68 92.98, 200.38 72.17, 221.12 47.79 M161.41 116.46 C183.81 89.13, 207.88 61.05, 221.12 47.79 M167.06 116.07 C182.19 96.34, 197.13 80.8, 221.51 53.43 M167.06 116.07 C183.82 96.13, 202.18 76.04, 221.51 53.43 M172.04 116.43 C189.42 99.93, 203 78.99, 221.25 59.83 M172.04 116.43 C189.28 95.77, 208.75 75.15, 221.25 59.83 M177.69 116.04 C193.77 97.88, 205.39 80.79, 221.64 65.47 M177.69 116.04 C192.02 99.69, 206.74 81.2, 221.64 65.47 M182.67 116.4 C190.38 108.26, 200.84 98.27, 221.38 71.87 M182.67 116.4 C193.18 104.23, 205.97 91.19, 221.38 71.87 M188.32 116 C202.05 100.55, 215.23 88.6, 221.12 78.27 M188.32 116 C196.12 106.25, 204.66 98.15, 221.12 78.27 M192.65 117.12 C206.1 103.15, 217.52 90.02, 221.51 83.91 M192.65 117.12 C202.84 105.55, 212.09 95.81, 221.51 83.91 M198.29 116.72 C206.27 104.55, 216.35 94.48, 222.57 88.8 M198.29 116.72 C204.61 108.18, 212.03 100, 222.57 88.8 M204.59 115.57 C210.01 108.98, 218.75 101.76, 221.65 95.95 M204.59 115.57 C209.79 109.96, 215.68 102.99, 221.65 95.95" stroke="#fab005" stroke-width="0.5" fill="none"></path><path d="M29 0 M29 0 C73.77 0.38, 114.49 -0.88, 191 0 M29 0 C79.3 1.01, 127.81 2.38, 191 0 M191 0 C210.83 -1.48, 220.56 8.56, 220 29 M191 0 C210.03 1.81, 218.56 8.35, 220 29 M220 29 C218.75 45.64, 218.35 64.41, 220 87 M220 29 C220.04 43.92, 220.84 58.02, 220 87 M220 87 C219.31 107.74, 211.05 115.6, 191 116 M220 87 C221.6 107.51, 208.67 114.47, 191 116 M191 116 C144.29 116.29, 94.73 118.93, 29 116 M191 116 C151.28 116.45, 113.18 117.66, 29 116 M29 116 C9.12 117.47, 1.56 107.73, 0 87 M29 116 C8.25 117.01, -0.41 107.19, 0 87 M0 87 C-0.58 70.79, 1.71 50.71, 0 29 M0 87 C0.14 69.56, -0.54 52.08, 0 29 M0 29 C1.6 10.21, 7.83 -0.58, 29 0 M0 29 C1.07 9.62, 10.48 2.23, 29 0" stroke="#000000" stroke-width="1" fill="none"></path></g><g transform="translate(315.71426188534633 55.49999237060547) rotate(0 33.46997833251953 12.5)"><text x="33.46997833251953" y="0" font-family="Virgil, Segoe UI Emoji" font-size="20px" fill="#000000" text-anchor="middle" style="white-space: pre;" direction="ltr" dominant-baseline="text-before-edge">GitLab</text></g><g mask="url(#mask-CK-fbNy4FurgESo3Lc6ey)" stroke-linecap="round"><g transform="translate(349.4202608545136 231.62793015036056) rotate(0 -1.0252648257610417 -51.134190471649845)"><path d="M-0.19 -0.61 C-0.3 -17.38, -1.65 -84.94, -1.86 -101.66" stroke="#000000" stroke-width="1.5" fill="none" stroke-dasharray="8 9"></path></g><g transform="translate(349.4202608545136 231.62793015036056) rotate(0 -1.0252648257610417 -51.134190471649845)"><path d="M7.86 -72.95 C5.65 -77.89, 4.75 -86.9, -3.06 -102.92" stroke="#000000" stroke-width="1.5" fill="none"></path></g><g transform="translate(349.4202608545136 231.62793015036056) rotate(0 -1.0252648257610417 -51.134190471649845)"><path d="M-12.66 -72.61 C-10.74 -77.58, -7.52 -86.66, -3.06 -102.92" stroke="#000000" stroke-width="1.5" fill="none"></path></g></g><mask id="mask-CK-fbNy4FurgESo3Lc6ey"><rect x="0" y="0" fill="#fff" width="451.6950455627149" height="432.51215205767954"></rect><rect x="321.33288681095974" y="168.68581919670106" fill="#000" width="53.89996337890625" height="25" opacity="1"></rect></mask><g transform="translate(321.33288681095974 168.68581919670106) rotate(0 27.062109217792795 11.80792048200965)"><text x="26.949981689453125" y="0" font-family="Virgil, Segoe UI Emoji" font-size="20px" fill="#1e1e1e" text-anchor="middle" style="white-space: pre;" direction="ltr" dominant-baseline="text-before-edge">OIDC</text></g><g stroke-linecap="round" transform="translate(845.6706852818115 568.2733903149497) rotate(0 64 42.49999999999997)"><path d="M3.19 8.07 C3.19 8.07, 3.19 8.07, 3.19 8.07 M3.19 8.07 C3.19 8.07, 3.19 8.07, 3.19 8.07 M0.96 16.73 C2.59 13.07, 5.69 11.16, 10.8 5.41 M0.96 16.73 C3.03 14.25, 6.9 10.1, 10.8 5.41 M0.7 23.13 C8.76 15.79, 13.89 9.36, 17.75 3.51 M0.7 23.13 C7.49 14.59, 14 7.07, 17.75 3.51 M1.09 28.77 C9.46 20.46, 16.64 11.58, 24.05 2.36 M1.09 28.77 C7.76 20.36, 16.68 12.42, 24.05 2.36 M0.83 35.17 C7.68 29, 15.01 20.19, 29.04 2.72 M0.83 35.17 C11.99 23.77, 20.42 11.84, 29.04 2.72 M1.22 40.81 C10.83 26.19, 21.99 12.92, 34.68 2.32 M1.22 40.81 C10.76 31.52, 18.52 20.68, 34.68 2.32 M0.96 47.21 C13.39 33.88, 22.34 21.09, 39.67 2.68 M0.96 47.21 C9.17 38.05, 16.24 28.15, 39.67 2.68 M0.7 53.61 C18.7 35.84, 31.57 14.39, 45.31 2.29 M0.7 53.61 C15.26 35.05, 32.21 16.63, 45.31 2.29 M1.1 59.25 C18.9 42.48, 35.09 21.78, 50.3 2.65 M1.1 59.25 C18.14 38.67, 35.2 20.34, 50.3 2.65 M0.83 65.65 C15.53 47.64, 31.94 30.72, 55.94 2.26 M0.83 65.65 C22.47 40.43, 43.04 16.85, 55.94 2.26 M1.89 70.54 C15.91 54.16, 29.32 38.34, 60.93 2.62 M1.89 70.54 C16.51 53.22, 30.58 36.08, 60.93 2.62 M3.59 74.67 C18 58.51, 35.12 42.16, 66.57 2.22 M3.59 74.67 C23.46 49.17, 46.72 25.2, 66.57 2.22 M5.3 78.81 C32.64 49.5, 57.22 23.35, 71.56 2.58 M5.3 78.81 C19.2 63.06, 32.95 47.26, 71.56 2.58 M8.32 81.43 C27.62 60.1, 42.67 39.18, 77.2 2.19 M8.32 81.43 C30.55 55.91, 52.2 28.97, 77.2 2.19 M11.34 84.06 C37.91 51.96, 67.59 19.25, 82.19 2.55 M11.34 84.06 C37.96 53.08, 66.29 20.76, 82.19 2.55 M15.67 85.17 C36.09 59.97, 60.71 34.9, 87.83 2.15 M15.67 85.17 C45.55 53.24, 73.85 19.69, 87.83 2.15 M20 86.29 C41.34 61.59, 61.9 33.84, 92.82 2.51 M20 86.29 C36.72 67.09, 53.69 47.64, 92.82 2.51 M24.33 87.4 C41.96 68.9, 55.76 53.4, 98.46 2.12 M24.33 87.4 C52.19 53.7, 81.44 21.94, 98.46 2.12 M29.32 87.76 C51.32 62.38, 75.17 37.62, 103.45 2.48 M29.32 87.76 C57.38 54.88, 86.31 21.39, 103.45 2.48 M34.96 87.37 C56.27 59.94, 80.99 37.43, 109.09 2.08 M34.96 87.37 C53.89 64.8, 73.1 43.2, 109.09 2.08 M39.95 87.73 C57.59 71.43, 71.61 50.83, 113.43 3.2 M39.95 87.73 C67.91 55.65, 94.85 22.03, 113.43 3.2 M45.59 87.33 C60.29 70.31, 74.28 55.17, 117.76 4.31 M45.59 87.33 C71.66 58.86, 94.46 29.76, 117.76 4.31 M50.58 87.69 C66.52 67.07, 83.7 50.87, 122.09 5.43 M50.58 87.69 C77.33 54.7, 106.35 23.09, 122.09 5.43 M56.22 87.3 C75.2 66.99, 90.7 47.58, 125.11 8.05 M56.22 87.3 C78.21 62.81, 100.15 38.42, 125.11 8.05 M61.21 87.66 C87.16 58.79, 108.17 31.25, 128.12 10.68 M61.21 87.66 C79.61 67.61, 96.59 48.44, 128.12 10.68 M66.85 87.26 C84.37 65.79, 103.45 46.23, 127.86 17.07 M66.85 87.26 C79.29 73.35, 90.87 58.78, 127.86 17.07 M71.84 87.62 C83.89 73.51, 92.9 62.95, 128.26 22.72 M71.84 87.62 C86.36 70.21, 99.34 55.07, 128.26 22.72 M77.48 87.23 C88.09 73.18, 99.34 63.04, 128 29.11 M77.48 87.23 C88.29 75.01, 98.13 63.61, 128 29.11 M82.47 87.59 C98.8 69.34, 114.47 51.39, 128.39 34.76 M82.47 87.59 C96.49 71.66, 110.65 55.97, 128.39 34.76 M88.11 87.19 C99.1 75.63, 111.53 61.67, 128.13 41.16 M88.11 87.19 C98.7 75.26, 108.8 63.98, 128.13 41.16 M93.1 87.55 C99.4 77.9, 107.95 72.87, 128.52 46.8 M93.1 87.55 C101.74 76.99, 109.58 68.58, 128.52 46.8 M98.08 87.91 C110.3 74.2, 120.74 63.74, 128.26 53.2 M98.08 87.91 C104.53 79.68, 111.85 71.43, 128.26 53.2 M103.73 87.52 C112.19 76.43, 120.7 67.61, 128.66 58.84 M103.73 87.52 C109.25 80.33, 115.66 73.25, 128.66 58.84 M109.37 87.12 C114.38 79.51, 118.27 73.52, 129.05 64.48 M109.37 87.12 C116.05 77.6, 124.44 69.68, 129.05 64.48 M115.67 85.97 C119.39 81.82, 125.11 76.14, 126.82 73.14 M115.67 85.97 C118.57 82.97, 121.79 79.07, 126.82 73.14" stroke="#40c057" stroke-width="0.5" fill="none"></path><path d="M21.25 0 M21.25 0 C52.34 1.79, 81.47 1.6, 106.75 0 M21.25 0 C48.07 -0.37, 75.7 0.07, 106.75 0 M106.75 0 C119.43 -0.46, 128.97 8.78, 128 21.25 M106.75 0 C121.17 -2.29, 127.29 5.3, 128 21.25 M128 21.25 C127.63 34.6, 126.35 52.43, 128 63.75 M128 21.25 C127.67 35.02, 127.85 50.52, 128 63.75 M128 63.75 C128.08 77.7, 120.53 86.95, 106.75 85 M128 63.75 C128.16 76.8, 121.74 83.66, 106.75 85 M106.75 85 C77.42 85.6, 46.05 85.83, 21.25 85 M106.75 85 C82.28 84.74, 59.04 84.99, 21.25 85 M21.25 85 C6.02 86.69, -1.78 79.18, 0 63.75 M21.25 85 C9.2 84.18, -0.06 78.25, 0 63.75 M0 63.75 C-0.04 48.5, -0.14 35.82, 0 21.25 M0 63.75 C0.34 48.37, 1.09 33.87, 0 21.25 M0 21.25 C1.51 7.19, 8.85 -0.75, 21.25 0 M0 21.25 C-0.88 5.66, 5.11 -1.36, 21.25 0" stroke="transparent" stroke-width="1" fill="none"></path></g><g stroke-linecap="round" transform="translate(842.0331866460547 559.2733903149497) rotate(0 64.66803997575994 17.744279261641452)"><path d="M4.74 12.07 C4.74 12.07, 4.74 12.07, 4.74 12.07 M4.74 12.07 C4.74 12.07, 4.74 12.07, 4.74 12.07 M2.84 22.19 C4.59 18.13, 5.64 17.25, 13.68 8.57 M1.26 21.88 C6.18 17.47, 9.43 11.78, 12.78 8.77 M7.47 25.25 C12.14 17.67, 16.38 12.1, 22.47 5.98 M5.42 22.97 C8.87 18.03, 13.29 13.82, 21.31 6.87 M7.6 24.93 C15.72 16.62, 21.88 11.14, 27.09 4.58 M8.43 26.17 C14.91 18.38, 20.44 11.06, 25.65 5.27 M14.02 29.04 C18.83 23.14, 22.46 13.61, 29.97 6.93 M13.03 28.06 C17.61 22.09, 24.04 14.18, 32.33 4.34 M14.15 29.04 C25.27 18.93, 33.76 10.11, 36.35 3.5 M16.29 30.3 C22.82 20.44, 31.08 12.19, 37.8 3.11 M22.12 31.8 C25.84 21.45, 35.14 14.57, 45.27 3.85 M20.45 31.16 C28.53 23.07, 34.79 12.72, 44.27 4.37 M23.59 33.77 C31.64 23.81, 38.39 11.96, 48.77 2.68 M24.65 31.74 C30.27 23.92, 38.48 17.68, 49.98 2.68 M31.51 30.33 C39.23 20.08, 51.59 8.76, 57.26 1.28 M29.94 33.16 C37.82 22.9, 45.71 13.13, 55.62 1.76 M33.55 30.91 C44.31 24.46, 49.31 14.92, 62.11 2.37 M33.62 31.68 C42.16 24.64, 50.35 15.28, 60 3.28 M40.68 32.14 C47.17 19.8, 58.21 9.18, 66.24 1.45 M38.95 33.76 C47.24 25.35, 52.33 16.62, 65.7 2.13 M44.44 34.7 C53.66 26.91, 60.62 14.8, 70.82 2.75 M43.49 34.85 C53.62 22.44, 63.84 12.12, 70.81 2.27 M50.22 35.69 C54.86 23.84, 65.99 14.3, 74.52 1.27 M49.42 33.71 C56.66 26.25, 63.15 19.15, 77.25 2.81 M51.31 37.29 C59.29 27.02, 69.27 15.64, 81.45 1.21 M52.64 34.98 C64.54 22.78, 74.25 11.84, 81.81 2.28 M57.39 35.35 C64.21 26.9, 70.7 22.24, 84.49 2.58 M58.36 35.74 C68.43 24.21, 76.84 14.16, 86.5 3.21 M62.62 34.27 C74.01 23.21, 84.91 12.34, 92.56 3.81 M64.22 34.32 C73.17 24.27, 82.34 14.04, 92.87 2.71 M68.86 33.17 C75.99 29.99, 79.83 20.81, 98.61 4.16 M70.59 34.38 C76.33 28.94, 80.42 22.55, 97.13 2.76 M74.3 35.44 C83.13 24.63, 95.74 13.07, 101.53 3.31 M74.26 34.45 C82.43 25.36, 90.83 15.98, 101.05 3.77 M78.74 33.17 C90.64 24.15, 97.97 13.82, 104.11 5.49 M80.79 34.23 C88.23 26.86, 94.97 17.07, 105.03 6.67 M86.25 35 C91.66 26.05, 100.97 20.09, 110.38 8.39 M86.21 34.45 C94.21 26.09, 100.42 16.41, 110.47 7.69 M89.15 36.04 C97.38 25.56, 105.5 16.95, 112.87 9.73 M90.07 34.64 C97.99 26.59, 106.4 16.62, 114.13 8.93 M95.84 35.14 C103.46 24.65, 111.31 20.46, 118.58 11.44 M96.35 34.43 C102.91 28.13, 108.3 21.54, 117.11 10.46 M103.6 33.64 C111.27 22.9, 118.81 14.31, 122.88 11.22 M103.3 32.2 C111.07 24.68, 117.9 17.25, 123.87 9.8 M109.08 29.67 C113.84 26.61, 117.08 23.52, 123.63 11.77 M111.02 31.28 C114.95 24.86, 121.36 19.23, 125.37 13.12 M119.87 28.27 C122.64 24.75, 125.35 20.17, 128.76 16.81 M118.52 28.13 C120.6 25.03, 123.83 21.23, 128 15.58" stroke="#40c057" stroke-width="0.5" fill="none"></path><path d="M94.45 1.47 C104.58 2.46, 114.92 5.97, 120.69 8.69 C126.46 11.4, 129.54 14.7, 129.06 17.76 C128.59 20.83, 124.64 24.48, 117.86 27.08 C111.08 29.67, 99.24 32.09, 88.39 33.35 C77.54 34.62, 64.18 35.04, 52.76 34.66 C41.35 34.29, 28.56 33.39, 19.91 31.11 C11.26 28.83, 3.44 24.11, 0.87 20.99 C-1.7 17.86, 0.54 15.15, 4.47 12.38 C8.4 9.61, 15.43 6.42, 24.42 4.37 C33.42 2.31, 46.18 0.4, 58.44 0.04 C70.69 -0.32, 91.14 1.67, 97.96 2.2 C104.78 2.74, 99.92 3.01, 99.38 3.23 M91.15 1.18 C101.7 2.25, 113.16 4.62, 119.69 7.45 C126.22 10.28, 130.38 14.86, 130.35 18.18 C130.32 21.5, 125.93 24.68, 119.52 27.37 C113.12 30.07, 102.41 33.22, 91.92 34.34 C81.43 35.45, 68.36 34.57, 56.58 34.06 C44.79 33.55, 30.03 32.95, 21.2 31.27 C12.38 29.58, 6.9 26.93, 3.62 23.96 C0.34 20.99, -1.81 16.63, 1.52 13.45 C4.85 10.26, 14.41 6.82, 23.59 4.83 C32.77 2.83, 45.28 1.85, 56.6 1.46 C67.92 1.06, 85.96 2.62, 91.5 2.47 C97.03 2.32, 90.04 0.43, 89.83 0.54" stroke="#000000" stroke-width="1" fill="none"></path></g><g stroke-linecap="round" transform="translate(847.3990905476066 627.2380359029785) rotate(0 64.66803997575994 17.744279261641452)"><path d="M2.77 13.01 C2.77 13.01, 2.77 13.01, 2.77 13.01 M2.77 13.01 C2.77 13.01, 2.77 13.01, 2.77 13.01 M3.42 18.12 C5.2 16.23, 9.91 11.34, 12.95 9.48 M3.35 19.2 C4.51 16.33, 7.24 13.89, 11.91 9.44 M5.96 23.59 C9.18 18.83, 14.25 13.77, 19.1 5.31 M3.67 22.81 C10.42 16.01, 17.29 10.25, 20.54 5.15 M8.26 23.93 C14.93 18.08, 21.77 9.6, 26.5 3.54 M7.57 25.24 C11.71 19.54, 16.1 14.95, 25.25 4.58 M12.39 29.2 C17.7 17.4, 23.18 13.08, 30.8 6.11 M11.19 28.17 C16.47 21.35, 20.29 16.64, 31.9 3.94 M16.95 27.15 C25.77 18.29, 30.76 8.94, 37.99 4.4 M15.75 27.56 C24.99 17.94, 31.94 8.3, 37.35 3.49 M18.58 28.35 C26.76 22.35, 32.23 17.12, 43.77 3.01 M20.1 31.24 C23.68 23.83, 30.22 19.07, 43.26 3.2 M23.82 31.52 C30.07 20.18, 37.77 13.95, 48.01 2.6 M23.63 30.19 C32.16 23.6, 38.32 14.79, 49.76 3.55 M28.54 31.24 C37.16 24.14, 43.74 15.43, 55.5 1.48 M28.8 32.2 C38.64 19.82, 49.47 7.16, 55.08 1.05 M35.76 32.97 C43.13 21.13, 55.26 9.33, 60.54 1.3 M33.96 32.84 C43.57 22.43, 50.79 13.15, 61.38 1.87 M36.38 31.28 C47.31 20.72, 57.36 10.25, 64.89 2.63 M39.21 33.57 C46.98 21.77, 56.45 11.44, 65.63 1.36 M44.41 35.9 C49.06 26.26, 53.2 21.51, 71.69 1.11 M42.63 33.78 C53.46 22.69, 62.18 10.81, 70.67 2.12 M45.59 33.34 C57.66 22.29, 63.82 11.83, 74.84 0.29 M48.01 34.36 C54.07 27.76, 61.77 19.31, 75.6 2.8 M50.09 36.6 C62.16 22.94, 71.93 10.95, 82.22 2.3 M52.61 35.29 C62.2 24.86, 73.03 11.44, 80.11 2.7 M54.39 36.7 C61.33 31.79, 67.45 21.13, 86.35 3.2 M56.06 37.15 C64.31 27.3, 73.48 16.9, 86.17 3.06 M61.23 36.59 C71.39 27.01, 79.01 18.51, 90.98 4.35 M61.4 36.94 C73.64 23.42, 85.43 10.2, 89.72 2.34 M66.99 38.8 C75.56 24.58, 88.56 14.82, 93.79 3.8 M67.56 37.72 C74.51 27.87, 83.88 16.52, 96.33 3.61 M70.26 38.05 C81.44 28.2, 88.14 17.44, 100.25 4.42 M70.92 37.08 C78.41 29.16, 85.78 20.42, 100.3 4.53 M79.11 35.83 C84.77 27.94, 88.59 22.54, 104.3 6.98 M77.68 37.73 C83.78 28.7, 90.4 22.2, 104.22 6.46 M81.75 36.35 C92.7 28.39, 100.33 18.52, 109.65 7.09 M83.59 37.34 C92.74 24.21, 104.32 13.39, 109.45 5.27 M89.11 33.36 C96.44 25.79, 101.51 21.61, 114.38 8.79 M89.6 35.3 C98.96 24.55, 107.43 15.62, 113.73 6.9 M96.91 30.81 C105.5 25.79, 111.83 17.92, 117.57 7.42 M96.93 33.36 C101.16 28.18, 105.33 22.76, 118.92 8.14 M104.14 29.69 C109.39 23.61, 114.75 19.14, 123.27 7.99 M104.71 30.37 C109.34 25.6, 114.09 19.85, 121.95 8.99 M109.79 29.7 C112.4 27.53, 115.1 20.47, 126.47 13.37 M109.68 29.87 C116.58 23.46, 122.15 15.3, 125.93 12.72 M118.51 28.33 C121.52 23.24, 126.01 18.48, 127.18 15.75 M117.36 27.47 C121.07 23.02, 123.67 19.15, 127.25 15.43" stroke="#40c057" stroke-width="0.5" fill="none"></path><path d="M93.69 1.7 C103.94 2.78, 114.1 5.25, 120.12 7.88 C126.15 10.5, 130.26 14.24, 129.81 17.43 C129.37 20.62, 124.13 24.31, 117.45 27.01 C110.76 29.72, 100.44 32.19, 89.7 33.64 C78.95 35.09, 64.67 36.37, 52.99 35.73 C41.31 35.08, 27.95 31.97, 19.6 29.78 C11.25 27.58, 5.66 25.41, 2.9 22.56 C0.14 19.71, -0.47 15.81, 3.05 12.69 C6.58 9.58, 14.76 6.01, 24.05 3.88 C33.34 1.75, 44.86 -0.17, 58.81 -0.07 C72.75 0.03, 97.84 3.24, 107.7 4.5 C117.55 5.77, 118.59 7.34, 117.94 7.53 M46.63 0.01 C57.23 -0.96, 72.34 0.07, 83.54 1.08 C94.74 2.09, 106.23 3.63, 113.84 6.05 C121.44 8.46, 127.31 12.6, 129.15 15.55 C131 18.51, 129.95 20.92, 124.91 23.78 C119.88 26.65, 108.75 30.59, 98.94 32.76 C89.14 34.92, 77.76 36.63, 66.08 36.75 C54.41 36.87, 38.7 35.3, 28.88 33.47 C19.05 31.63, 11.7 28.54, 7.15 25.73 C2.6 22.92, 0.22 19.71, 1.59 16.6 C2.96 13.49, 8.18 9.92, 15.38 7.05 C22.58 4.17, 39.4 0.36, 44.79 -0.66 C50.18 -1.68, 47.38 0.54, 47.7 0.94" stroke="#000000" stroke-width="1" fill="none"></path></g><g stroke-linecap="round"><g transform="translate(845.1877251814576 643.1936805307691) rotate(0 -0.9271196027572159 -33.20189291597035)"><path d="M1.12 0.16 C0.43 -11.09, -2.35 -55.4, -2.97 -66.56 M0.24 -0.8 C-0.14 -11.93, 0.04 -54.22, -0.58 -65.02" stroke="#000000" stroke-width="1" fill="none"></path></g></g><mask></mask><g stroke-linecap="round"><g transform="translate(975.3124397668282 643.4050458969184) rotate(0 -1.5836747357351442 -33.899431744820134)"><path d="M-0.6 0.01 C-1.35 -11.32, -2.79 -56.65, -3.38 -67.81 M1.28 -1.03 C0.25 -12.19, -3.94 -55.07, -4.45 -66.39" stroke="#000000" stroke-width="1" fill="none"></path></g></g><mask></mask><g transform="translate(852.943087567498 599.2733903149497) rotate(0 57.12994384765625 12.5)"><text x="57.12994384765625" y="0" font-family="Virgil, Segoe UI Emoji" font-size="20px" fill="#000000" text-anchor="middle" style="white-space: pre;" direction="ltr" dominant-baseline="text-before-edge">PostgreSQL</text></g><g stroke-linecap="round"><g transform="translate(464.92589953417007 291.2405757842224) rotate(0 49.286840765136276 -0.3064400576055064)"><path d="M-0.44 0.54 C15.8 0.16, 80.62 -1.08, 96.89 -1.15 M1.52 -0.23 C18.17 0.02, 82.67 -0.5, 99.02 -0.22" stroke="#000000" stroke-width="1" fill="none"></path></g><g transform="translate(464.92589953417007 291.2405757842224) rotate(0 49.286840765136276 -0.3064400576055064)"><path d="M71.69 8.1 C75.88 6.13, 85.05 4.13, 98.92 -0.47 M70.36 10.61 C80.48 6.9, 88.42 4.85, 99.86 -0.61" stroke="#000000" stroke-width="1" fill="none"></path></g><g transform="translate(464.92589953417007 291.2405757842224) rotate(0 49.286840765136276 -0.3064400576055064)"><path d="M71.75 -12.42 C76.12 -9.24, 85.27 -6.08, 98.92 -0.47 M70.42 -9.91 C80.48 -7.28, 88.4 -2.99, 99.86 -0.61" stroke="#000000" stroke-width="1" fill="none"></path></g></g><mask></mask><g stroke-linecap="round"><g transform="translate(496.4202608545136 480.62793015036056) rotate(0 -59.74790319436761 -64.88312915482345)"><path d="M0.52 -1.06 C-19.46 -23, -99.9 -108.98, -120.01 -130.76 M-0.67 0.99 C-20.25 -20.8, -98.17 -107.18, -117.69 -129.15" stroke="#000000" stroke-width="1" fill="none"></path></g><g transform="translate(496.4202608545136 480.62793015036056) rotate(0 -59.74790319436761 -64.88312915482345)"><path d="M-93.01 -116.23 C-98.75 -120.48, -108.01 -122.93, -118.83 -130.13 M-91.71 -114.69 C-97.57 -118.71, -104.46 -121.5, -117.16 -129.68" stroke="#000000" stroke-width="1" fill="none"></path></g><g transform="translate(496.4202608545136 480.62793015036056) rotate(0 -59.74790319436761 -64.88312915482345)"><path d="M-108.29 -102.54 C-109.72 -110.8, -114.58 -117.2, -118.83 -130.13 M-106.99 -100.99 C-109.33 -108.14, -112.58 -114.2, -117.16 -129.68" stroke="#000000" stroke-width="1" fill="none"></path></g></g><mask></mask><g stroke-linecap="round"><g transform="translate(605.3999481201172 539.336305016621) rotate(0 119.29832092330815 35.86032350594388)"><path d="M-1.19 -0.37 C38.23 11.83, 197.71 61.26, 237.57 73.33 M0.38 -1.61 C40.09 10.22, 200.38 59.06, 239.79 71.5" stroke="#000000" stroke-width="1" fill="none"></path></g><g transform="translate(605.3999481201172 539.336305016621) rotate(0 119.29832092330815 35.86032350594388)"><path d="M209.21 71.43 C222.28 71.77, 231.7 71.97, 238.44 70.05 M210.51 72.35 C220.99 71.75, 233.88 71.66, 239.68 71.31" stroke="#000000" stroke-width="1" fill="none"></path></g><g transform="translate(605.3999481201172 539.336305016621) rotate(0 119.29832092330815 35.86032350594388)"><path d="M215.27 51.82 C226.03 59.65, 233.12 67.39, 238.44 70.05 M216.57 52.74 C224.77 59.81, 235.3 67.35, 239.68 71.31" stroke="#000000" stroke-width="1" fill="none"></path></g></g><mask></mask><g stroke-linecap="round"><g transform="translate(618.634644960864 753.3326830336682) rotate(0 110.21041654124866 10.102940939289283)"><path d="M-0.75 -0.96 C36.15 2.49, 184.38 16.59, 221.17 20.16 M1.06 1.15 C37.91 4.76, 184.48 17.8, 220.84 21.17" stroke="#000000" stroke-width="1" fill="none"></path></g><g transform="translate(618.634644960864 753.3326830336682) rotate(0 110.21041654124866 10.102940939289283)"><path d="M190.23 30.79 C198.43 26.81, 207.12 24.54, 221.57 22.42 M192.77 29.01 C200.54 26.63, 209.9 24.39, 221.5 20.94" stroke="#000000" stroke-width="1" fill="none"></path></g><g transform="translate(618.634644960864 753.3326830336682) rotate(0 110.21041654124866 10.102940939289283)"><path d="M192.09 10.35 C199.66 12.16, 207.84 15.7, 221.57 22.42 M194.62 8.57 C201.86 12.4, 210.66 16.34, 221.5 20.94" stroke="#000000" stroke-width="1" fill="none"></path></g></g><mask></mask><g stroke-linecap="round"><g transform="translate(602.9738236766174 554.2160230151128) rotate(0 117.47218866494956 112.21330758621369)"><path d="M0.99 -0.64 C39.96 36.91, 196.13 187.45, 234.89 225.07 M0.06 1.64 C38.84 38.86, 195.66 186.38, 234.41 223.29" stroke="#000000" stroke-width="1" fill="none"></path></g><g transform="translate(602.9738236766174 554.2160230151128) rotate(0 117.47218866494956 112.21330758621369)"><path d="M205.81 212.85 C218.74 215.04, 229.58 218.9, 236.31 223.62 M206.34 212.28 C215.09 215.04, 223.73 218.67, 235.16 223.02" stroke="#000000" stroke-width="1" fill="none"></path></g><g transform="translate(602.9738236766174 554.2160230151128) rotate(0 117.47218866494956 112.21330758621369)"><path d="M219.91 197.94 C227.29 206.09, 232.59 215.8, 236.31 223.62 M220.45 197.37 C225.01 204.53, 229.45 212.59, 235.16 223.02" stroke="#000000" stroke-width="1" fill="none"></path></g></g><mask></mask><g stroke-linecap="round"><g transform="translate(617.634644960864 739.3326830336682) rotate(0 113.20739402994514 -63.640871440942334)"><path d="M-0.64 0.89 C37.05 -20, 188.99 -105.2, 227.05 -126.44 M1.23 0.31 C38.68 -20.82, 188.44 -106.7, 226.13 -128.17" stroke="#000000" stroke-width="1" fill="none"></path></g><g transform="translate(617.634644960864 739.3326830336682) rotate(0 113.20739402994514 -63.640871440942334)"><path d="M208.23 -105.19 C215.56 -112.6, 222.74 -121.69, 224.16 -126.82 M206.04 -104.71 C212.05 -110.11, 216.46 -115.98, 226.69 -127.4" stroke="#000000" stroke-width="1" fill="none"></path></g><g transform="translate(617.634644960864 739.3326830336682) rotate(0 113.20739402994514 -63.640871440942334)"><path d="M198.05 -123 C209.07 -123.61, 220.12 -125.94, 224.16 -126.82 M195.85 -122.52 C204.15 -123.76, 210.91 -125.51, 226.69 -127.4" stroke="#000000" stroke-width="1" fill="none"></path></g></g><mask></mask><g stroke-linecap="round" transform="translate(788.1842402178659 233.99999237060547) rotate(0 212.5 141.5)"><path d="M32 0 M32 0 C120.83 -0.74, 207.97 0.05, 393 0 M393 0 C413.49 0.27, 425.22 9.37, 425 32 M425 32 C426.47 112.6, 424.15 190.02, 425 251 M425 251 C426.98 271.46, 414.81 284.72, 393 283 M393 283 C260.32 281.2, 128.11 283.47, 32 283 M32 283 C10.07 281.99, -0.49 271.77, 0 251 M0 251 C-0.04 178.16, -1 103.51, 0 32 M0 32 C0.94 10.1, 8.81 0.66, 32 0" stroke="#1971c2" stroke-width="1.5" fill="none" stroke-dasharray="8 9"></path></g><g transform="translate(810.6644037920846 486.99999237060547) rotate(0 190.01983642578125 12.5)"><text x="190.01983642578125" y="0" font-family="Virgil, Segoe UI Emoji" font-size="20px" fill="#1971c2" text-anchor="middle" style="white-space: pre;" direction="ltr" dominant-baseline="text-before-edge">Object Storage (Amazon S3 compliant)</text></g><g stroke-linecap="round"><g transform="translate(606.3859192945578 513.5246912437091) rotate(0 118.5623460817825 -57.95690474581809)"><path d="M-0.1 0.47 C39.33 -18.97, 197.55 -96.67, 237.23 -116.38" stroke="#000000" stroke-width="1.5" fill="none" stroke-dasharray="8 9"></path></g><g transform="translate(606.3859192945578 513.5246912437091) rotate(0 118.5623460817825 -57.95690474581809)"><path d="M217.27 -95.35 C224.7 -101.76, 229.64 -108.32, 238.74 -118.16" stroke="#000000" stroke-width="1.5" fill="none"></path></g><g transform="translate(606.3859192945578 513.5246912437091) rotate(0 118.5623460817825 -57.95690474581809)"><path d="M208.19 -113.75 C218.87 -113.65, 227.02 -113.7, 238.74 -118.16" stroke="#000000" stroke-width="1.5" fill="none"></path></g></g><mask></mask><g stroke-linecap="round"><g transform="translate(623.6218941360835 726.9568971164235) rotate(0 109.83249764179095 -160.57095157426684)"><path d="M-0.64 -0.41 C36.21 -53.85, 183.51 -267.37, 220.31 -320.73" stroke="#000000" stroke-width="1.5" fill="none" stroke-dasharray="8 9"></path></g><g transform="translate(623.6218941360835 726.9568971164235) rotate(0 109.83249764179095 -160.57095157426684)"><path d="M212.06 -290.54 C213.19 -297.39, 215.18 -306.39, 220.26 -319.66" stroke="#000000" stroke-width="1.5" fill="none"></path></g><g transform="translate(623.6218941360835 726.9568971164235) rotate(0 109.83249764179095 -160.57095157426684)"><path d="M195.16 -302.19 C200.17 -306.27, 206.05 -312.6, 220.26 -319.66" stroke="#000000" stroke-width="1.5" fill="none"></path></g></g><mask></mask></svg>